<svg width="1544" height="905" xmlns="http://www.w3.org/2000/svg" xmlns:xlink="http://www.w3.org/1999/xlink" xml:space="preserve" overflow="hidden"><g transform="translate(-1436 -781)"><path d="M2127.5 1234.06 2297.77 1234.06 2297.77 1240.94 2127.5 1240.94ZM2293.19 1223.75 2320.69 1237.5 2293.19 1251.25Z" fill="#156082"/><path d="M3.4375-8.2606e-06 3.43781 127.262-3.43719 127.262-3.4375 8.2606e-06ZM13.7503 122.679 0.000360892 150.179-13.7497 122.679Z" fill="#156082" transform="matrix(1 0 0 -1 2127.5 1237.68)"/><text font-family="Aptos,Aptos_MSFontService,sans-serif" font-weight="400" font-size="46" transform="matrix(1 0 0 1 2113 1297)">Γ</text><path d="M2224.75 1262.4C2229.13 1263.55 2232.49 1266.04 2234.83 1269.86 2237.17 1273.69 2238.34 1278.31 2238.34 1283.71 2238.34 1289.13 2237.18 1293.75 2234.84 1297.56 2232.5 1301.37 2229.14 1303.85 2224.75 1305L2224.22 1303.27C2227.67 1302.12 2230.25 1299.85 2231.93 1296.45 2233.62 1293.05 2234.46 1288.73 2234.46 1283.49 2234.46 1278.43 2233.62 1274.22 2231.94 1270.87 2230.27 1267.53 2227.67 1265.28 2224.15 1264.12ZM2151.83 1262.4 2152.43 1264.12C2148.93 1265.28 2146.34 1267.53 2144.65 1270.87 2142.97 1274.22 2142.12 1278.43 2142.12 1283.49 2142.12 1288.73 2142.97 1293.05 2144.65 1296.45 2146.34 1299.85 2148.91 1302.12 2152.37 1303.27L2151.83 1305C2147.44 1303.85 2144.08 1301.37 2141.74 1297.56 2139.41 1293.75 2138.24 1289.13 2138.24 1283.71 2138.24 1278.31 2139.41 1273.69 2141.75 1269.86 2144.1 1266.04 2147.45 1263.55 2151.83 1262.4Z" fill-rule="evenodd"/><text font-family="Cambria Math,Cambria Math_MSFontService,sans-serif" font-weight="400" font-size="46" transform="matrix(1 0 0 1 2153.22 1297)">0</text><text font-family="Cambria Math,Cambria Math_MSFontService,sans-serif" font-weight="400" font-size="46" transform="matrix(1 0 0 1 2178.42 1297)">;</text><text font-family="Cambria Math,Cambria Math_MSFontService,sans-serif" font-weight="400" font-size="46" transform="matrix(1 0 0 1 2198.09 1297)">0</text><path d="M2116 1237C2116 1230.93 2120.93 1226 2127 1226 2133.08 1226 2138 1230.93 2138 1237 2138 1243.08 2133.08 1248 2127 1248 2120.93 1248 2116 1243.08 2116 1237Z" fill-rule="evenodd"/><path d="M2655 1237C2655 1230.93 2659.93 1226 2666 1226 2672.08 1226 2677 1230.93 2677 1237 2677 1243.08 2672.08 1248 2666 1248 2659.93 1248 2655 1243.08 2655 1237Z" fill-rule="evenodd"/><path d="M2118 1526C2118 1519.92 2122.92 1515 2129 1515 2135.07 1515 2140 1519.92 2140 1526 2140 1532.07 2135.07 1537 2129 1537 2122.92 1537 2118 1532.07 2118 1526Z" fill-rule="evenodd"/><path d="M1583 1237C1583 1230.93 1587.92 1226 1594 1226 1600.08 1226 1605 1230.93 1605 1237 1605 1243.08 1600.08 1248 1594 1248 1587.92 1248 1583 1243.08 1583 1237Z" fill-rule="evenodd"/><path d="M1779 1237C1779 1230.93 1783.92 1226 1790 1226 1796.07 1226 1801 1230.93 1801 1237 1801 1243.08 1796.07 1248 1790 1248 1783.92 1248 1779 1243.08 1779 1237Z" fill-rule="evenodd"/><path d="M2451 1237C2451 1230.93 2455.92 1226 2462 1226 2468.08 1226 2473 1230.93 2473 1237 2473 1243.08 2468.08 1248 2462 1248 2455.92 1248 2451 1243.08 2451 1237Z" fill-rule="evenodd"/><path d="M2118 947C2118 940.925 2122.92 936 2129 936 2135.07 936 2140 940.925 2140 947 2140 953.075 2135.07 958 2129 958 2122.92 958 2118 953.075 2118 947Z" fill-rule="evenodd"/><path d="M1592.5 1237.5 2129.5 948.5 2666.5 1237.5 2129.5 1526.5Z" stroke="#000000" stroke-width="6.875" stroke-miterlimit="8" fill="none" fill-rule="evenodd"/><text font-family="Arial,Arial_MSFontService,sans-serif" font-weight="400" font-size="64" transform="matrix(1 0 0 1 2476.01 1218)">K</text><text font-family="Arial,Arial_MSFontService,sans-serif" font-weight="400" font-size="55" transform="matrix(1 0 0 1 1793.89 1222)">K’</text><path d="M2306.7 1286.41 2308.57 1286.41 2308.57 1313.73 2309.57 1313.73C2310.26 1313.73 2310.82 1313.65 2311.26 1313.51 2311.78 1313.32 2312.35 1313 2312.98 1312.56 2313.6 1312.11 2314.49 1311.35 2315.63 1310.29 2316.59 1309.39 2317.31 1308.63 2317.8 1308.01 2318.29 1307.38 2318.63 1306.81 2318.82 1306.29 2318.99 1305.85 2319.07 1305.41 2319.07 1304.98 2319.07 1304.35 2318.88 1303.86 2318.49 1303.51 2318.11 1303.15 2317.48 1302.91 2316.6 1302.79L2316.6 1301.26 2330.07 1301.26 2330.07 1302.79C2329.11 1302.98 2328.09 1303.4 2327.01 1304.07 2325.92 1304.74 2324.81 1305.61 2323.66 1306.7L2316.48 1313.51 2325.48 1325.26C2326.52 1326.63 2327.46 1327.65 2328.3 1328.31 2329.15 1328.96 2330.07 1329.39 2331.07 1329.6L2331.07 1331.13 2319.07 1331.13 2319.07 1329.6C2319.61 1329.54 2320.01 1329.42 2320.27 1329.24 2320.53 1329.07 2320.66 1328.77 2320.66 1328.35 2320.66 1328.04 2320.61 1327.73 2320.49 1327.43 2320.38 1327.13 2320.14 1326.72 2319.79 1326.2 2319.43 1325.68 2318.79 1324.77 2317.85 1323.48L2314.13 1318.48C2313.42 1317.54 2312.92 1316.93 2312.62 1316.63 2312.31 1316.34 2312 1316.13 2311.66 1316.01 2311.33 1315.88 2310.88 1315.82 2310.32 1315.82L2308.57 1315.82 2308.57 1323.32C2308.57 1325.11 2308.65 1326.36 2308.82 1327.06 2308.99 1327.75 2309.3 1328.28 2309.77 1328.65 2310.24 1329.01 2311.01 1329.33 2312.07 1329.6L2312.07 1331.13 2299.66 1331.13 2299.66 1329.6C2300.71 1329.33 2301.43 1329.05 2301.84 1328.76 2302.24 1328.47 2302.53 1328.12 2302.71 1327.71 2302.89 1327.31 2303.01 1326.75 2303.09 1326.06 2303.16 1325.36 2303.2 1324.45 2303.2 1323.32L2303.2 1297.16C2303.2 1295.16 2303.18 1293.77 2303.15 1292.98 2303.12 1292.19 2303.03 1291.51 2302.9 1290.96 2302.76 1290.41 2302.58 1289.98 2302.34 1289.66 2302.1 1289.35 2301.77 1289.1 2301.37 1288.91 2300.96 1288.73 2300.23 1288.54 2299.16 1288.35L2299.16 1286.73Z" fill-rule="evenodd"/><text fill="#000000" fill-opacity="0" font-family="Arial,Arial_MSFontService,sans-serif" font-size="44.7188" x="2299.16" y="1325.54">k</text><path d="M2334.92 1321.27 2344.99 1321.27 2344.99 1322.74C2344.26 1322.83 2343.73 1322.99 2343.42 1323.21 2343.11 1323.43 2342.95 1323.69 2342.95 1324 2342.95 1324.31 2343.03 1324.62 2343.19 1324.94 2343.35 1325.26 2343.61 1325.65 2343.96 1326.09L2346.99 1330.2 2350.25 1326.25C2350.6 1325.85 2350.87 1325.48 2351.06 1325.14 2351.25 1324.79 2351.35 1324.4 2351.35 1323.95 2351.35 1323.68 2351.2 1323.43 2350.9 1323.21 2350.6 1322.99 2350.15 1322.83 2349.54 1322.74L2349.54 1321.27 2357.96 1321.27 2357.96 1322.74C2357.21 1322.92 2356.49 1323.29 2355.81 1323.84 2355.13 1324.39 2354.39 1325.14 2353.58 1326.09L2348.53 1332.15 2354.1 1339.28C2354.53 1339.85 2354.93 1340.34 2355.31 1340.74 2355.68 1341.15 2356.04 1341.49 2356.36 1341.76 2356.69 1342.04 2357.01 1342.25 2357.32 1342.41 2357.62 1342.56 2357.93 1342.67 2358.23 1342.75L2358.23 1344.22 2348.02 1344.22 2348.02 1342.68C2348.7 1342.6 2349.19 1342.45 2349.5 1342.22 2349.82 1341.99 2349.97 1341.73 2349.97 1341.42 2349.97 1341.16 2349.93 1340.89 2349.83 1340.62 2349.74 1340.34 2349.55 1340 2349.26 1339.61L2345.73 1334.86 2341.89 1339.56C2341.6 1339.91 2341.4 1340.23 2341.27 1340.5 2341.15 1340.78 2341.09 1341.07 2341.09 1341.37 2341.09 1341.66 2341.25 1341.94 2341.56 1342.19 2341.88 1342.44 2342.37 1342.6 2343.04 1342.68L2343.04 1344.22 2334.44 1344.22 2334.44 1342.75C2334.86 1342.6 2335.25 1342.44 2335.58 1342.28 2335.92 1342.12 2336.26 1341.9 2336.6 1341.64 2336.95 1341.37 2337.32 1341.03 2337.72 1340.62 2338.12 1340.2 2338.59 1339.67 2339.14 1339.01L2344.19 1332.97 2339 1326.16C2338.53 1325.53 2338.12 1325.01 2337.76 1324.6 2337.41 1324.18 2337.09 1323.85 2336.79 1323.59 2336.49 1323.33 2336.19 1323.14 2335.89 1323.01 2335.59 1322.89 2335.27 1322.8 2334.92 1322.74Z" fill-rule="evenodd"/><text fill="#000000" fill-opacity="0" font-family="Arial,Arial_MSFontService,sans-serif" font-size="22.9492" x="2334.44" y="1341.35">x</text><path d="M2052.69 1062.27 2054.57 1062.27 2054.57 1089.58 2055.57 1089.58C2056.25 1089.58 2056.82 1089.51 2057.25 1089.37 2057.77 1089.18 2058.35 1088.86 2058.97 1088.41 2059.6 1087.96 2060.48 1087.21 2061.63 1086.15 2062.59 1085.25 2063.31 1084.49 2063.8 1083.87 2064.29 1083.24 2064.63 1082.67 2064.82 1082.15 2064.98 1081.71 2065.07 1081.27 2065.07 1080.83 2065.07 1080.21 2064.87 1079.72 2064.49 1079.37 2064.1 1079.01 2063.47 1078.77 2062.6 1078.65L2062.6 1077.12 2076.07 1077.12 2076.07 1078.65C2075.11 1078.83 2074.09 1079.26 2073 1079.93 2071.92 1080.59 2070.8 1081.47 2069.66 1082.55L2062.47 1089.37 2071.47 1101.12C2072.51 1102.49 2073.46 1103.51 2074.3 1104.16 2075.14 1104.82 2076.07 1105.25 2077.07 1105.46L2077.07 1106.99 2065.07 1106.99 2065.07 1105.46C2065.61 1105.4 2066.01 1105.28 2066.27 1105.1 2066.53 1104.92 2066.66 1104.63 2066.66 1104.21 2066.66 1103.9 2066.6 1103.59 2066.49 1103.29 2066.37 1102.99 2066.14 1102.57 2065.78 1102.05 2065.43 1101.53 2064.78 1100.63 2063.85 1099.33L2060.13 1094.33C2059.42 1093.4 2058.91 1092.78 2058.61 1092.49 2058.31 1092.2 2057.99 1091.99 2057.66 1091.87 2057.33 1091.74 2056.88 1091.68 2056.32 1091.68L2054.57 1091.68 2054.57 1099.18C2054.57 1100.97 2054.65 1102.21 2054.82 1102.91 2054.98 1103.61 2055.3 1104.14 2055.77 1104.51 2056.24 1104.87 2057 1105.19 2058.07 1105.46L2058.07 1106.99 2045.66 1106.99 2045.66 1105.46C2046.7 1105.19 2047.42 1104.91 2047.83 1104.62 2048.24 1104.32 2048.53 1103.97 2048.71 1103.57 2048.88 1103.16 2049.01 1102.61 2049.08 1101.91 2049.15 1101.21 2049.19 1100.3 2049.19 1099.18L2049.19 1073.02C2049.19 1071.02 2049.17 1069.63 2049.14 1068.83 2049.11 1068.04 2049.03 1067.37 2048.89 1066.82 2048.76 1066.27 2048.57 1065.83 2048.33 1065.52 2048.09 1065.21 2047.77 1064.96 2047.36 1064.77 2046.96 1064.58 2046.22 1064.4 2045.16 1064.21L2045.16 1062.58Z" fill-rule="evenodd"/><text fill="#000000" fill-opacity="0" font-family="Arial,Arial_MSFontService,sans-serif" font-size="44.7188" x="2045.16" y="1101.4">k</text><path d="M2080.48 1097.13 2090.94 1097.13 2090.94 1098.6C2089.96 1098.78 2089.28 1099.01 2088.9 1099.28 2088.52 1099.56 2088.33 1099.96 2088.33 1100.5 2088.33 1100.88 2088.38 1101.3 2088.5 1101.74 2088.61 1102.18 2088.78 1102.7 2088.99 1103.3L2093.35 1115.19 2098.33 1103.85C2098.59 1103.21 2098.81 1102.65 2098.99 1102.19 2099.16 1101.72 2099.25 1101.25 2099.25 1100.78 2099.25 1100.15 2099.04 1099.66 2098.62 1099.32 2098.2 1098.97 2097.5 1098.73 2096.52 1098.6L2096.52 1097.13 2106.07 1097.13 2106.07 1098.6C2105.58 1098.7 2105.17 1098.82 2104.85 1098.95 2104.53 1099.08 2104.23 1099.28 2103.95 1099.56 2103.68 1099.83 2103.41 1100.21 2103.14 1100.7 2102.87 1101.18 2102.55 1101.82 2102.19 1102.61L2093.35 1121.66C2092.65 1123.14 2091.96 1124.42 2091.29 1125.48 2090.61 1126.54 2089.91 1127.42 2089.16 1128.11 2088.42 1128.8 2087.62 1129.31 2086.75 1129.63 2085.89 1129.96 2084.92 1130.13 2083.85 1130.13 2083.35 1130.13 2082.83 1130.1 2082.3 1130.04 2081.77 1129.97 2081.21 1129.88 2080.61 1129.76L2080.61 1124.73 2083.07 1124.73C2083.25 1125.38 2083.51 1125.84 2083.83 1126.12 2084.15 1126.41 2084.57 1126.55 2085.09 1126.55 2085.58 1126.55 2086.02 1126.47 2086.41 1126.32 2086.8 1126.17 2087.21 1125.86 2087.63 1125.4 2088.05 1124.94 2088.51 1124.29 2089.01 1123.46 2089.52 1122.63 2090.12 1121.53 2090.83 1120.17L2084.01 1102.47C2083.74 1101.75 2083.49 1101.18 2083.28 1100.74 2083.06 1100.31 2082.84 1099.95 2082.6 1099.69 2082.36 1099.42 2082.08 1099.21 2081.75 1099.05 2081.42 1098.9 2081 1098.75 2080.48 1098.6Z" fill-rule="evenodd"/><text fill="#000000" fill-opacity="0" font-family="Arial,Arial_MSFontService,sans-serif" font-size="33.001" x="2080.48" y="1126">y</text><path d="M2019.26 844.677 2027.28 844.677 2035.17 866.531 2043.84 844.677 2051.43 844.677 2051.43 845.777C2050.77 845.942 2050.29 846.107 2050 846.271 2049.71 846.436 2049.48 846.642 2049.3 846.889 2049.13 847.136 2049.01 847.507 2048.92 848.001 2048.84 848.495 2048.8 849.259 2048.8 850.292L2048.8 869.721C2048.8 870.724 2048.83 871.458 2048.9 871.922 2048.97 872.386 2049.08 872.753 2049.24 873.022 2049.39 873.292 2049.63 873.516 2049.93 873.696 2050.24 873.876 2050.74 874.055 2051.43 874.235L2051.43 875.336 2042.06 875.336 2042.06 874.235C2042.91 874.026 2043.51 873.786 2043.84 873.516 2044.17 873.247 2044.39 872.85 2044.51 872.326 2044.63 871.802 2044.69 870.933 2044.69 869.721L2044.69 861.118C2044.69 858.857 2044.72 856.57 2044.79 854.256 2044.86 851.943 2044.94 850.359 2045.03 849.506L2044.64 849.506 2035.75 871.764 2033.17 871.764 2024.9 849.146 2024.52 849.146C2024.59 850.06 2024.67 851.714 2024.73 854.11 2024.8 856.506 2024.83 858.969 2024.83 861.5L2024.83 869.721C2024.83 870.724 2024.87 871.458 2024.93 871.922 2025 872.386 2025.11 872.753 2025.27 873.022 2025.43 873.292 2025.66 873.516 2025.97 873.696 2026.27 873.876 2026.77 874.055 2027.46 874.235L2027.46 875.336 2019.26 875.336 2019.26 874.235C2020.19 873.996 2020.81 873.73 2021.13 873.438 2021.44 873.146 2021.65 872.73 2021.75 872.191 2021.84 871.652 2021.89 870.829 2021.89 869.721L2021.89 850.292C2021.89 849.259 2021.85 848.506 2021.78 848.034 2021.7 847.563 2021.58 847.196 2021.41 846.934 2021.24 846.672 2021.01 846.462 2020.72 846.305 2020.44 846.148 2019.95 845.972 2019.26 845.777Z" fill-rule="evenodd"/><text fill="#000000" fill-opacity="0" font-family="Arial,Arial_MSFontService,sans-serif" font-size="30.6592" x="2019.26" y="871.503">M</text><path d="M2214.54 803.551C2220.69 808.822 2225.58 816.683 2229.19 827.135 2232.81 837.587 2234.62 849.252 2234.62 862.129 2234.62 874.812 2232.81 886.458 2229.19 897.067 2225.58 907.676 2220.69 915.601 2214.54 920.842L2213.48 919.18C2218.8 913.774 2222.89 905.951 2225.77 895.708 2228.64 885.466 2230.08 874.281 2230.08 862.152 2230.08 849.738 2228.64 838.5 2225.75 828.438 2222.86 818.375 2218.77 810.641 2213.48 805.236ZM2085.36 803.551 2086.42 805.236C2081.11 810.641 2077.02 818.375 2074.14 828.438 2071.26 838.5 2069.82 849.738 2069.82 862.152 2069.82 874.281 2071.25 885.466 2074.13 895.708 2077 905.951 2081.1 913.774 2086.42 919.18L2085.36 920.842C2079.21 915.601 2074.32 907.676 2070.7 897.067 2067.09 886.458 2065.28 874.812 2065.28 862.129 2065.28 849.252 2067.09 837.587 2070.7 827.135 2074.32 816.683 2079.21 808.822 2085.36 803.551Z" fill-rule="evenodd"/><path d="M2100.53 846.226C2099.49 846.226 2098.63 846.533 2097.93 847.147 2097.24 847.761 2096.67 848.645 2096.25 849.798 2095.82 850.951 2095.52 852.354 2095.34 854.009 2095.16 855.664 2095.07 857.532 2095.07 859.613 2095.07 864.495 2095.52 868.077 2096.43 870.361 2097.33 872.644 2098.74 873.786 2100.64 873.786 2102.45 873.786 2103.79 872.712 2104.67 870.563 2105.55 868.414 2105.98 865.086 2105.98 860.579 2105.98 857.135 2105.76 854.346 2105.31 852.212 2104.86 850.078 2104.24 848.547 2103.44 847.619 2102.63 846.691 2101.66 846.226 2100.53 846.226ZM2100.64 844.317C2103.92 844.317 2106.36 845.583 2107.96 848.113 2109.56 850.644 2110.36 854.47 2110.36 859.591 2110.36 864.891 2109.51 868.901 2107.79 871.618 2106.08 874.336 2103.57 875.695 2100.28 875.695 2097.05 875.695 2094.64 874.422 2093.06 871.877 2091.48 869.331 2090.69 865.468 2090.69 860.287 2090.69 857.532 2090.93 855.151 2091.42 853.144 2091.91 851.138 2092.59 849.479 2093.46 848.169 2094.34 846.859 2095.39 845.889 2096.62 845.261 2097.85 844.632 2099.19 844.317 2100.64 844.317Z" fill-rule="evenodd"/><text fill="#000000" fill-opacity="0" font-family="Arial,Arial_MSFontService,sans-serif" font-size="31.3779" x="2090.69" y="871.773">0</text><path d="M2116.01 870.125 2119.94 870.125C2120.15 871.173 2120.25 872.206 2120.25 873.224 2120.25 874.273 2120.08 875.231 2119.72 876.099 2119.36 876.968 2118.78 877.833 2118 878.694 2117.21 879.555 2116.13 880.502 2114.75 881.535L2113.54 880.165C2114.3 879.446 2114.86 878.798 2115.2 878.222 2115.55 877.646 2115.79 876.99 2115.94 876.257 2116.09 875.523 2116.17 874.602 2116.17 873.494 2116.17 872.356 2116.11 871.233 2116.01 870.125Z" fill-rule="evenodd"/><text fill="#000000" fill-opacity="0" font-family="Arial,Arial_MSFontService,sans-serif" font-size="11.4102" x="2113.54" y="880.109">,</text><path d="M2177.82 819.167 2196.26 819.167 2195.61 822.132 2190.26 822.132 2187.72 833.385C2187.39 834.853 2187.23 835.961 2187.23 836.709 2187.23 837.308 2187.33 837.742 2187.52 838.012 2187.71 838.282 2188.02 838.416 2188.44 838.416 2189.34 838.416 2190.4 837.698 2191.61 836.26L2192.91 837.473C2191.77 838.716 2190.74 839.614 2189.8 840.168 2188.86 840.722 2187.86 840.999 2186.8 840.999 2185.78 840.999 2184.98 840.651 2184.4 839.955 2183.81 839.259 2183.52 838.341 2183.52 837.203 2183.52 836.2 2183.73 834.748 2184.15 832.846L2184.65 830.577C2184.9 829.38 2185.26 827.935 2185.73 826.242 2186.21 824.55 2186.61 823.248 2186.96 822.334L2186.85 822.132 2180.24 822.132 2177.48 834.912C2177.26 835.916 2176.99 836.998 2176.69 838.158 2176.39 839.318 2176.16 840.146 2176 840.64L2171.24 840.64 2171.46 839.539C2173.05 837.967 2174.52 834.284 2175.86 828.489L2177.35 822.132 2176.63 822.132C2175.56 822.132 2174.67 822.312 2173.93 822.671 2173.2 823.031 2172.4 823.749 2171.53 824.827L2170.11 823.637C2170.89 822.694 2171.53 821.975 2172.02 821.481 2172.52 820.987 2173.04 820.567 2173.58 820.223 2174.13 819.879 2174.74 819.617 2175.43 819.437 2176.11 819.257 2176.9 819.167 2177.82 819.167ZM2157.24 809.621C2160.03 809.621 2162.13 810.232 2163.55 811.452 2164.98 812.672 2165.69 814.443 2165.69 816.764 2165.69 817.558 2165.61 818.288 2165.45 818.954 2165.29 819.62 2165.05 820.279 2164.71 820.93 2164.37 821.582 2163.92 822.282 2163.35 823.031 2162.78 823.779 2162.15 824.539 2161.46 825.31 2160.78 826.082 2159.59 827.366 2157.89 829.162 2155.05 832.172 2152.96 834.8 2151.63 837.046L2160.09 837.046C2160.83 837.046 2161.42 837.001 2161.87 836.911 2162.32 836.822 2162.68 836.672 2162.95 836.462 2163.22 836.253 2163.43 835.979 2163.59 835.642 2163.74 835.305 2163.94 834.785 2164.18 834.081L2166.09 834.081 2165.71 840.64 2147.22 840.64 2147.22 839.562C2147.87 837.99 2148.74 836.38 2149.83 834.733 2150.92 833.086 2152.47 831.146 2154.48 828.915 2156.22 826.999 2157.47 825.546 2158.23 824.558 2159.07 823.48 2159.69 822.548 2160.11 821.762 2160.52 820.975 2160.81 820.234 2160.99 819.538 2161.17 818.842 2161.26 818.142 2161.26 817.438 2161.26 816.315 2161.08 815.323 2160.72 814.462 2160.36 813.601 2159.81 812.923 2159.07 812.429 2158.33 811.935 2157.4 811.688 2156.28 811.688 2153.48 811.688 2151.59 813.245 2150.62 816.36L2147.9 816.36 2147.9 812.047C2149.71 811.194 2151.41 810.576 2152.99 810.194 2154.57 809.812 2155.98 809.621 2157.24 809.621Z" fill-rule="evenodd"/><text fill="#000000" fill-opacity="0" font-family="Arial,Arial_MSFontService,sans-serif" font-size="31.3779" x="2147.22" y="837.077">2𝜋</text><path d="M2159.66 872.327 2184.66 872.327 2184.66 875.327 2162.7 875.327 2162.7 875.378 2158.64 875.378 2146.55 916.662 2144.38 916.662 2135.08 896.671 2131.28 898.356 2130.58 896.671 2137.95 893.302 2145.88 910.732 2156.98 872.391 2159.66 872.391Z" fill-rule="evenodd"/><path d="M2172.71 881.832C2174.4 881.832 2175.89 882.094 2177.16 882.618 2178.43 883.142 2179.41 883.894 2180.08 884.875 2180.75 885.856 2181.09 887.028 2181.09 888.39 2181.09 889.663 2180.84 890.782 2180.33 891.748 2179.82 892.714 2179.1 893.556 2178.18 894.275 2177.26 894.994 2176.07 895.698 2174.6 896.386L2174.6 896.589C2175.51 896.753 2176.39 897.034 2177.24 897.431 2178.08 897.828 2178.84 898.341 2179.5 898.969 2180.15 899.598 2180.68 900.351 2181.08 901.227 2181.48 902.103 2181.67 903.102 2181.67 904.225 2181.67 905.962 2181.3 907.505 2180.54 908.852 2179.78 910.2 2178.63 911.263 2177.07 912.042 2175.51 912.82 2173.62 913.21 2171.39 913.21 2170.1 913.21 2168.71 913.064 2167.22 912.772 2165.73 912.48 2164.36 912.094 2163.12 911.615L2163.12 906.853 2165.82 906.853C2166.34 908.411 2167.03 909.541 2167.89 910.245 2168.76 910.949 2169.93 911.301 2171.41 911.301 2173.36 911.301 2174.83 910.769 2175.82 909.706 2176.82 908.643 2177.32 907.07 2177.32 904.989 2177.32 902.803 2176.66 901.133 2175.34 899.98 2174.02 898.827 2172.09 898.251 2169.55 898.251L2167.52 898.251 2167.52 896.274C2169.55 896.154 2171.25 895.765 2172.63 895.106 2174.02 894.447 2175.05 893.601 2175.72 892.568 2176.4 891.535 2176.73 890.374 2176.73 889.087 2176.73 887.425 2176.29 886.144 2175.41 885.246 2174.52 884.347 2173.24 883.898 2171.54 883.898 2170.14 883.898 2168.99 884.28 2168.11 885.044 2167.22 885.807 2166.57 886.975 2166.15 888.548L2163.46 888.548 2163.46 884.28C2165.2 883.456 2166.82 882.843 2168.33 882.438 2169.85 882.034 2171.31 881.832 2172.71 881.832Z" fill-rule="evenodd"/><text fill="#000000" fill-opacity="0" font-family="Arial,Arial_MSFontService,sans-serif" font-size="31.3779" x="2163.12" y="909.287">3</text><path d="M2199.49 892.77C2197.95 892.77 2196.57 893.392 2195.34 894.635 2194.11 895.877 2193.15 897.543 2192.46 899.632 2191.77 901.721 2191.43 903.806 2191.43 905.887 2191.43 907.445 2191.64 908.609 2192.07 909.38 2192.5 910.151 2193.21 910.537 2194.21 910.537 2195.2 910.537 2196.17 910.11 2197.12 909.257 2198.07 908.403 2199.06 907.186 2200.07 905.607 2201.08 904.027 2201.79 902.204 2202.21 900.137L2202.41 899.172C2202.55 898.558 2202.64 898.026 2202.68 897.577 2202.73 897.128 2202.75 896.641 2202.75 896.117 2202.75 894.964 2202.5 894.118 2202.01 893.579 2201.51 893.04 2200.68 892.77 2199.49 892.77ZM2199.04 890.996C2200.02 890.996 2200.93 891.104 2201.77 891.322 2202.62 891.539 2203.49 891.924 2204.39 892.478L2206.46 890.996 2207.89 891.355 2204.59 905.595C2204.26 907.018 2204.1 908.126 2204.1 908.92 2204.1 909.519 2204.2 909.953 2204.39 910.222 2204.58 910.492 2204.89 910.627 2205.31 910.627 2205.76 910.627 2206.24 910.443 2206.75 910.076 2207.26 909.71 2207.98 909.01 2208.9 907.976L2210.18 909.234C2208.84 910.672 2207.69 911.694 2206.74 912.3 2205.79 912.906 2204.76 913.21 2203.65 913.21 2202.72 913.21 2201.98 912.903 2201.42 912.289 2200.87 911.675 2200.59 910.859 2200.59 909.841 2200.59 909.017 2200.77 908.141 2201.11 907.213L2200.82 907.123C2199.38 909.219 2198.02 910.754 2196.73 911.727 2195.44 912.701 2194.08 913.187 2192.64 913.187 2191 913.187 2189.72 912.566 2188.81 911.323 2187.91 910.08 2187.45 908.336 2187.45 906.09 2187.45 903.514 2187.96 901.04 2188.97 898.666 2189.98 896.293 2191.37 894.421 2193.14 893.051 2194.9 891.681 2196.87 890.996 2199.04 890.996Z" fill-rule="evenodd"/><text fill="#000000" fill-opacity="0" font-family="Arial,Arial_MSFontService,sans-serif" font-size="22.2139" x="2187.45" y="910.433">𝑎</text><path d="M2129.66 860.327 2211.66 860.327 2211.66 863.327 2129.66 863.327Z" fill-rule="evenodd"/><path d="M1471.94 1100.33 1479.96 1100.33 1487.84 1122.19 1496.51 1100.33 1504.1 1100.33 1504.1 1101.43C1503.44 1101.6 1502.97 1101.76 1502.68 1101.93 1502.38 1102.09 1502.15 1102.3 1501.98 1102.54 1501.81 1102.79 1501.68 1103.16 1501.6 1103.66 1501.52 1104.15 1501.47 1104.91 1501.47 1105.95L1501.47 1125.38C1501.47 1126.38 1501.51 1127.11 1501.58 1127.58 1501.64 1128.04 1501.76 1128.41 1501.91 1128.68 1502.07 1128.95 1502.3 1129.17 1502.61 1129.35 1502.92 1129.53 1503.41 1129.71 1504.1 1129.89L1504.1 1130.99 1494.74 1130.99 1494.74 1129.89C1495.59 1129.68 1496.18 1129.44 1496.51 1129.17 1496.84 1128.9 1497.06 1128.51 1497.18 1127.98 1497.3 1127.46 1497.36 1126.59 1497.36 1125.38L1497.36 1116.77C1497.36 1114.51 1497.4 1112.23 1497.46 1109.91 1497.53 1107.6 1497.61 1106.02 1497.7 1105.16L1497.32 1105.16 1488.42 1127.42 1485.84 1127.42 1477.58 1104.8 1477.19 1104.8C1477.27 1105.72 1477.34 1107.37 1477.41 1109.77 1477.47 1112.16 1477.51 1114.62 1477.51 1117.16L1477.51 1125.38C1477.51 1126.38 1477.54 1127.11 1477.61 1127.58 1477.68 1128.04 1477.79 1128.41 1477.95 1128.68 1478.1 1128.95 1478.34 1129.17 1478.64 1129.35 1478.95 1129.53 1479.45 1129.71 1480.14 1129.89L1480.14 1130.99 1471.94 1130.99 1471.94 1129.89C1472.87 1129.65 1473.49 1129.39 1473.8 1129.09 1474.12 1128.8 1474.32 1128.39 1474.42 1127.85 1474.52 1127.31 1474.57 1126.48 1474.57 1125.38L1474.57 1105.95C1474.57 1104.91 1474.53 1104.16 1474.45 1103.69 1474.38 1103.22 1474.26 1102.85 1474.08 1102.59 1473.91 1102.33 1473.68 1102.12 1473.4 1101.96 1473.11 1101.8 1472.63 1101.63 1471.94 1101.43Z" fill-rule="evenodd"/><text fill="#000000" fill-opacity="0" font-family="Arial,Arial_MSFontService,sans-serif" font-size="30.6592" x="1471.94" y="1127.16">M</text><path d="M1687.77 1059.21C1693.92 1064.48 1698.81 1072.34 1702.42 1082.79 1706.04 1093.24 1707.85 1104.91 1707.85 1117.79 1707.85 1130.47 1706.04 1142.11 1702.42 1152.72 1698.81 1163.33 1693.92 1171.26 1687.77 1176.5L1686.71 1174.84C1692.03 1169.43 1696.12 1161.61 1699 1151.36 1701.87 1141.12 1703.31 1129.94 1703.31 1117.81 1703.31 1105.39 1701.87 1094.16 1698.98 1084.09 1696.09 1074.03 1692 1066.3 1686.71 1060.89ZM1538.03 1059.21 1539.09 1060.89C1533.79 1066.3 1529.7 1074.03 1526.82 1084.09 1523.93 1094.16 1522.49 1105.39 1522.49 1117.81 1522.49 1129.94 1523.93 1141.12 1526.8 1151.36 1529.68 1161.61 1533.77 1169.43 1539.09 1174.84L1538.03 1176.5C1531.88 1171.26 1526.99 1163.33 1523.38 1152.72 1519.76 1142.11 1517.95 1130.47 1517.95 1117.79 1517.95 1104.91 1519.76 1093.24 1523.38 1082.79 1526.99 1072.34 1531.88 1064.48 1538.03 1059.21Z" fill-rule="evenodd"/><path d="M1543.81 1116.35 1571.48 1116.35 1571.48 1119.33 1543.81 1119.33Z" fill-rule="evenodd"/><text fill="#000000" fill-opacity="0" font-family="Arial,Arial_MSFontService,sans-serif" font-size="2.9873" x="1543.81" y="1118.96">−</text><path d="M1615.96 1074.82 1634.4 1074.82 1633.75 1077.79 1628.41 1077.79 1625.87 1089.04C1625.54 1090.51 1625.37 1091.62 1625.37 1092.37 1625.37 1092.96 1625.47 1093.4 1625.67 1093.67 1625.86 1093.94 1626.17 1094.07 1626.59 1094.07 1627.49 1094.07 1628.54 1093.35 1629.75 1091.92L1631.06 1093.13C1629.92 1094.37 1628.88 1095.27 1627.95 1095.82 1627.01 1096.38 1626.01 1096.66 1624.95 1096.66 1623.93 1096.66 1623.13 1096.31 1622.54 1095.61 1621.96 1094.91 1621.67 1094 1621.67 1092.86 1621.67 1091.86 1621.88 1090.4 1622.3 1088.5L1622.79 1086.23C1623.05 1085.04 1623.41 1083.59 1623.88 1081.9 1624.35 1080.21 1624.76 1078.9 1625.1 1077.99L1624.99 1077.79 1618.39 1077.79 1615.63 1090.57C1615.4 1091.57 1615.14 1092.65 1614.84 1093.81 1614.54 1094.97 1614.31 1095.8 1614.14 1096.3L1609.38 1096.3 1609.61 1095.2C1611.19 1093.62 1612.66 1089.94 1614.01 1084.14L1615.49 1077.79 1614.77 1077.79C1613.71 1077.79 1612.81 1077.97 1612.08 1078.33 1611.34 1078.69 1610.54 1079.41 1609.67 1080.48L1608.26 1079.29C1609.04 1078.35 1609.67 1077.63 1610.17 1077.14 1610.66 1076.64 1611.18 1076.22 1611.73 1075.88 1612.28 1075.53 1612.89 1075.27 1613.57 1075.09 1614.25 1074.91 1615.05 1074.82 1615.96 1074.82ZM1595.39 1065.28C1598.17 1065.28 1600.28 1065.89 1601.7 1067.11 1603.12 1068.33 1603.83 1070.1 1603.83 1072.42 1603.83 1073.21 1603.75 1073.94 1603.6 1074.61 1603.44 1075.28 1603.19 1075.93 1602.86 1076.59 1602.52 1077.24 1602.07 1077.94 1601.5 1078.69 1600.93 1079.44 1600.3 1080.2 1599.61 1080.97 1598.92 1081.74 1597.73 1083.02 1596.04 1084.82 1593.19 1087.83 1591.11 1090.46 1589.77 1092.7L1598.24 1092.7C1598.97 1092.7 1599.57 1092.66 1600.01 1092.57 1600.46 1092.48 1600.82 1092.33 1601.09 1092.12 1601.36 1091.91 1601.58 1091.64 1601.73 1091.3 1601.89 1090.96 1602.09 1090.44 1602.33 1089.74L1604.24 1089.74 1603.86 1096.3 1585.37 1096.3 1585.37 1095.22C1586.01 1093.65 1586.88 1092.04 1587.98 1090.39 1589.07 1088.74 1590.62 1086.8 1592.62 1084.57 1594.36 1082.65 1595.61 1081.2 1596.38 1080.21 1597.21 1079.14 1597.84 1078.2 1598.25 1077.42 1598.66 1076.63 1598.96 1075.89 1599.14 1075.19 1599.32 1074.5 1599.41 1073.8 1599.41 1073.09 1599.41 1071.97 1599.23 1070.98 1598.87 1070.12 1598.51 1069.26 1597.96 1068.58 1597.22 1068.08 1596.48 1067.59 1595.54 1067.34 1594.42 1067.34 1591.62 1067.34 1589.73 1068.9 1588.76 1072.02L1586.04 1072.02 1586.04 1067.7C1587.86 1066.85 1589.55 1066.23 1591.13 1065.85 1592.71 1065.47 1594.13 1065.28 1595.39 1065.28Z" fill-rule="evenodd"/><text fill="#000000" fill-opacity="0" font-family="Arial,Arial_MSFontService,sans-serif" font-size="31.3779" x="1585.37" y="1092.73">2𝜋</text><path d="M1609.98 1141.57C1608.44 1141.57 1607.05 1142.2 1605.82 1143.44 1604.6 1144.68 1603.64 1146.35 1602.95 1148.44 1602.26 1150.52 1601.91 1152.61 1601.91 1154.69 1601.91 1156.25 1602.13 1157.41 1602.56 1158.18 1602.98 1158.95 1603.7 1159.34 1604.7 1159.34 1605.69 1159.34 1606.66 1158.91 1607.61 1158.06 1608.56 1157.21 1609.54 1155.99 1610.55 1154.41 1611.56 1152.83 1612.28 1151.01 1612.7 1148.94L1612.9 1147.98C1613.03 1147.36 1613.12 1146.83 1613.17 1146.38 1613.21 1145.93 1613.24 1145.44 1613.24 1144.92 1613.24 1143.77 1612.99 1142.92 1612.49 1142.38 1612 1141.84 1611.16 1141.57 1609.98 1141.57ZM1609.53 1139.8C1610.5 1139.8 1611.41 1139.91 1612.26 1140.13 1613.1 1140.34 1613.98 1140.73 1614.87 1141.28L1616.94 1139.8 1618.38 1140.16 1615.08 1154.4C1614.75 1155.82 1614.58 1156.93 1614.58 1157.72 1614.58 1158.32 1614.68 1158.76 1614.87 1159.03 1615.07 1159.3 1615.38 1159.43 1615.8 1159.43 1616.24 1159.43 1616.72 1159.25 1617.23 1158.88 1617.74 1158.51 1618.46 1157.81 1619.39 1156.78L1620.67 1158.04C1619.32 1159.48 1618.17 1160.5 1617.22 1161.1 1616.27 1161.71 1615.24 1162.01 1614.13 1162.01 1613.21 1162.01 1612.46 1161.71 1611.91 1161.09 1611.36 1160.48 1611.08 1159.66 1611.08 1158.64 1611.08 1157.82 1611.25 1156.94 1611.6 1156.02L1611.3 1155.93C1609.87 1158.02 1608.5 1159.56 1607.22 1160.53 1605.93 1161.5 1604.57 1161.99 1603.13 1161.99 1601.48 1161.99 1600.2 1161.37 1599.3 1160.13 1598.39 1158.88 1597.94 1157.14 1597.94 1154.89 1597.94 1152.32 1598.44 1149.84 1599.46 1147.47 1600.47 1145.1 1601.85 1143.22 1603.62 1141.85 1605.39 1140.48 1607.36 1139.8 1609.53 1139.8Z" fill-rule="evenodd"/><text fill="#000000" fill-opacity="0" font-family="Arial,Arial_MSFontService,sans-serif" font-size="22.2139" x="1597.94" y="1159.24">𝑎</text><path d="M1582.31 1115.98 1635.31 1115.98 1635.31 1118.98 1582.31 1118.98Z" fill-rule="evenodd"/><path d="M1646.23 1125.78 1650.17 1125.78C1650.37 1126.83 1650.48 1127.86 1650.48 1128.88 1650.48 1129.93 1650.3 1130.89 1649.94 1131.76 1649.58 1132.62 1649.01 1133.49 1648.22 1134.35 1647.44 1135.21 1646.35 1136.16 1644.98 1137.19L1643.76 1135.82C1644.53 1135.1 1645.08 1134.45 1645.43 1133.88 1645.77 1133.3 1646.02 1132.65 1646.17 1131.91 1646.32 1131.18 1646.39 1130.26 1646.39 1129.15 1646.39 1128.01 1646.34 1126.89 1646.23 1125.78Z" fill-rule="evenodd"/><text fill="#000000" fill-opacity="0" font-family="Arial,Arial_MSFontService,sans-serif" font-size="11.4102" x="1643.76" y="1135.76">,</text><path d="M1672.76 1101.88C1671.72 1101.88 1670.86 1102.19 1670.16 1102.8 1669.47 1103.42 1668.91 1104.3 1668.48 1105.45 1668.05 1106.61 1667.75 1108.01 1667.57 1109.66 1667.39 1111.32 1667.3 1113.19 1667.3 1115.27 1667.3 1120.15 1667.75 1123.73 1668.66 1126.02 1669.56 1128.3 1670.97 1129.44 1672.87 1129.44 1674.68 1129.44 1676.03 1128.37 1676.9 1126.22 1677.78 1124.07 1678.22 1120.74 1678.22 1116.23 1678.22 1112.79 1677.99 1110 1677.54 1107.87 1677.09 1105.73 1676.47 1104.2 1675.67 1103.27 1674.87 1102.35 1673.9 1101.88 1672.76 1101.88ZM1672.87 1099.97C1676.15 1099.97 1678.59 1101.24 1680.19 1103.77 1681.79 1106.3 1682.6 1110.13 1682.6 1115.25 1682.6 1120.55 1681.74 1124.56 1680.02 1127.27 1678.31 1129.99 1675.81 1131.35 1672.51 1131.35 1669.28 1131.35 1666.87 1130.08 1665.29 1127.53 1663.71 1124.99 1662.92 1121.12 1662.92 1115.94 1662.92 1113.19 1663.16 1110.81 1663.65 1108.8 1664.14 1106.79 1664.82 1105.14 1665.69 1103.83 1666.57 1102.51 1667.62 1101.55 1668.85 1100.92 1670.08 1100.29 1671.42 1099.97 1672.87 1099.97Z" fill-rule="evenodd"/><text fill="#000000" fill-opacity="0" font-family="Arial,Arial_MSFontService,sans-serif" font-size="31.3779" x="1662.92" y="1127.43">0</text><path d="M2647.95 1162.42 2655.97 1162.42 2663.85 1184.27 2672.52 1162.42 2680.11 1162.42 2680.11 1163.52C2679.45 1163.68 2678.98 1163.85 2678.69 1164.01 2678.39 1164.18 2678.16 1164.38 2677.99 1164.63 2677.82 1164.88 2677.69 1165.25 2677.61 1165.74 2677.53 1166.24 2677.48 1167 2677.48 1168.03L2677.48 1187.46C2677.48 1188.46 2677.52 1189.2 2677.59 1189.66 2677.65 1190.13 2677.77 1190.49 2677.92 1190.76 2678.08 1191.03 2678.31 1191.26 2678.62 1191.44 2678.93 1191.62 2679.42 1191.8 2680.11 1191.98L2680.11 1193.08 2670.75 1193.08 2670.75 1191.98C2671.6 1191.77 2672.19 1191.53 2672.52 1191.26 2672.85 1190.99 2673.07 1190.59 2673.19 1190.07 2673.31 1189.54 2673.37 1188.67 2673.37 1187.46L2673.37 1178.86C2673.37 1176.6 2673.41 1174.31 2673.48 1172 2673.54 1169.68 2673.62 1168.1 2673.71 1167.25L2673.33 1167.25 2664.43 1189.51 2661.85 1189.51 2653.59 1166.89 2653.2 1166.89C2653.28 1167.8 2653.35 1169.46 2653.42 1171.85 2653.49 1174.25 2653.52 1176.71 2653.52 1179.24L2653.52 1187.46C2653.52 1188.46 2653.55 1189.2 2653.62 1189.66 2653.69 1190.13 2653.8 1190.49 2653.96 1190.76 2654.11 1191.03 2654.35 1191.26 2654.65 1191.44 2654.96 1191.62 2655.46 1191.8 2656.15 1191.98L2656.15 1193.08 2647.95 1193.08 2647.95 1191.98C2648.88 1191.74 2649.5 1191.47 2649.81 1191.18 2650.13 1190.89 2650.33 1190.47 2650.43 1189.93 2650.53 1189.39 2650.58 1188.57 2650.58 1187.46L2650.58 1168.03C2650.58 1167 2650.54 1166.25 2650.46 1165.78 2650.39 1165.3 2650.27 1164.94 2650.09 1164.67 2649.92 1164.41 2649.69 1164.2 2649.41 1164.05 2649.12 1163.89 2648.64 1163.71 2647.95 1163.52Z" fill-rule="evenodd"/><text fill="#000000" fill-opacity="0" font-family="Arial,Arial_MSFontService,sans-serif" font-size="30.6592" x="2647.95" y="1189.24">M</text><path d="M2821.77 1121.29C2827.93 1126.56 2832.81 1134.42 2836.43 1144.88 2840.05 1155.33 2841.85 1166.99 2841.85 1179.87 2841.85 1192.55 2840.05 1204.2 2836.43 1214.81 2832.81 1225.42 2827.93 1233.34 2821.77 1238.58L2820.72 1236.92C2826.03 1231.52 2830.13 1223.69 2833 1213.45 2835.88 1203.21 2837.32 1192.02 2837.32 1179.89 2837.32 1167.48 2835.87 1156.24 2832.98 1146.18 2830.09 1136.12 2826 1128.38 2820.72 1122.98ZM2714.04 1121.29 2715.1 1122.98C2709.8 1128.38 2705.71 1136.12 2702.83 1146.18 2699.94 1156.24 2698.5 1167.48 2698.5 1179.89 2698.5 1192.02 2699.94 1203.21 2702.81 1213.45 2705.69 1223.69 2709.78 1231.52 2715.1 1236.92L2714.04 1238.58C2707.89 1233.34 2703.01 1225.42 2699.39 1214.81 2695.77 1204.2 2693.96 1192.55 2693.96 1179.87 2693.96 1166.99 2695.77 1155.33 2699.39 1144.88 2703.01 1134.42 2707.89 1126.56 2714.04 1121.29Z" fill-rule="evenodd"/><path d="M2749.97 1136.91 2768.41 1136.91 2767.76 1139.87 2762.41 1139.87 2759.87 1151.13C2759.54 1152.59 2759.38 1153.7 2759.38 1154.45 2759.38 1155.05 2759.48 1155.48 2759.67 1155.75 2759.86 1156.02 2760.17 1156.16 2760.59 1156.16 2761.49 1156.16 2762.55 1155.44 2763.76 1154L2765.06 1155.21C2763.92 1156.46 2762.89 1157.35 2761.95 1157.91 2761.01 1158.46 2760.01 1158.74 2758.95 1158.74 2757.93 1158.74 2757.13 1158.39 2756.55 1157.7 2755.96 1157 2755.67 1156.08 2755.67 1154.94 2755.67 1153.94 2755.88 1152.49 2756.3 1150.59L2756.8 1148.32C2757.05 1147.12 2757.41 1145.68 2757.88 1143.98 2758.36 1142.29 2758.76 1140.99 2759.11 1140.08L2759 1139.87 2752.39 1139.87 2749.63 1152.65C2749.41 1153.66 2749.14 1154.74 2748.84 1155.9 2748.54 1157.06 2748.31 1157.89 2748.15 1158.38L2743.39 1158.38 2743.61 1157.28C2745.2 1155.71 2746.67 1152.02 2748.01 1146.23L2749.5 1139.87 2748.78 1139.87C2747.71 1139.87 2746.81 1140.05 2746.08 1140.41 2745.35 1140.77 2744.55 1141.49 2743.68 1142.57L2742.26 1141.38C2743.04 1140.43 2743.68 1139.72 2744.17 1139.22 2744.67 1138.73 2745.19 1138.31 2745.73 1137.96 2746.28 1137.62 2746.89 1137.36 2747.57 1137.18 2748.26 1137 2749.05 1136.91 2749.97 1136.91ZM2729.39 1127.36C2732.18 1127.36 2734.28 1127.97 2735.7 1129.19 2737.13 1130.41 2737.84 1132.18 2737.84 1134.5 2737.84 1135.3 2737.76 1136.03 2737.6 1136.69 2737.44 1137.36 2737.2 1138.02 2736.86 1138.67 2736.52 1139.32 2736.07 1140.02 2735.5 1140.77 2734.93 1141.52 2734.3 1142.28 2733.61 1143.05 2732.93 1143.82 2731.74 1145.11 2730.04 1146.9 2727.2 1149.91 2725.11 1152.54 2723.78 1154.79L2732.24 1154.79C2732.98 1154.79 2733.57 1154.74 2734.02 1154.65 2734.47 1154.56 2734.83 1154.41 2735.1 1154.2 2735.37 1153.99 2735.58 1153.72 2735.74 1153.38 2735.89 1153.05 2736.09 1152.53 2736.33 1151.82L2738.24 1151.82 2737.86 1158.38 2719.37 1158.38 2719.37 1157.3C2720.02 1155.73 2720.89 1154.12 2721.98 1152.47 2723.07 1150.83 2724.62 1148.89 2726.63 1146.66 2728.37 1144.74 2729.62 1143.29 2730.38 1142.3 2731.22 1141.22 2731.84 1140.29 2732.26 1139.5 2732.67 1138.72 2732.96 1137.97 2733.14 1137.28 2733.32 1136.58 2733.41 1135.88 2733.41 1135.18 2733.41 1134.06 2733.23 1133.06 2732.87 1132.2 2732.51 1131.34 2731.96 1130.66 2731.22 1130.17 2730.48 1129.68 2729.55 1129.43 2728.43 1129.43 2725.63 1129.43 2723.74 1130.99 2722.77 1134.1L2720.05 1134.1 2720.05 1129.79C2721.86 1128.93 2723.56 1128.32 2725.14 1127.93 2726.72 1127.55 2728.13 1127.36 2729.39 1127.36Z" fill-rule="evenodd"/><text fill="#000000" fill-opacity="0" font-family="Arial,Arial_MSFontService,sans-serif" font-size="31.3779" x="2719.37" y="1154.82">2𝜋</text><path d="M2743.98 1203.66C2742.44 1203.66 2741.06 1204.28 2739.83 1205.52 2738.6 1206.77 2737.64 1208.43 2736.95 1210.52 2736.26 1212.61 2735.92 1214.69 2735.92 1216.78 2735.92 1218.33 2736.13 1219.5 2736.56 1220.27 2736.99 1221.04 2737.7 1221.43 2738.7 1221.43 2739.69 1221.43 2740.66 1221 2741.61 1220.15 2742.56 1219.29 2743.54 1218.08 2744.56 1216.5 2745.57 1214.92 2746.28 1213.09 2746.7 1211.03L2746.9 1210.06C2747.04 1209.45 2747.13 1208.91 2747.17 1208.47 2747.22 1208.02 2747.24 1207.53 2747.24 1207.01 2747.24 1205.85 2746.99 1205.01 2746.5 1204.47 2746 1203.93 2745.17 1203.66 2743.98 1203.66ZM2743.53 1201.88C2744.51 1201.88 2745.42 1201.99 2746.26 1202.21 2747.11 1202.43 2747.98 1202.81 2748.88 1203.37L2750.95 1201.88 2752.38 1202.24 2749.08 1216.48C2748.75 1217.91 2748.59 1219.01 2748.59 1219.81 2748.59 1220.41 2748.68 1220.84 2748.88 1221.11 2749.07 1221.38 2749.38 1221.52 2749.8 1221.52 2750.25 1221.52 2750.73 1221.33 2751.24 1220.97 2751.75 1220.6 2752.47 1219.9 2753.39 1218.87L2754.67 1220.12C2753.33 1221.56 2752.18 1222.58 2751.23 1223.19 2750.28 1223.8 2749.25 1224.1 2748.14 1224.1 2747.21 1224.1 2746.47 1223.79 2745.91 1223.18 2745.36 1222.56 2745.08 1221.75 2745.08 1220.73 2745.08 1219.91 2745.26 1219.03 2745.6 1218.1L2745.31 1218.01C2743.87 1220.11 2742.51 1221.64 2741.22 1222.62 2739.93 1223.59 2738.57 1224.08 2737.13 1224.08 2735.48 1224.08 2734.21 1223.45 2733.3 1222.21 2732.4 1220.97 2731.94 1219.22 2731.94 1216.98 2731.94 1214.4 2732.45 1211.93 2733.46 1209.56 2734.47 1207.18 2735.86 1205.31 2737.63 1203.94 2739.39 1202.57 2741.36 1201.88 2743.53 1201.88Z" fill-rule="evenodd"/><text fill="#000000" fill-opacity="0" font-family="Arial,Arial_MSFontService,sans-serif" font-size="22.2139" x="2731.94" y="1221.32">𝑎</text><path d="M2716.33 1178.07 2769.33 1178.07 2769.33 1181.07 2716.33 1181.07Z" fill-rule="evenodd"/><path d="M2780.24 1187.87 2784.17 1187.87C2784.38 1188.91 2784.48 1189.95 2784.48 1190.97 2784.48 1192.01 2784.3 1192.97 2783.94 1193.84 2783.59 1194.71 2783.01 1195.57 2782.23 1196.43 2781.44 1197.3 2780.36 1198.24 2778.98 1199.28L2777.77 1197.91C2778.53 1197.19 2779.09 1196.54 2779.43 1195.96 2779.77 1195.39 2780.02 1194.73 2780.17 1194 2780.32 1193.26 2780.4 1192.34 2780.4 1191.23 2780.4 1190.1 2780.34 1188.97 2780.24 1187.87Z" fill-rule="evenodd"/><text fill="#000000" fill-opacity="0" font-family="Arial,Arial_MSFontService,sans-serif" font-size="11.4102" x="2777.77" y="1197.85">,</text><path d="M2806.76 1163.97C2805.73 1163.97 2804.86 1164.27 2804.17 1164.89 2803.47 1165.5 2802.91 1166.39 2802.48 1167.54 2802.06 1168.69 2801.75 1170.1 2801.57 1171.75 2801.39 1173.4 2801.3 1175.27 2801.3 1177.35 2801.3 1182.24 2801.76 1185.82 2802.66 1188.1 2803.57 1190.39 2804.97 1191.53 2806.87 1191.53 2808.69 1191.53 2810.03 1190.45 2810.91 1188.3 2811.78 1186.15 2812.22 1182.83 2812.22 1178.32 2812.22 1174.88 2812 1172.09 2811.55 1169.95 2811.1 1167.82 2810.47 1166.29 2809.67 1165.36 2808.87 1164.43 2807.9 1163.97 2806.76 1163.97ZM2806.87 1162.06C2810.15 1162.06 2812.59 1163.32 2814.2 1165.85 2815.8 1168.38 2816.6 1172.21 2816.6 1177.33 2816.6 1182.63 2815.74 1186.64 2814.03 1189.36 2812.31 1192.08 2809.81 1193.44 2806.52 1193.44 2803.28 1193.44 2800.87 1192.16 2799.29 1189.62 2797.71 1187.07 2796.92 1183.21 2796.92 1178.03 2796.92 1175.27 2797.17 1172.89 2797.65 1170.89 2798.14 1168.88 2798.82 1167.22 2799.7 1165.91 2800.57 1164.6 2801.63 1163.63 2802.85 1163 2804.08 1162.37 2805.42 1162.06 2806.87 1162.06Z" fill-rule="evenodd"/><text fill="#000000" fill-opacity="0" font-family="Arial,Arial_MSFontService,sans-serif" font-size="31.3779" x="2796.92" y="1189.51">0</text><path d="M2078.7 1591.33 2086.72 1591.33 2094.61 1613.18 2103.28 1591.33 2110.87 1591.33 2110.87 1592.43C2110.21 1592.59 2109.73 1592.76 2109.44 1592.92 2109.15 1593.09 2108.92 1593.29 2108.75 1593.54 2108.57 1593.79 2108.45 1594.16 2108.36 1594.65 2108.28 1595.14 2108.24 1595.91 2108.24 1596.94L2108.24 1616.37C2108.24 1617.37 2108.27 1618.11 2108.34 1618.57 2108.41 1619.04 2108.52 1619.4 2108.68 1619.67 2108.84 1619.94 2109.07 1620.17 2109.37 1620.35 2109.68 1620.53 2110.18 1620.71 2110.87 1620.89L2110.87 1621.99 2101.5 1621.99 2101.5 1620.89C2102.36 1620.68 2102.95 1620.44 2103.28 1620.17 2103.61 1619.9 2103.83 1619.5 2103.95 1618.98 2104.07 1618.45 2104.13 1617.58 2104.13 1616.37L2104.13 1607.77C2104.13 1605.51 2104.16 1603.22 2104.23 1600.91 2104.3 1598.59 2104.38 1597.01 2104.47 1596.16L2104.08 1596.16 2095.19 1618.41 2092.61 1618.41 2084.34 1595.8 2083.96 1595.8C2084.03 1596.71 2084.11 1598.36 2084.17 1600.76 2084.24 1603.16 2084.27 1605.62 2084.27 1608.15L2084.27 1616.37C2084.27 1617.37 2084.31 1618.11 2084.38 1618.57 2084.44 1619.04 2084.55 1619.4 2084.71 1619.67 2084.87 1619.94 2085.1 1620.17 2085.41 1620.35 2085.72 1620.53 2086.21 1620.71 2086.9 1620.89L2086.9 1621.99 2078.7 1621.99 2078.7 1620.89C2079.63 1620.65 2080.25 1620.38 2080.57 1620.09 2080.88 1619.8 2081.09 1619.38 2081.19 1618.84 2081.28 1618.3 2081.33 1617.48 2081.33 1616.37L2081.33 1596.94C2081.33 1595.91 2081.29 1595.16 2081.22 1594.68 2081.14 1594.21 2081.02 1593.85 2080.85 1593.58 2080.68 1593.32 2080.45 1593.11 2080.16 1592.95 2079.88 1592.8 2079.39 1592.62 2078.7 1592.43Z" fill-rule="evenodd"/><text fill="#000000" fill-opacity="0" font-family="Arial,Arial_MSFontService,sans-serif" font-size="30.6592" x="2078.7" y="1618.15">M</text><path d="M2315.98 1550.2C2322.14 1555.47 2327.02 1563.33 2330.64 1573.78 2334.26 1584.24 2336.06 1595.9 2336.06 1608.78 2336.06 1621.46 2334.26 1633.11 2330.64 1643.72 2327.02 1654.33 2322.14 1662.25 2315.98 1667.49L2314.93 1665.83C2320.24 1660.42 2324.34 1652.6 2327.22 1642.36 2330.09 1632.12 2331.53 1620.93 2331.53 1608.8 2331.53 1596.39 2330.08 1585.15 2327.19 1575.09 2324.3 1565.03 2320.22 1557.29 2314.93 1551.89ZM2144.8 1550.2 2145.86 1551.89C2140.56 1557.29 2136.46 1565.03 2133.58 1575.09 2130.7 1585.15 2129.26 1596.39 2129.26 1608.8 2129.26 1620.93 2130.69 1632.12 2133.57 1642.36 2136.44 1652.6 2140.54 1660.42 2145.86 1665.83L2144.8 1667.49C2138.65 1662.25 2133.76 1654.33 2130.14 1643.72 2126.53 1633.11 2124.72 1621.46 2124.72 1608.78 2124.72 1595.9 2126.53 1584.24 2130.14 1573.78 2133.76 1563.33 2138.65 1555.47 2144.8 1550.2Z" fill-rule="evenodd"/><path d="M2159.97 1592.88C2158.93 1592.88 2158.07 1593.18 2157.37 1593.8 2156.68 1594.41 2156.12 1595.29 2155.69 1596.45 2155.26 1597.6 2154.96 1599 2154.78 1600.66 2154.6 1602.31 2154.51 1604.18 2154.51 1606.26 2154.51 1611.14 2154.96 1614.73 2155.87 1617.01 2156.77 1619.29 2158.18 1620.44 2160.08 1620.44 2161.89 1620.44 2163.24 1619.36 2164.11 1617.21 2164.99 1615.06 2165.43 1611.74 2165.43 1607.23 2165.43 1603.78 2165.2 1601 2164.75 1598.86 2164.3 1596.73 2163.68 1595.2 2162.88 1594.27 2162.08 1593.34 2161.11 1592.88 2159.97 1592.88ZM2160.08 1590.97C2163.36 1590.97 2165.8 1592.23 2167.4 1594.76 2169 1597.29 2169.81 1601.12 2169.81 1606.24 2169.81 1611.54 2168.95 1615.55 2167.23 1618.27 2165.52 1620.99 2163.01 1622.34 2159.72 1622.34 2156.49 1622.34 2154.08 1621.07 2152.5 1618.53 2150.92 1615.98 2150.13 1612.12 2150.13 1606.94 2150.13 1604.18 2150.37 1601.8 2150.86 1599.79 2151.35 1597.79 2152.03 1596.13 2152.9 1594.82 2153.78 1593.51 2154.83 1592.54 2156.06 1591.91 2157.29 1591.28 2158.63 1590.97 2160.08 1590.97Z" fill-rule="evenodd"/><text fill="#000000" fill-opacity="0" font-family="Arial,Arial_MSFontService,sans-serif" font-size="31.3779" x="2150.13" y="1618.42">0</text><path d="M2175.45 1616.77 2179.38 1616.77C2179.59 1617.82 2179.7 1618.86 2179.7 1619.87 2179.7 1620.92 2179.52 1621.88 2179.16 1622.75 2178.8 1623.62 2178.22 1624.48 2177.44 1625.34 2176.65 1626.2 2175.57 1627.15 2174.19 1628.18L2172.98 1626.81C2173.74 1626.1 2174.3 1625.45 2174.64 1624.87 2174.99 1624.3 2175.23 1623.64 2175.38 1622.91 2175.53 1622.17 2175.61 1621.25 2175.61 1620.14 2175.61 1619.01 2175.55 1617.88 2175.45 1616.77Z" fill-rule="evenodd"/><text fill="#000000" fill-opacity="0" font-family="Arial,Arial_MSFontService,sans-serif" font-size="11.4102" x="2172.98" y="1626.76">,</text><path d="M2192.59 1607.34 2220.26 1607.34 2220.26 1610.33 2192.59 1610.33Z" fill-rule="evenodd"/><text fill="#000000" fill-opacity="0" font-family="Arial,Arial_MSFontService,sans-serif" font-size="2.9873" x="2192.59" y="1609.95">−</text><path d="M2279.26 1565.82 2297.7 1565.82 2297.05 1568.78 2291.71 1568.78 2289.17 1580.03C2288.84 1581.5 2288.68 1582.61 2288.68 1583.36 2288.68 1583.96 2288.77 1584.39 2288.97 1584.66 2289.16 1584.93 2289.47 1585.07 2289.89 1585.07 2290.79 1585.07 2291.84 1584.35 2293.06 1582.91L2294.36 1584.12C2293.22 1585.37 2292.18 1586.26 2291.25 1586.82 2290.31 1587.37 2289.31 1587.65 2288.25 1587.65 2287.23 1587.65 2286.43 1587.3 2285.85 1586.6 2285.26 1585.91 2284.97 1584.99 2284.97 1583.85 2284.97 1582.85 2285.18 1581.4 2285.6 1579.5L2286.09 1577.23C2286.35 1576.03 2286.71 1574.58 2287.18 1572.89 2287.65 1571.2 2288.06 1569.9 2288.41 1568.98L2288.29 1568.78 2281.69 1568.78 2278.93 1581.56C2278.7 1582.57 2278.44 1583.65 2278.14 1584.81 2277.84 1585.97 2277.61 1586.8 2277.44 1587.29L2272.68 1587.29 2272.91 1586.19C2274.49 1584.62 2275.96 1580.93 2277.31 1575.14L2278.79 1568.78 2278.07 1568.78C2277.01 1568.78 2276.11 1568.96 2275.38 1569.32 2274.64 1569.68 2273.84 1570.4 2272.98 1571.48L2271.56 1570.29C2272.34 1569.34 2272.98 1568.62 2273.47 1568.13 2273.96 1567.64 2274.48 1567.22 2275.03 1566.87 2275.58 1566.53 2276.19 1566.27 2276.87 1566.09 2277.55 1565.91 2278.35 1565.82 2279.26 1565.82ZM2258.69 1556.27C2261.47 1556.27 2263.58 1556.88 2265 1558.1 2266.42 1559.32 2267.13 1561.09 2267.13 1563.41 2267.13 1564.21 2267.06 1564.94 2266.9 1565.6 2266.74 1566.27 2266.49 1566.93 2266.16 1567.58 2265.82 1568.23 2265.37 1568.93 2264.8 1569.68 2264.23 1570.43 2263.6 1571.19 2262.91 1571.96 2262.22 1572.73 2261.03 1574.02 2259.34 1575.81 2256.5 1578.82 2254.41 1581.45 2253.07 1583.7L2261.54 1583.7C2262.28 1583.7 2262.87 1583.65 2263.32 1583.56 2263.77 1583.47 2264.12 1583.32 2264.39 1583.11 2264.66 1582.9 2264.88 1582.63 2265.03 1582.29 2265.19 1581.96 2265.39 1581.43 2265.63 1580.73L2267.54 1580.73 2267.16 1587.29 2248.67 1587.29 2248.67 1586.21C2249.32 1584.64 2250.18 1583.03 2251.28 1581.38 2252.37 1579.74 2253.92 1577.8 2255.93 1575.57 2257.66 1573.65 2258.91 1572.2 2259.68 1571.21 2260.52 1570.13 2261.14 1569.2 2261.55 1568.41 2261.96 1567.63 2262.26 1566.88 2262.44 1566.19 2262.62 1565.49 2262.71 1564.79 2262.71 1564.09 2262.71 1562.96 2262.53 1561.97 2262.17 1561.11 2261.81 1560.25 2261.26 1559.57 2260.52 1559.08 2259.78 1558.58 2258.85 1558.34 2257.72 1558.34 2254.92 1558.34 2253.04 1559.89 2252.06 1563.01L2249.35 1563.01 2249.35 1558.7C2251.16 1557.84 2252.85 1557.23 2254.43 1556.84 2256.01 1556.46 2257.43 1556.27 2258.69 1556.27Z" fill-rule="evenodd"/><text fill="#000000" fill-opacity="0" font-family="Arial,Arial_MSFontService,sans-serif" font-size="31.3779" x="2248.67" y="1583.73">2𝜋</text><path d="M2261.08 1618.98 2286.08 1618.98 2286.08 1621.98 2264.15 1621.98 2264.15 1622.03 2260.08 1622.03 2248 1663.31 2245.82 1663.31 2236.52 1643.32 2232.73 1645.01 2232.03 1643.32 2239.4 1639.95 2247.33 1657.38 2258.42 1619.04 2261.08 1619.04Z" fill-rule="evenodd"/><path d="M2274.16 1628.48C2275.85 1628.48 2277.33 1628.74 2278.61 1629.27 2279.88 1629.79 2280.85 1630.54 2281.53 1631.53 2282.2 1632.51 2282.54 1633.68 2282.54 1635.04 2282.54 1636.31 2282.28 1637.43 2281.77 1638.4 2281.26 1639.36 2280.55 1640.21 2279.63 1640.93 2278.71 1641.64 2277.51 1642.35 2276.05 1643.04L2276.05 1643.24C2276.96 1643.4 2277.84 1643.68 2278.69 1644.08 2279.53 1644.48 2280.28 1644.99 2280.94 1645.62 2281.6 1646.25 2282.13 1647 2282.53 1647.88 2282.92 1648.75 2283.12 1649.75 2283.12 1650.88 2283.12 1652.61 2282.74 1654.15 2281.99 1655.5 2281.23 1656.85 2280.07 1657.91 2278.52 1658.69 2276.96 1659.47 2275.07 1659.86 2272.83 1659.86 2271.55 1659.86 2270.16 1659.71 2268.67 1659.42 2267.18 1659.13 2265.81 1658.74 2264.57 1658.26L2264.57 1653.5 2267.26 1653.5C2267.79 1655.06 2268.48 1656.19 2269.34 1656.89 2270.2 1657.6 2271.37 1657.95 2272.86 1657.95 2274.8 1657.95 2276.27 1657.42 2277.27 1656.36 2278.27 1655.29 2278.76 1653.72 2278.76 1651.64 2278.76 1649.45 2278.1 1647.78 2276.79 1646.63 2275.47 1645.48 2273.54 1644.9 2270.99 1644.9L2268.97 1644.9 2268.97 1642.92C2270.99 1642.8 2272.7 1642.41 2274.08 1641.76 2275.47 1641.1 2276.5 1640.25 2277.17 1639.22 2277.84 1638.18 2278.18 1637.02 2278.18 1635.74 2278.18 1634.07 2277.74 1632.79 2276.85 1631.9 2275.97 1631 2274.68 1630.55 2272.99 1630.55 2271.58 1630.55 2270.44 1630.93 2269.55 1631.69 2268.67 1632.46 2268.02 1633.63 2267.6 1635.2L2264.91 1635.2 2264.91 1630.93C2266.64 1630.11 2268.27 1629.49 2269.78 1629.09 2271.29 1628.68 2272.75 1628.48 2274.16 1628.48Z" fill-rule="evenodd"/><text fill="#000000" fill-opacity="0" font-family="Arial,Arial_MSFontService,sans-serif" font-size="31.3779" x="2264.57" y="1655.94">3</text><path d="M2300.94 1639.42C2299.4 1639.42 2298.01 1640.04 2296.78 1641.28 2295.56 1642.53 2294.6 1644.19 2293.91 1646.28 2293.22 1648.37 2292.88 1650.46 2292.88 1652.54 2292.88 1654.09 2293.09 1655.26 2293.52 1656.03 2293.94 1656.8 2294.66 1657.19 2295.66 1657.19 2296.65 1657.19 2297.62 1656.76 2298.57 1655.91 2299.52 1655.05 2300.5 1653.84 2301.51 1652.26 2302.52 1650.68 2303.24 1648.85 2303.66 1646.79L2303.86 1645.82C2303.99 1645.21 2304.08 1644.68 2304.13 1644.23 2304.17 1643.78 2304.2 1643.29 2304.2 1642.77 2304.2 1641.61 2303.95 1640.77 2303.46 1640.23 2302.96 1639.69 2302.12 1639.42 2300.94 1639.42ZM2300.49 1637.65C2301.46 1637.65 2302.37 1637.75 2303.22 1637.97 2304.07 1638.19 2304.94 1638.57 2305.84 1639.13L2307.9 1637.65 2309.34 1638.01 2306.04 1652.25C2305.71 1653.67 2305.54 1654.78 2305.54 1655.57 2305.54 1656.17 2305.64 1656.6 2305.84 1656.87 2306.03 1657.14 2306.34 1657.28 2306.76 1657.28 2307.21 1657.28 2307.69 1657.09 2308.19 1656.73 2308.7 1656.36 2309.42 1655.66 2310.35 1654.63L2311.63 1655.88C2310.28 1657.32 2309.13 1658.34 2308.18 1658.95 2307.23 1659.56 2306.2 1659.86 2305.1 1659.86 2304.17 1659.86 2303.43 1659.55 2302.87 1658.94 2302.32 1658.32 2302.04 1657.51 2302.04 1656.49 2302.04 1655.67 2302.21 1654.79 2302.56 1653.86L2302.27 1653.77C2300.83 1655.87 2299.47 1657.4 2298.18 1658.38 2296.89 1659.35 2295.53 1659.84 2294.09 1659.84 2292.44 1659.84 2291.17 1659.22 2290.26 1657.97 2289.35 1656.73 2288.9 1654.99 2288.9 1652.74 2288.9 1650.16 2289.41 1647.69 2290.42 1645.32 2291.43 1642.94 2292.82 1641.07 2294.58 1639.7 2296.35 1638.33 2298.32 1637.65 2300.49 1637.65Z" fill-rule="evenodd"/><text fill="#000000" fill-opacity="0" font-family="Arial,Arial_MSFontService,sans-serif" font-size="22.2139" x="2288.9" y="1657.08">𝑎</text><path d="M2231.08 1606.98 2272.08 1606.98 2313.08 1606.98 2313.08 1609.98 2272.08 1609.98 2231.08 1609.98Z" fill-rule="evenodd"/><path d="M1704.5 1237.5C1704.5 1191.11 1742.11 1153.5 1788.5 1153.5 1834.89 1153.5 1872.5 1191.11 1872.5 1237.5 1872.5 1283.89 1834.89 1321.5 1788.5 1321.5 1742.11 1321.5 1704.5 1283.89 1704.5 1237.5Z" stroke="#156082" stroke-width="6.875" stroke-miterlimit="8" fill="none" fill-rule="evenodd"/><path d="M1790.5 1235.21 1850.12 1235.21 1850.12 1239.79 1790.5 1239.79ZM1845.54 1223.75 1873.04 1237.5 1845.54 1251.25Z" fill="#4EA72E"/><text font-family="Cambria Math,Cambria Math_MSFontService,sans-serif" font-weight="400" font-size="32" transform="matrix(1 0 0 1 1765.07 1271)">k</text><text font-family="Cambria Math,Cambria Math_MSFontService,sans-serif" font-weight="400" font-size="23" transform="matrix(1 0 0 1 1782.95 1277)">cut</text><text font-family="Cambria Math,Cambria Math_MSFontService,sans-serif" font-weight="400" font-size="23" transform="matrix(1 0 0 1 1817.89 1277)">.</text></g></svg>