<svg width="1904" height="1295" xmlns="http://www.w3.org/2000/svg" xmlns:xlink="http://www.w3.org/1999/xlink" xml:space="preserve" overflow="hidden"><g transform="translate(-725 -506)"><path d="M1020.5 1658.74C1138.25 1669.07 1256.01 1679.4 1371.7 1657.86 1487.39 1636.32 1607.21 1530.84 1714.63 1529.51 1822.06 1528.19 1901.94 1628.5 2016.25 1649.89 2130.56 1671.28 2319.93 1670.4 2400.5 1657.86" stroke="#042433" stroke-width="6.875" stroke-miterlimit="8" fill="none" fill-rule="evenodd"/><path d="M0 327.231C117.754 353.377 235.509 379.523 351.198 324.99 466.886 270.457 586.706 3.39459 694.132 0.0330501 801.557-3.32849 881.437 250.661 995.749 304.821 1110.06 358.98 1299.43 356.739 1380 324.99" stroke="#042433" stroke-width="6.875" stroke-miterlimit="8" fill="none" fill-rule="evenodd" transform="matrix(1 0 0 -1 1016.5 1089.5)"/><path d="M3.4375-1.13403e-06 3.43785 1071.03-3.43715 1071.03-3.4375 1.13403e-06ZM13.7504 1066.45 0.000360892 1093.95-13.7496 1066.45Z" fill="#156082" transform="matrix(1 0 0 -1 893.5 1743.45)"/><path d="M895.5 1740.06 2471.95 1740.06 2471.95 1746.94 895.5 1746.94ZM2467.36 1729.75 2494.86 1743.5 2467.36 1757.25Z" fill="#156082"/><text font-family="Aptos,Aptos_MSFontService,sans-serif" font-weight="400" font-size="83" transform="matrix(1 0 0 1 774.528 607)">Energy</text><path d="M2559.98 1703.7 2562.34 1703.7 2554.39 1739.08 2555.69 1739.08C2557.72 1739.08 2559.99 1738.2 2562.52 1736.43 2565.04 1734.66 2567.06 1733.02 2568.58 1731.5 2570.09 1729.99 2570.85 1728.53 2570.85 1727.13 2570.85 1725.8 2569.93 1725.06 2568.09 1724.9L2568.54 1722.91 2581.67 1722.91 2582.44 1724.9C2580.19 1726.93 2577.82 1728.91 2575.3 1730.86L2565.25 1738.64 2569.23 1753.27C2569.55 1754.51 2569.84 1755.41 2570.1 1755.96 2570.35 1756.52 2570.65 1756.93 2570.99 1757.2 2571.33 1757.47 2571.78 1757.6 2572.35 1757.6 2573.05 1757.6 2573.89 1757.23 2574.86 1756.47 2575.83 1755.71 2576.94 1754.62 2578.18 1753.19L2580.49 1755.46C2578.06 1758.02 2576.05 1759.81 2574.45 1760.81 2572.86 1761.81 2571.32 1762.31 2569.83 1762.31 2568 1762.31 2566.54 1761.79 2565.46 1760.75 2564.38 1759.71 2563.52 1757.97 2562.9 1755.54L2560.23 1745C2559.96 1743.95 2559.69 1743.22 2559.42 1742.81 2559.15 1742.41 2558.84 1742.14 2558.49 1742 2558.13 1741.87 2557.51 1741.8 2556.62 1741.8L2553.82 1741.8 2549.61 1761.66 2542.6 1761.66 2553.01 1715.33C2553.37 1713.77 2553.62 1712.54 2553.76 1711.67 2553.91 1710.79 2553.99 1710.01 2553.99 1709.34 2553.99 1708.2 2553.64 1707.4 2552.95 1706.95 2552.26 1706.49 2551.03 1706.23 2549.25 1706.18L2549.73 1704.07Z" fill-rule="evenodd"/><text fill="#000000" fill-opacity="0" font-family="Arial,Arial_MSFontService,sans-serif" font-size="58.6025" x="2542.6" y="1754.98">𝑘</text><path d="M2063.18 671.482C2066.78 671.482 2070.09 671.887 2073.11 672.698L2071.13 681.857 2066.87 681.857C2066.82 679.804 2066.65 678.318 2066.37 677.399 2066.08 676.48 2065.62 675.791 2064.99 675.332 2064.35 674.873 2063.46 674.643 2062.29 674.643 2059.56 674.643 2057.11 675.731 2054.94 677.906 2052.76 680.081 2050.99 683.161 2049.61 687.146 2048.23 691.131 2047.54 694.961 2047.54 698.635 2047.54 701.391 2048.08 703.438 2049.16 704.775 2050.24 706.113 2051.86 706.781 2054.03 706.781 2056.48 706.781 2058.61 706.315 2060.41 705.383 2062.21 704.451 2064.1 702.985 2066.1 700.986L2068.57 703.458C2066.04 706.268 2063.48 708.321 2060.9 709.618 2058.31 710.915 2055.54 711.564 2052.57 711.564 2048.65 711.564 2045.68 710.402 2043.65 708.078 2041.62 705.755 2040.61 702.377 2040.61 697.946 2040.61 695.055 2041.15 691.881 2042.23 688.422 2043.31 684.964 2044.89 681.925 2046.97 679.304 2049.05 676.683 2051.49 674.724 2054.27 673.427 2057.05 672.13 2060.02 671.482 2063.18 671.482Z" fill-rule="evenodd"/><text fill="#000000" fill-opacity="0" font-family="Arial,Arial_MSFontService,sans-serif" font-size="40.0815" x="2040.61" y="706.553">𝑐</text><path d="M2101.15 684.451 2151.08 684.451 2151.08 689.841 2101.15 689.841Z" fill-rule="evenodd"/><text fill="#000000" fill-opacity="0" font-family="Arial,Arial_MSFontService,sans-serif" font-size="5.39014" x="2101.15" y="689.167">−</text><path d="M2203.57 676.224C2202.27 676.224 2201 676.636 2199.74 677.46 2198.48 678.284 2197.09 679.648 2195.55 681.553 2194.01 683.458 2192.75 685.41 2191.78 687.409 2190.8 689.409 2189.98 691.962 2189.3 695.069L2188.94 696.771C2188.53 698.662 2188.33 700.5 2188.33 702.283 2188.33 704.417 2188.8 705.957 2189.73 706.903 2190.66 707.849 2192.21 708.321 2194.37 708.321 2195.48 708.321 2196.53 708.139 2197.53 707.774 2198.53 707.409 2199.55 706.808 2200.59 705.971 2201.63 705.133 2202.62 704.032 2203.55 702.668 2204.48 701.303 2205.34 699.621 2206.12 697.622 2206.91 695.623 2207.51 693.482 2207.95 691.199 2208.38 688.916 2208.6 686.734 2208.6 684.653 2208.6 681.844 2208.2 679.736 2207.4 678.331 2206.6 676.926 2205.33 676.224 2203.57 676.224ZM2339.22 674.643C2336.46 674.643 2333.99 675.758 2331.8 677.987 2329.61 680.216 2327.89 683.221 2326.64 687.004 2325.38 690.786 2324.75 694.556 2324.75 698.311 2324.75 701.121 2325.14 703.222 2325.91 704.613 2326.68 706.005 2327.97 706.7 2329.78 706.7 2330.61 706.7 2331.47 706.518 2332.33 706.153 2333.19 705.788 2334.09 705.201 2335.02 704.39 2335.96 703.58 2336.88 702.594 2337.78 701.432 2338.69 700.27 2339.52 699.101 2340.27 697.926 2341.03 696.751 2341.73 695.359 2342.38 693.752 2343.03 692.144 2343.58 690.206 2344.04 687.936L2344.41 686.193C2344.81 684.248 2345.01 682.411 2345.01 680.682 2345.01 678.574 2344.57 677.041 2343.68 676.082 2342.79 675.123 2341.3 674.643 2339.22 674.643ZM2246.3 674.643C2243.52 674.643 2241.02 675.764 2238.8 678.007 2236.59 680.249 2234.86 683.255 2233.62 687.024 2232.37 690.793 2231.75 694.556 2231.75 698.311 2231.75 701.121 2232.14 703.222 2232.91 704.613 2233.68 706.005 2234.97 706.7 2236.78 706.7 2238.56 706.7 2240.31 705.93 2242.02 704.39 2243.74 702.85 2245.51 700.655 2247.33 697.805 2249.16 694.954 2250.45 691.665 2251.2 687.936L2251.57 686.193C2251.81 685.086 2251.97 684.127 2252.06 683.316 2252.14 682.505 2252.18 681.627 2252.18 680.682 2252.18 678.601 2251.73 677.075 2250.84 676.102 2249.95 675.129 2248.44 674.643 2246.3 674.643ZM2279.09 671.441C2280.79 671.441 2282.14 672.002 2283.12 673.123 2284.11 674.245 2284.6 675.71 2284.6 677.521 2284.6 678.953 2284.28 680.547 2283.63 682.303L2284.11 682.465C2286.76 678.736 2289.28 675.974 2291.67 674.177 2294.06 672.38 2296.53 671.482 2299.07 671.482 2301.58 671.482 2303.51 672.205 2304.86 673.65 2306.21 675.096 2306.89 677.102 2306.89 679.669 2306.89 681.371 2306.5 683.789 2305.72 686.923L2303.08 697.541C2302.35 700.486 2301.99 702.566 2301.99 703.782 2301.99 704.863 2302.16 705.647 2302.51 706.133 2302.86 706.619 2303.42 706.862 2304.18 706.862 2304.99 706.862 2305.85 706.531 2306.77 705.869 2307.69 705.208 2308.98 703.944 2310.66 702.08L2312.97 704.35C2310.65 706.835 2308.62 708.652 2306.89 709.801 2305.16 710.949 2303.19 711.523 2300.97 711.523 2299.22 711.523 2297.81 710.895 2296.76 709.638 2295.7 708.382 2295.18 706.781 2295.18 704.836 2295.18 703.08 2295.62 700.5 2296.52 697.095L2298.3 690.084C2298.95 687.544 2299.37 685.667 2299.58 684.451 2299.78 683.235 2299.88 682.249 2299.88 681.492 2299.88 679.628 2299.57 678.284 2298.95 677.46 2298.33 676.636 2297.31 676.224 2295.91 676.224 2294.77 676.224 2293.55 676.676 2292.24 677.581 2290.93 678.486 2289.54 679.851 2288.07 681.675 2286.59 683.498 2285.41 685.268 2284.52 686.984 2283.63 688.699 2282.9 690.814 2282.33 693.326L2278.48 710.875 2271.47 710.875 2277.39 685.18C2277.98 682.586 2278.28 680.587 2278.28 679.182 2278.28 678.101 2278.1 677.318 2277.75 676.832 2277.4 676.345 2276.85 676.102 2276.09 676.102 2275.25 676.102 2274.37 676.447 2273.44 677.136 2272.5 677.825 2271.23 679.074 2269.61 680.884L2267.3 678.615C2269.78 676.021 2271.85 674.177 2273.5 673.083 2275.14 671.989 2277.01 671.441 2279.09 671.441ZM2245.49 671.441C2247.25 671.441 2248.89 671.637 2250.41 672.029 2251.94 672.421 2253.51 673.117 2255.14 674.116L2258.86 671.441 2261.46 672.09 2255.5 697.784C2254.91 700.351 2254.61 702.35 2254.61 703.782 2254.61 704.863 2254.78 705.647 2255.14 706.133 2255.49 706.619 2256.04 706.862 2256.8 706.862 2257.61 706.862 2258.47 706.531 2259.39 705.869 2260.31 705.208 2261.61 703.944 2263.28 702.08L2265.59 704.35C2263.16 706.943 2261.09 708.787 2259.37 709.882 2257.66 710.976 2255.8 711.523 2253.8 711.523 2252.12 711.523 2250.79 710.969 2249.79 709.861 2248.79 708.754 2248.29 707.281 2248.29 705.444 2248.29 703.958 2248.6 702.377 2249.22 700.702L2248.69 700.54C2246.1 704.323 2243.64 707.092 2241.32 708.848 2238.99 710.604 2236.53 711.482 2233.94 711.482 2230.97 711.482 2228.66 710.361 2227.03 708.119 2225.4 705.876 2224.58 702.729 2224.58 698.676 2224.58 694.029 2225.49 689.564 2227.31 685.282 2229.14 680.999 2231.64 677.622 2234.83 675.15 2238.02 672.678 2241.57 671.441 2245.49 671.441ZM2356.2 652.92 2358.59 652.92 2348.5 697.784C2347.91 700.432 2347.61 702.431 2347.61 703.782 2347.61 704.863 2347.78 705.647 2348.14 706.133 2348.49 706.619 2349.04 706.862 2349.8 706.862 2350.61 706.862 2351.47 706.531 2352.39 705.869 2353.31 705.208 2354.61 703.944 2356.28 702.08L2358.59 704.35C2356.11 706.97 2354.01 708.821 2352.31 709.902 2350.61 710.983 2348.77 711.523 2346.8 711.523 2345.12 711.523 2343.79 710.969 2342.79 709.861 2341.79 708.754 2341.29 707.281 2341.29 705.444 2341.29 703.958 2341.6 702.377 2342.22 700.702L2341.69 700.54C2339.1 704.323 2336.64 707.092 2334.32 708.848 2331.99 710.604 2329.53 711.482 2326.94 711.482 2323.97 711.482 2321.66 710.361 2320.03 708.119 2318.4 705.876 2317.58 702.729 2317.58 698.676 2317.58 694.029 2318.49 689.564 2320.31 685.282 2322.14 680.999 2324.64 677.622 2327.83 675.15 2331.02 672.678 2334.57 671.441 2338.49 671.441 2340.14 671.441 2341.66 671.61 2343.05 671.948 2344.44 672.286 2345.87 672.873 2347.32 673.711L2349.43 664.349C2349.65 663.458 2349.84 662.471 2350 661.391 2350.16 660.31 2350.24 659.364 2350.24 658.554 2350.24 657.743 2350.09 657.129 2349.8 656.71 2349.5 656.291 2349.07 655.987 2348.52 655.798 2347.97 655.609 2346.97 655.474 2345.54 655.393L2346.03 653.285ZM2196.48 652.92 2198.83 652.92 2191.7 681.29 2192.22 681.452C2194.84 677.939 2197.3 675.4 2199.6 673.833 2201.9 672.266 2204.19 671.482 2206.49 671.482 2209.43 671.482 2211.72 672.603 2213.36 674.846 2214.99 677.088 2215.81 680.249 2215.81 684.329 2215.81 688.787 2214.91 693.171 2213.11 697.48 2211.32 701.79 2208.83 705.208 2205.64 707.734 2202.45 710.26 2198.88 711.523 2194.94 711.523 2191.34 711.523 2188.16 710.645 2185.37 708.889L2181.64 711.523 2179.05 710.875 2189.55 664.552C2190.17 661.796 2190.48 659.797 2190.48 658.554 2190.48 657.419 2190.14 656.622 2189.45 656.163 2188.76 655.703 2187.52 655.447 2185.74 655.393L2186.22 653.285Z" fill-rule="evenodd"/><text fill="#000000" fill-opacity="0" font-family="Arial,Arial_MSFontService,sans-serif" font-size="58.6025" x="2179.05" y="704.198">𝑏𝑎𝑛𝑑</text><path d="M2084.34 1567.5C2086.29 1567.5 2087.69 1568.01 2088.56 1569.02 2089.42 1570.04 2089.86 1571.39 2089.86 1573.1 2089.86 1574.39 2089.63 1575.88 2089.17 1577.55 2088.71 1579.23 2088.06 1581 2087.22 1582.86 2086.38 1584.73 2085.38 1586.64 2084.22 1588.6 2083.06 1590.56 2081.78 1592.46 2080.37 1594.31 2078.97 1596.16 2077.47 1597.91 2075.87 1599.54 2074.28 1601.18 2072.62 1602.6 2070.91 1603.82 2069.19 1605.03 2067.45 1606 2065.68 1606.71 2063.91 1607.43 2062.15 1607.79 2060.39 1607.79 2059.61 1607.79 2058.95 1607.59 2058.43 1607.2 2057.9 1606.81 2057.47 1606.25 2057.15 1605.54 2056.83 1604.82 2056.6 1603.98 2056.46 1603.01 2056.33 1602.03 2056.26 1600.97 2056.26 1599.8 2056.26 1598.26 2056.35 1596.62 2056.54 1594.86 2056.73 1593.1 2056.97 1591.33 2057.27 1589.55L2058.97 1578.32C2059.08 1577.68 2059.17 1577.06 2059.24 1576.48 2059.3 1575.9 2059.34 1575.47 2059.34 1575.2 2059.34 1574.37 2059.2 1573.68 2058.93 1573.14 2058.66 1572.6 2058.2 1572.33 2057.56 1572.33 2057.04 1572.33 2056.49 1572.48 2055.89 1572.79 2055.3 1573.1 2054.7 1573.5 2054.09 1573.99 2053.48 1574.47 2052.9 1574.99 2052.33 1575.55 2051.76 1576.1 2051.23 1576.62 2050.75 1577.11L2048.8 1574.84C2049.64 1573.97 2050.53 1573.12 2051.48 1572.27 2052.42 1571.41 2053.42 1570.64 2054.48 1569.96 2055.53 1569.27 2056.64 1568.71 2057.8 1568.29 2058.96 1567.88 2060.15 1567.67 2061.37 1567.67 2062.39 1567.67 2063.23 1567.83 2063.88 1568.17 2064.53 1568.51 2065.03 1568.96 2065.4 1569.51 2065.76 1570.06 2066.01 1570.67 2066.15 1571.33 2066.28 1572 2066.35 1572.65 2066.35 1573.3 2066.35 1573.68 2066.34 1574.04 2066.31 1574.39 2066.28 1574.74 2066.24 1575.07 2066.19 1575.37L2063.92 1590.04C2063.68 1591.58 2063.47 1593.08 2063.31 1594.56 2063.15 1596.03 2063.07 1597.33 2063.07 1598.47 2063.07 1599.6 2063.13 1600.52 2063.27 1601.22 2063.41 1601.93 2063.66 1602.28 2064.04 1602.28 2064.93 1602.28 2066.05 1601.92 2067.4 1601.2 2068.75 1600.49 2070.17 1599.5 2071.66 1598.24 2073.15 1596.99 2074.63 1595.5 2076.12 1593.79 2077.6 1592.07 2078.94 1590.21 2080.13 1588.21 2081.32 1586.21 2082.28 1584.11 2083.03 1581.89 2083.77 1579.68 2084.14 1577.45 2084.14 1575.2 2084.14 1574.23 2083.93 1573.48 2083.51 1572.95 2083.09 1572.43 2082.44 1572.16 2081.55 1572.16 2080.41 1572.16 2079.37 1572.6 2078.41 1573.48 2077.45 1574.36 2076.45 1575.51 2075.43 1576.95L2073.12 1574.88C2073.77 1573.91 2074.53 1572.98 2075.41 1572.08 2076.29 1571.19 2077.22 1570.41 2078.2 1569.73 2079.19 1569.06 2080.21 1568.52 2081.26 1568.11 2082.32 1567.71 2083.34 1567.5 2084.34 1567.5Z" fill-rule="evenodd"/><text fill="#000000" fill-opacity="0" font-family="Arial,Arial_MSFontService,sans-serif" font-size="40.2842" x="2048.8" y="1602.75">𝑣</text><path d="M2117.43 1580.68 2167.36 1580.68 2167.36 1586.07 2117.43 1586.07Z" fill-rule="evenodd"/><text fill="#000000" fill-opacity="0" font-family="Arial,Arial_MSFontService,sans-serif" font-size="5.39014" x="2117.43" y="1585.39">−</text><path d="M2219.85 1572.45C2218.55 1572.45 2217.27 1572.86 2216.02 1573.68 2214.76 1574.51 2213.36 1575.87 2211.82 1577.78 2210.28 1579.68 2209.03 1581.63 2208.05 1583.63 2207.08 1585.63 2206.26 1588.19 2205.58 1591.29L2205.22 1593C2204.81 1594.89 2204.61 1596.72 2204.61 1598.51 2204.61 1600.64 2205.08 1602.18 2206.01 1603.13 2206.94 1604.07 2208.49 1604.55 2210.65 1604.55 2211.76 1604.55 2212.81 1604.36 2213.81 1604 2214.81 1603.63 2215.83 1603.03 2216.87 1602.2 2217.91 1601.36 2218.9 1600.26 2219.83 1598.89 2220.76 1597.53 2221.62 1595.85 2222.4 1593.85 2223.18 1591.85 2223.79 1589.71 2224.22 1587.42 2224.66 1585.14 2224.87 1582.96 2224.87 1580.88 2224.87 1578.07 2224.47 1575.96 2223.68 1574.56 2222.88 1573.15 2221.6 1572.45 2219.85 1572.45ZM2355.5 1570.87C2352.74 1570.87 2350.27 1571.98 2348.08 1574.21 2345.89 1576.44 2344.17 1579.45 2342.91 1583.23 2341.66 1587.01 2341.03 1590.78 2341.03 1594.54 2341.03 1597.35 2341.41 1599.45 2342.18 1600.84 2342.95 1602.23 2344.24 1602.92 2346.05 1602.92 2346.89 1602.92 2347.74 1602.74 2348.61 1602.38 2349.47 1602.01 2350.37 1601.43 2351.3 1600.61 2352.23 1599.8 2353.15 1598.82 2354.06 1597.66 2354.96 1596.49 2355.79 1595.33 2356.55 1594.15 2357.31 1592.98 2358.01 1591.58 2358.66 1589.98 2359.31 1588.37 2359.86 1586.43 2360.32 1584.16L2360.68 1582.42C2361.09 1580.47 2361.29 1578.64 2361.29 1576.91 2361.29 1574.8 2360.85 1573.27 2359.96 1572.31 2359.06 1571.35 2357.58 1570.87 2355.5 1570.87ZM2262.58 1570.87C2259.8 1570.87 2257.3 1571.99 2255.08 1574.23 2252.86 1576.47 2251.14 1579.48 2249.89 1583.25 2248.65 1587.02 2248.03 1590.78 2248.03 1594.54 2248.03 1597.35 2248.41 1599.45 2249.18 1600.84 2249.95 1602.23 2251.24 1602.92 2253.05 1602.92 2254.84 1602.92 2256.59 1602.15 2258.3 1600.61 2260.02 1599.07 2261.79 1596.88 2263.61 1594.03 2265.44 1591.18 2266.73 1587.89 2267.48 1584.16L2267.85 1582.42C2268.09 1581.31 2268.25 1580.35 2268.33 1579.54 2268.41 1578.73 2268.45 1577.85 2268.45 1576.91 2268.45 1574.83 2268.01 1573.3 2267.12 1572.33 2266.23 1571.35 2264.71 1570.87 2262.58 1570.87ZM2295.37 1567.67C2297.07 1567.67 2298.41 1568.23 2299.4 1569.35 2300.38 1570.47 2300.88 1571.94 2300.88 1573.75 2300.88 1575.18 2300.55 1576.77 2299.91 1578.53L2300.39 1578.69C2303.04 1574.96 2305.56 1572.2 2307.95 1570.4 2310.34 1568.6 2312.81 1567.71 2315.35 1567.71 2317.86 1567.71 2319.79 1568.43 2321.14 1569.87 2322.49 1571.32 2323.17 1573.33 2323.17 1575.89 2323.17 1577.6 2322.78 1580.01 2321.99 1583.15L2319.36 1593.77C2318.63 1596.71 2318.26 1598.79 2318.26 1600.01 2318.26 1601.09 2318.44 1601.87 2318.79 1602.36 2319.14 1602.84 2319.7 1603.09 2320.45 1603.09 2321.26 1603.09 2322.13 1602.76 2323.05 1602.09 2323.97 1601.43 2325.26 1600.17 2326.94 1598.3L2329.25 1600.57C2326.92 1603.06 2324.9 1604.88 2323.17 1606.03 2321.44 1607.17 2319.47 1607.75 2317.25 1607.75 2315.49 1607.75 2314.09 1607.12 2313.04 1605.86 2311.98 1604.61 2311.46 1603.01 2311.46 1601.06 2311.46 1599.3 2311.9 1596.72 2312.79 1593.32L2314.58 1586.31C2315.22 1583.77 2315.65 1581.89 2315.85 1580.68 2316.06 1579.46 2316.16 1578.47 2316.16 1577.72 2316.16 1575.85 2315.85 1574.51 2315.22 1573.68 2314.6 1572.86 2313.59 1572.45 2312.19 1572.45 2311.05 1572.45 2309.83 1572.9 2308.52 1573.81 2307.21 1574.71 2305.82 1576.08 2304.34 1577.9 2302.87 1579.72 2301.69 1581.49 2300.8 1583.21 2299.91 1584.92 2299.18 1587.04 2298.61 1589.55L2294.76 1607.1 2287.75 1607.1 2293.66 1581.4C2294.26 1578.81 2294.56 1576.81 2294.56 1575.41 2294.56 1574.33 2294.38 1573.54 2294.03 1573.06 2293.68 1572.57 2293.12 1572.33 2292.37 1572.33 2291.53 1572.33 2290.64 1572.67 2289.71 1573.36 2288.78 1574.05 2287.5 1575.3 2285.88 1577.11L2283.57 1574.84C2286.06 1572.25 2288.13 1570.4 2289.77 1569.31 2291.42 1568.21 2293.29 1567.67 2295.37 1567.67ZM2261.77 1567.67C2263.52 1567.67 2265.17 1567.86 2266.69 1568.25 2268.22 1568.65 2269.79 1569.34 2271.41 1570.34L2275.14 1567.67 2277.74 1568.31 2271.78 1594.01C2271.18 1596.58 2270.89 1598.57 2270.89 1600.01 2270.89 1601.09 2271.06 1601.87 2271.41 1602.36 2271.76 1602.84 2272.32 1603.09 2273.07 1603.09 2273.89 1603.09 2274.75 1602.76 2275.67 1602.09 2276.59 1601.43 2277.88 1600.17 2279.56 1598.3L2281.87 1600.57C2279.44 1603.17 2277.36 1605.01 2275.65 1606.11 2273.93 1607.2 2272.07 1607.75 2270.08 1607.75 2268.4 1607.75 2267.06 1607.19 2266.06 1606.09 2265.06 1604.98 2264.56 1603.51 2264.56 1601.67 2264.56 1600.18 2264.87 1598.6 2265.5 1596.93L2264.97 1596.76C2262.38 1600.55 2259.92 1603.32 2257.59 1605.07 2255.27 1606.83 2252.81 1607.71 2250.22 1607.71 2247.25 1607.71 2244.94 1606.59 2243.31 1604.34 2241.67 1602.1 2240.86 1598.95 2240.86 1594.9 2240.86 1590.25 2241.77 1585.79 2243.59 1581.51 2245.41 1577.22 2247.92 1573.85 2251.11 1571.37 2254.3 1568.9 2257.85 1567.67 2261.77 1567.67ZM2372.48 1549.15 2374.87 1549.15 2364.78 1594.01C2364.18 1596.66 2363.89 1598.66 2363.89 1600.01 2363.89 1601.09 2364.06 1601.87 2364.41 1602.36 2364.76 1602.84 2365.32 1603.09 2366.07 1603.09 2366.89 1603.09 2367.75 1602.76 2368.67 1602.09 2369.59 1601.43 2370.88 1600.17 2372.56 1598.3L2374.87 1600.57C2372.38 1603.2 2370.29 1605.05 2368.59 1606.13 2366.89 1607.21 2365.05 1607.75 2363.08 1607.75 2361.4 1607.75 2360.06 1607.19 2359.06 1606.09 2358.06 1604.98 2357.56 1603.51 2357.56 1601.67 2357.56 1600.18 2357.87 1598.6 2358.5 1596.93L2357.97 1596.76C2355.38 1600.55 2352.92 1603.32 2350.59 1605.07 2348.27 1606.83 2345.81 1607.71 2343.22 1607.71 2340.25 1607.71 2337.94 1606.59 2336.31 1604.34 2334.67 1602.1 2333.86 1598.95 2333.86 1594.9 2333.86 1590.25 2334.77 1585.79 2336.59 1581.51 2338.41 1577.22 2340.92 1573.85 2344.11 1571.37 2347.3 1568.9 2350.85 1567.67 2354.77 1567.67 2356.42 1567.67 2357.94 1567.83 2359.33 1568.17 2360.72 1568.51 2362.14 1569.1 2363.6 1569.94L2365.71 1560.57C2365.93 1559.68 2366.12 1558.7 2366.28 1557.62 2366.44 1556.53 2366.52 1555.59 2366.52 1554.78 2366.52 1553.97 2366.37 1553.35 2366.07 1552.93 2365.78 1552.52 2365.35 1552.21 2364.8 1552.02 2364.24 1551.83 2363.25 1551.7 2361.82 1551.62L2362.31 1549.51ZM2212.76 1549.15 2215.11 1549.15 2207.97 1577.51 2208.5 1577.68C2211.12 1574.16 2213.58 1571.62 2215.88 1570.06 2218.17 1568.49 2220.47 1567.71 2222.77 1567.71 2225.71 1567.71 2228 1568.83 2229.64 1571.07 2231.27 1573.31 2232.09 1576.47 2232.09 1580.55 2232.09 1585.01 2231.19 1589.4 2229.39 1593.7 2227.6 1598.01 2225.1 1601.43 2221.91 1603.96 2218.73 1606.48 2215.16 1607.75 2211.22 1607.75 2207.62 1607.75 2204.43 1606.87 2201.65 1605.11L2197.92 1607.75 2195.33 1607.1 2205.83 1560.78C2206.45 1558.02 2206.76 1556.02 2206.76 1554.78 2206.76 1553.64 2206.41 1552.85 2205.72 1552.39 2205.03 1551.93 2203.8 1551.67 2202.02 1551.62L2202.5 1549.51Z" fill-rule="evenodd"/><text fill="#000000" fill-opacity="0" font-family="Arial,Arial_MSFontService,sans-serif" font-size="58.6025" x="2195.33" y="1600.42">𝑏𝑎𝑛𝑑</text><path d="M1683.5 1066C1683.5 1053.02 1693.8 1042.5 1706.5 1042.5 1719.2 1042.5 1729.5 1053.02 1729.5 1066 1729.5 1078.98 1719.2 1089.5 1706.5 1089.5 1693.8 1089.5 1683.5 1078.98 1683.5 1066Z" stroke="#042433" stroke-width="6.875" stroke-miterlimit="8" fill="#156082" fill-rule="evenodd"/><path d="M1727.5 1043C1727.5 1030.02 1738.02 1019.5 1751 1019.5 1763.98 1019.5 1774.5 1030.02 1774.5 1043 1774.5 1055.98 1763.98 1066.5 1751 1066.5 1738.02 1066.5 1727.5 1055.98 1727.5 1043Z" stroke="#042433" stroke-width="6.875" stroke-miterlimit="8" fill="#156082" fill-rule="evenodd"/><path d="M1637.5 1044C1637.5 1031.02 1648.02 1020.5 1661 1020.5 1673.98 1020.5 1684.5 1031.02 1684.5 1044 1684.5 1056.98 1673.98 1067.5 1661 1067.5 1648.02 1067.5 1637.5 1056.98 1637.5 1044Z" stroke="#042433" stroke-width="6.875" stroke-miterlimit="8" fill="#156082" fill-rule="evenodd"/><path d="M1768.5 1013C1768.5 1000.02 1779.02 989.5 1792 989.5 1804.98 989.5 1815.5 1000.02 1815.5 1013 1815.5 1025.98 1804.98 1036.5 1792 1036.5 1779.02 1036.5 1768.5 1025.98 1768.5 1013Z" stroke="#042433" stroke-width="6.875" stroke-miterlimit="8" fill="#156082" fill-rule="evenodd"/><path d="M1602.5 1006C1602.5 993.021 1613.02 982.5 1626 982.5 1638.98 982.5 1649.5 993.021 1649.5 1006 1649.5 1018.98 1638.98 1029.5 1626 1029.5 1613.02 1029.5 1602.5 1018.98 1602.5 1006Z" stroke="#042433" stroke-width="6.875" stroke-miterlimit="8" fill="#156082" fill-rule="evenodd"/><path d="M1684.5 1550C1684.5 1537.02 1695.02 1526.5 1708 1526.5 1720.98 1526.5 1731.5 1537.02 1731.5 1550 1731.5 1562.98 1720.98 1573.5 1708 1573.5 1695.02 1573.5 1684.5 1562.98 1684.5 1550Z" stroke="#156082" stroke-width="6.875" stroke-miterlimit="8" fill="none" fill-rule="evenodd"/><path d="M1637.5 1562C1637.5 1549.02 1648.02 1538.5 1661 1538.5 1673.98 1538.5 1684.5 1549.02 1684.5 1562 1684.5 1574.98 1673.98 1585.5 1661 1585.5 1648.02 1585.5 1637.5 1574.98 1637.5 1562Z" stroke="#156082" stroke-width="6.875" stroke-miterlimit="8" fill="none" fill-rule="evenodd"/><path d="M1590.5 1576.5C1590.5 1563.8 1601.02 1553.5 1614 1553.5 1626.98 1553.5 1637.5 1563.8 1637.5 1576.5 1637.5 1589.2 1626.98 1599.5 1614 1599.5 1601.02 1599.5 1590.5 1589.2 1590.5 1576.5Z" stroke="#156082" stroke-width="6.875" stroke-miterlimit="8" fill="none" fill-rule="evenodd"/><path d="M1731.5 1557C1731.5 1544.02 1742.02 1533.5 1755 1533.5 1767.98 1533.5 1778.5 1544.02 1778.5 1557 1778.5 1569.98 1767.98 1580.5 1755 1580.5 1742.02 1580.5 1731.5 1569.98 1731.5 1557Z" stroke="#156082" stroke-width="6.875" stroke-miterlimit="8" fill="none" fill-rule="evenodd"/><path d="M1776.5 1578.5C1776.5 1565.8 1787.02 1555.5 1800 1555.5 1812.98 1555.5 1823.5 1565.8 1823.5 1578.5 1823.5 1591.2 1812.98 1601.5 1800 1601.5 1787.02 1601.5 1776.5 1591.2 1776.5 1578.5Z" stroke="#156082" stroke-width="6.875" stroke-miterlimit="8" fill="none" fill-rule="evenodd"/><path d="M1683.51 913.243C1682.49 913.243 1681.51 913.425 1680.57 913.79 1679.64 914.155 1678.67 914.776 1677.66 915.654 1676.64 916.532 1675.68 917.714 1674.76 919.2 1673.84 920.686 1673.02 922.436 1672.29 924.449 1671.56 926.462 1670.85 929.035 1670.18 932.169L1668.76 938.694C1668.71 938.991 1668.65 939.417 1668.58 939.971 1668.51 940.525 1668.48 941.031 1668.48 941.49 1668.48 943.22 1669.19 944.55 1670.6 945.482 1672.02 946.415 1673.91 946.881 1676.26 946.881 1679.04 946.881 1681.51 945.753 1683.65 943.497 1685.8 941.241 1687.47 938.133 1688.66 934.175 1689.85 930.217 1690.44 926.279 1690.44 922.362 1690.44 920.605 1690.26 919.072 1689.9 917.762 1689.53 916.451 1688.84 915.371 1687.81 914.52 1686.78 913.668 1685.35 913.243 1683.51 913.243ZM1684.57 910.041C1687.19 910.041 1689.5 910.575 1691.5 911.642 1693.5 912.709 1695.01 914.256 1696.04 916.282 1697.06 918.309 1697.58 920.794 1697.58 923.74 1697.58 928.333 1696.68 932.689 1694.88 936.81 1693.08 940.93 1690.58 944.172 1687.38 946.536 1684.18 948.9 1680.59 950.082 1676.62 950.082 1674.79 950.082 1673.04 949.92 1671.4 949.596 1669.75 949.272 1668.1 948.718 1666.45 947.934L1662.24 966.942 1655.59 966.942 1663.82 930.264C1664.79 925.941 1666.18 922.321 1667.99 919.403 1669.8 916.485 1672.1 914.195 1674.88 912.534 1677.66 910.872 1680.89 910.041 1684.57 910.041Z" fill-rule="evenodd"/><text fill="#000000" fill-opacity="0" font-family="Arial,Arial_MSFontService,sans-serif" font-size="56.9004" x="1655.59" y="959.829">𝜌</text><path d="M1750.2 935.867C1751.65 935.867 1752.99 935.946 1754.23 936.105 1755.47 936.264 1756.76 936.512 1758.09 936.85L1756.42 944.147 1752.91 944.147C1752.89 943.115 1752.81 942.256 1752.68 941.571 1752.56 940.886 1752.35 940.345 1752.06 939.948 1751.77 939.55 1751.39 939.267 1750.93 939.099 1750.46 938.93 1749.89 938.836 1749.21 938.816 1748.14 938.816 1747.11 939.054 1746.13 939.531 1745.15 940.007 1744.24 940.667 1743.39 941.511 1742.55 942.355 1741.78 943.343 1741.08 944.475 1740.39 945.607 1739.79 946.828 1739.3 948.138 1738.8 949.449 1738.42 950.814 1738.15 952.234 1737.88 953.654 1737.75 955.068 1737.75 956.478 1737.75 958.583 1738.16 960.187 1739 961.289 1739.83 962.391 1741.08 962.942 1742.75 962.942 1743.68 962.942 1744.55 962.857 1745.34 962.688 1746.14 962.52 1746.91 962.237 1747.67 961.84 1748.42 961.442 1749.2 960.921 1750 960.276 1750.81 959.631 1751.7 958.831 1752.67 957.878 1753.05 958.275 1753.41 958.667 1753.76 959.055 1754.1 959.442 1754.47 959.834 1754.84 960.231 1752.7 962.455 1750.56 964.108 1748.41 965.19 1746.27 966.273 1743.96 966.814 1741.5 966.814 1738.42 966.814 1736.06 965.915 1734.43 964.118 1732.79 962.321 1731.97 959.755 1731.97 956.419 1731.97 954.552 1732.18 952.75 1732.59 951.013 1733.01 949.275 1733.61 947.642 1734.4 946.113 1735.18 944.584 1736.12 943.194 1737.21 941.943 1738.3 940.692 1739.52 939.615 1740.87 938.711 1742.23 937.808 1743.68 937.108 1745.25 936.612 1746.82 936.115 1748.47 935.867 1750.2 935.867ZM1720.2 935.867C1721.65 935.867 1722.99 935.946 1724.23 936.105 1725.47 936.264 1726.76 936.512 1728.09 936.85L1726.42 944.147 1722.91 944.147C1722.89 943.115 1722.81 942.256 1722.68 941.571 1722.56 940.886 1722.35 940.345 1722.06 939.948 1721.77 939.55 1721.39 939.267 1720.93 939.099 1720.46 938.93 1719.89 938.836 1719.21 938.816 1718.14 938.816 1717.11 939.054 1716.13 939.531 1715.15 940.007 1714.24 940.667 1713.39 941.511 1712.55 942.355 1711.78 943.343 1711.08 944.475 1710.39 945.607 1709.79 946.828 1709.3 948.138 1708.8 949.449 1708.42 950.814 1708.15 952.234 1707.88 953.654 1707.75 955.068 1707.75 956.478 1707.75 958.583 1708.16 960.187 1709 961.289 1709.83 962.391 1711.08 962.942 1712.75 962.942 1713.68 962.942 1714.55 962.857 1715.34 962.688 1716.14 962.52 1716.91 962.237 1717.67 961.84 1718.42 961.442 1719.2 960.921 1720 960.276 1720.81 959.631 1721.7 958.831 1722.67 957.878 1723.05 958.275 1723.41 958.667 1723.76 959.055 1724.1 959.442 1724.47 959.834 1724.84 960.231 1722.7 962.455 1720.56 964.108 1718.41 965.19 1716.27 966.273 1713.96 966.814 1711.5 966.814 1708.42 966.814 1706.06 965.915 1704.43 964.118 1702.79 962.321 1701.97 959.755 1701.97 956.419 1701.97 954.552 1702.18 952.75 1702.59 951.013 1703.01 949.275 1703.61 947.642 1704.4 946.113 1705.18 944.584 1706.12 943.194 1707.21 941.943 1708.3 940.692 1709.52 939.615 1710.87 938.711 1712.23 937.808 1713.68 937.108 1715.25 936.612 1716.82 936.115 1718.47 935.867 1720.2 935.867Z" fill-rule="evenodd"/><text fill="#000000" fill-opacity="0" font-family="Arial,Arial_MSFontService,sans-serif" font-size="30.9468" x="1701.97" y="962.945">𝑐𝑐</text><path d="M1680.85 1618.26C1679.82 1618.26 1678.85 1618.44 1677.91 1618.8 1676.98 1619.17 1676.01 1619.79 1675 1620.67 1673.98 1621.55 1673.02 1622.73 1672.1 1624.21 1671.18 1625.7 1670.36 1627.45 1669.63 1629.46 1668.9 1631.47 1668.19 1634.05 1667.52 1637.18L1666.1 1643.71C1666.05 1644 1665.98 1644.43 1665.92 1644.98 1665.85 1645.54 1665.82 1646.04 1665.82 1646.5 1665.82 1648.23 1666.53 1649.56 1667.94 1650.5 1669.36 1651.43 1671.25 1651.89 1673.6 1651.89 1676.38 1651.89 1678.85 1650.77 1680.99 1648.51 1683.14 1646.25 1684.81 1643.15 1686 1639.19 1687.19 1635.23 1687.78 1631.29 1687.78 1627.37 1687.78 1625.62 1687.6 1624.09 1687.23 1622.77 1686.87 1621.46 1686.17 1620.38 1685.15 1619.53 1684.12 1618.68 1682.69 1618.26 1680.85 1618.26ZM1681.91 1615.05C1684.53 1615.05 1686.84 1615.59 1688.84 1616.66 1690.83 1617.72 1692.35 1619.27 1693.37 1621.3 1694.4 1623.32 1694.91 1625.81 1694.91 1628.75 1694.91 1633.35 1694.02 1637.7 1692.22 1641.82 1690.42 1645.94 1687.92 1649.18 1684.72 1651.55 1681.52 1653.91 1677.93 1655.1 1673.96 1655.1 1672.12 1655.1 1670.38 1654.93 1668.73 1654.61 1667.09 1654.28 1665.44 1653.73 1663.79 1652.95L1659.57 1671.95 1652.93 1671.95 1661.16 1635.28C1662.13 1630.95 1663.52 1627.33 1665.33 1624.42 1667.14 1621.5 1669.44 1619.21 1672.22 1617.55 1675 1615.89 1678.23 1615.05 1681.91 1615.05Z" fill-rule="evenodd"/><text fill="#000000" fill-opacity="0" font-family="Arial,Arial_MSFontService,sans-serif" font-size="56.9004" x="1652.93" y="1664.84">𝜌</text><path d="M1740.84 1640.88C1741.7 1640.88 1742.39 1641.05 1742.91 1641.39 1743.44 1641.72 1743.86 1642.17 1744.16 1642.71 1744.47 1643.26 1744.68 1643.86 1744.79 1644.51 1744.9 1645.17 1744.95 1645.81 1744.95 1646.45 1744.95 1646.83 1744.91 1647.33 1744.83 1647.97L1742.96 1658.75C1742.78 1659.78 1742.63 1660.8 1742.51 1661.79 1742.39 1662.78 1742.33 1663.66 1742.33 1664.41 1742.33 1665.16 1742.38 1665.78 1742.48 1666.26 1742.58 1666.73 1742.68 1666.97 1742.78 1666.97 1743.42 1666.97 1744.23 1666.72 1745.22 1666.21 1746.21 1665.71 1747.26 1665.01 1748.36 1664.13 1749.47 1663.24 1750.57 1662.2 1751.67 1660.98 1752.77 1659.77 1753.76 1658.46 1754.63 1657.04 1755.51 1655.62 1756.22 1654.13 1756.76 1652.57 1757.31 1651.01 1757.58 1649.44 1757.58 1647.85 1757.58 1646.92 1757.41 1646.24 1757.06 1645.82 1756.71 1645.41 1756.24 1645.2 1755.65 1645.2 1755.01 1645.2 1754.34 1645.5 1753.62 1646.11 1752.91 1646.71 1752.16 1647.5 1751.39 1648.48L1749.63 1646.72C1750.11 1645.94 1750.67 1645.2 1751.33 1644.5 1751.98 1643.79 1752.68 1643.17 1753.41 1642.64 1754.15 1642.1 1754.91 1641.67 1755.69 1641.36 1756.48 1641.04 1757.25 1640.88 1758 1640.88 1759.57 1640.88 1760.7 1641.37 1761.4 1642.35 1762.09 1643.34 1762.44 1644.65 1762.44 1646.3 1762.44 1647.25 1762.26 1648.35 1761.92 1649.58 1761.57 1650.81 1761.08 1652.11 1760.44 1653.48 1759.81 1654.85 1759.05 1656.25 1758.18 1657.69 1757.3 1659.13 1756.34 1660.53 1755.27 1661.89 1754.21 1663.25 1753.08 1664.53 1751.88 1665.74 1750.68 1666.94 1749.43 1667.98 1748.13 1668.88 1746.83 1669.77 1745.51 1670.48 1744.16 1671.01 1742.82 1671.53 1741.49 1671.8 1740.16 1671.8 1739.44 1671.8 1738.85 1671.65 1738.37 1671.36 1737.89 1671.08 1737.53 1670.67 1737.27 1670.14 1737.01 1669.62 1736.83 1669 1736.73 1668.28 1736.63 1667.57 1736.58 1666.78 1736.58 1665.93 1736.58 1664.8 1736.65 1663.59 1736.79 1662.3 1736.93 1661 1737.11 1659.7 1737.33 1658.39 1738.38 1652.02 1738.91 1648.32 1738.91 1647.28 1738.95 1646.55 1738.86 1646.05 1738.65 1645.78 1738.45 1645.51 1738.15 1645.38 1737.78 1645.38 1737.38 1645.38 1736.96 1645.49 1736.51 1645.71 1736.06 1645.92 1735.61 1646.2 1735.15 1646.54 1734.7 1646.88 1734.26 1647.24 1733.83 1647.63 1733.4 1648.01 1733 1648.38 1732.62 1648.71L1730.98 1646.72C1731.64 1646.02 1732.34 1645.33 1733.08 1644.63 1733.83 1643.94 1734.62 1643.31 1735.45 1642.74 1736.29 1642.18 1737.16 1641.72 1738.07 1641.39 1738.99 1641.05 1739.91 1640.88 1740.84 1640.88ZM1706.84 1640.88C1707.7 1640.88 1708.39 1641.05 1708.91 1641.39 1709.44 1641.72 1709.86 1642.17 1710.16 1642.71 1710.47 1643.26 1710.68 1643.86 1710.79 1644.51 1710.9 1645.17 1710.95 1645.81 1710.95 1646.45 1710.95 1646.83 1710.91 1647.33 1710.83 1647.97L1708.96 1658.75C1708.78 1659.78 1708.63 1660.8 1708.51 1661.79 1708.39 1662.78 1708.33 1663.66 1708.33 1664.41 1708.33 1665.16 1708.38 1665.78 1708.48 1666.26 1708.58 1666.73 1708.68 1666.97 1708.78 1666.97 1709.42 1666.97 1710.23 1666.72 1711.22 1666.21 1712.21 1665.71 1713.26 1665.01 1714.36 1664.13 1715.47 1663.24 1716.57 1662.2 1717.67 1660.98 1718.77 1659.77 1719.76 1658.46 1720.63 1657.04 1721.51 1655.62 1722.22 1654.13 1722.76 1652.57 1723.31 1651.01 1723.58 1649.44 1723.58 1647.85 1723.58 1646.92 1723.41 1646.24 1723.06 1645.82 1722.71 1645.41 1722.24 1645.2 1721.65 1645.2 1721.01 1645.2 1720.34 1645.5 1719.62 1646.11 1718.91 1646.71 1718.16 1647.5 1717.39 1648.48L1715.63 1646.72C1716.11 1645.94 1716.67 1645.2 1717.33 1644.5 1717.98 1643.79 1718.68 1643.17 1719.41 1642.64 1720.15 1642.1 1720.91 1641.67 1721.69 1641.36 1722.48 1641.04 1723.25 1640.88 1724 1640.88 1725.57 1640.88 1726.7 1641.37 1727.4 1642.35 1728.09 1643.34 1728.44 1644.65 1728.44 1646.3 1728.44 1647.25 1728.26 1648.35 1727.92 1649.58 1727.57 1650.81 1727.08 1652.11 1726.44 1653.48 1725.81 1654.85 1725.05 1656.25 1724.18 1657.69 1723.3 1659.13 1722.34 1660.53 1721.27 1661.89 1720.21 1663.25 1719.08 1664.53 1717.88 1665.74 1716.68 1666.94 1715.43 1667.98 1714.13 1668.88 1712.83 1669.77 1711.51 1670.48 1710.16 1671.01 1708.82 1671.53 1707.49 1671.8 1706.16 1671.8 1705.44 1671.8 1704.85 1671.65 1704.37 1671.36 1703.89 1671.08 1703.53 1670.67 1703.27 1670.14 1703.01 1669.62 1702.83 1669 1702.73 1668.28 1702.63 1667.57 1702.58 1666.78 1702.58 1665.93 1702.58 1664.8 1702.65 1663.59 1702.79 1662.3 1702.93 1661 1703.11 1659.7 1703.33 1658.39 1704.38 1652.02 1704.91 1648.32 1704.91 1647.28 1704.95 1646.55 1704.86 1646.05 1704.65 1645.78 1704.45 1645.51 1704.15 1645.38 1703.78 1645.38 1703.38 1645.38 1702.96 1645.49 1702.51 1645.71 1702.06 1645.92 1701.61 1646.2 1701.15 1646.54 1700.7 1646.88 1700.26 1647.24 1699.83 1647.63 1699.4 1648.01 1699 1648.38 1698.62 1648.71L1696.98 1646.72C1697.64 1646.02 1698.34 1645.33 1699.08 1644.63 1699.83 1643.94 1700.62 1643.31 1701.45 1642.74 1702.29 1642.18 1703.16 1641.72 1704.07 1641.39 1704.99 1641.05 1705.91 1640.88 1706.84 1640.88Z" fill-rule="evenodd"/><text fill="#000000" fill-opacity="0" font-family="Arial,Arial_MSFontService,sans-serif" font-size="30.917" x="1696.98" y="1667.93">𝑣𝑣</text><path d="M3.4375-3.17687e-06 3.43784 367.583-3.43716 367.583-3.4375 3.17687e-06ZM13.7503 363 0.000360892 390.5-13.7497 363Z" fill="#156082" transform="matrix(1 0 0 -1 1683.5 1500)"/><path d="M1730.94 1109.5 1730.94 1477.08 1724.06 1477.08 1724.06 1109.5ZM1741.25 1472.5 1727.5 1500 1713.75 1472.5Z" fill="#156082"/><path d="M1783.97 1228.16C1782.94 1228.16 1781.96 1228.35 1781.03 1228.71 1780.1 1229.08 1779.12 1229.7 1778.11 1230.58 1777.1 1231.45 1776.13 1232.64 1775.21 1234.12 1774.29 1235.61 1773.47 1237.36 1772.74 1239.37 1772.01 1241.38 1771.31 1243.96 1770.63 1247.09L1769.21 1253.62C1769.16 1253.91 1769.1 1254.34 1769.03 1254.89 1768.96 1255.45 1768.93 1255.95 1768.93 1256.41 1768.93 1258.14 1769.64 1259.47 1771.06 1260.4 1772.48 1261.34 1774.36 1261.8 1776.71 1261.8 1779.49 1261.8 1781.96 1260.67 1784.11 1258.42 1786.26 1256.16 1787.92 1253.05 1789.11 1249.1 1790.3 1245.14 1790.9 1241.2 1790.9 1237.28 1790.9 1235.53 1790.71 1233.99 1790.35 1232.68 1789.98 1231.37 1789.29 1230.29 1788.26 1229.44 1787.23 1228.59 1785.8 1228.16 1783.97 1228.16ZM1785.02 1224.96C1787.64 1224.96 1789.95 1225.5 1791.95 1226.56 1793.95 1227.63 1795.46 1229.18 1796.49 1231.2 1797.52 1233.23 1798.03 1235.72 1798.03 1238.66 1798.03 1243.25 1797.13 1247.61 1795.33 1251.73 1793.54 1255.85 1791.04 1259.09 1787.84 1261.46 1784.63 1263.82 1781.05 1265 1777.08 1265 1775.24 1265 1773.5 1264.84 1771.85 1264.52 1770.2 1264.19 1768.55 1263.64 1766.9 1262.86L1762.69 1281.86 1756.04 1281.86 1764.27 1245.19C1765.24 1240.86 1766.63 1237.24 1768.44 1234.32 1770.25 1231.41 1772.55 1229.12 1775.33 1227.46 1778.12 1225.79 1781.35 1224.96 1785.02 1224.96Z" fill-rule="evenodd"/><text fill="#000000" fill-opacity="0" font-family="Arial,Arial_MSFontService,sans-serif" font-size="56.9004" x="1756.04" y="1274.75">𝜌</text><path d="M1839.96 1250.79C1840.81 1250.79 1841.5 1250.96 1842.03 1251.29 1842.55 1251.63 1842.97 1252.07 1843.28 1252.62 1843.59 1253.17 1843.8 1253.77 1843.9 1254.42 1844.01 1255.08 1844.07 1255.72 1844.07 1256.36 1844.07 1256.74 1844.03 1257.24 1843.95 1257.88L1842.07 1268.66C1841.89 1269.69 1841.74 1270.7 1841.63 1271.7 1841.51 1272.69 1841.45 1273.56 1841.45 1274.32 1841.45 1275.07 1841.5 1275.69 1841.6 1276.17 1841.7 1276.64 1841.79 1276.88 1841.89 1276.88 1842.53 1276.88 1843.34 1276.63 1844.34 1276.12 1845.33 1275.61 1846.38 1274.92 1847.48 1274.04 1848.58 1273.15 1849.68 1272.1 1850.78 1270.89 1851.89 1269.68 1852.87 1268.37 1853.75 1266.95 1854.62 1265.53 1855.33 1264.04 1855.88 1262.48 1856.42 1260.92 1856.7 1259.35 1856.7 1257.76 1856.7 1256.82 1856.52 1256.15 1856.18 1255.73 1855.83 1255.32 1855.36 1255.11 1854.76 1255.11 1854.13 1255.11 1853.45 1255.41 1852.74 1256.02 1852.02 1256.62 1851.28 1257.41 1850.5 1258.38L1848.74 1256.63C1849.22 1255.85 1849.79 1255.11 1850.44 1254.41 1851.1 1253.7 1851.79 1253.08 1852.53 1252.55 1853.26 1252.01 1854.02 1251.58 1854.81 1251.27 1855.59 1250.95 1856.36 1250.79 1857.11 1250.79 1858.68 1250.79 1859.81 1251.28 1860.51 1252.26 1861.2 1253.25 1861.55 1254.56 1861.55 1256.21 1861.55 1257.16 1861.38 1258.25 1861.03 1259.49 1860.68 1260.72 1860.19 1262.02 1859.56 1263.39 1858.92 1264.76 1858.17 1266.16 1857.29 1267.6 1856.42 1269.04 1855.45 1270.44 1854.39 1271.8 1853.33 1273.16 1852.19 1274.44 1850.99 1275.64 1849.79 1276.85 1848.54 1277.89 1847.24 1278.79 1845.94 1279.68 1844.62 1280.39 1843.28 1280.92 1841.94 1281.44 1840.6 1281.71 1839.27 1281.71 1838.56 1281.71 1837.96 1281.56 1837.49 1281.27 1837.01 1280.99 1836.64 1280.58 1836.38 1280.05 1836.13 1279.53 1835.95 1278.91 1835.85 1278.19 1835.75 1277.48 1835.7 1276.69 1835.7 1275.84 1835.7 1274.71 1835.77 1273.49 1835.91 1272.2 1836.05 1270.91 1836.22 1269.61 1836.44 1268.3 1837.5 1261.93 1838.02 1258.22 1838.02 1257.19 1838.06 1256.46 1837.98 1255.96 1837.77 1255.69 1837.56 1255.42 1837.27 1255.29 1836.89 1255.29 1836.49 1255.29 1836.07 1255.4 1835.62 1255.61 1835.18 1255.83 1834.73 1256.11 1834.27 1256.45 1833.81 1256.79 1833.37 1257.15 1832.94 1257.53 1832.52 1257.92 1832.11 1258.28 1831.74 1258.62L1830.1 1256.63C1830.75 1255.93 1831.45 1255.24 1832.2 1254.54 1832.94 1253.85 1833.73 1253.22 1834.57 1252.65 1835.4 1252.08 1836.27 1251.63 1837.19 1251.29 1838.1 1250.96 1839.02 1250.79 1839.96 1250.79ZM1820.65 1250.79C1822.1 1250.79 1823.45 1250.87 1824.69 1251.03 1825.93 1251.19 1827.21 1251.43 1828.54 1251.77L1826.88 1259.07 1823.36 1259.07C1823.34 1258.04 1823.27 1257.18 1823.14 1256.49 1823.01 1255.81 1822.8 1255.27 1822.51 1254.87 1822.22 1254.47 1821.85 1254.19 1821.38 1254.02 1820.91 1253.85 1820.34 1253.76 1819.67 1253.74 1818.6 1253.74 1817.57 1253.98 1816.58 1254.45 1815.6 1254.93 1814.69 1255.59 1813.84 1256.43 1813 1257.28 1812.23 1258.26 1811.54 1259.4 1810.84 1260.53 1810.25 1261.75 1809.75 1263.06 1809.25 1264.37 1808.87 1265.74 1808.6 1267.16 1808.33 1268.58 1808.2 1269.99 1808.2 1271.4 1808.2 1273.5 1808.62 1275.11 1809.45 1276.21 1810.29 1277.31 1811.54 1277.86 1813.2 1277.86 1814.14 1277.86 1815 1277.78 1815.8 1277.61 1816.59 1277.44 1817.36 1277.16 1818.12 1276.76 1818.87 1276.36 1819.65 1275.84 1820.46 1275.2 1821.26 1274.55 1822.15 1273.75 1823.12 1272.8 1823.5 1273.2 1823.86 1273.59 1824.21 1273.98 1824.56 1274.36 1824.92 1274.76 1825.3 1275.15 1823.15 1277.38 1821.01 1279.03 1818.86 1280.11 1816.72 1281.19 1814.42 1281.74 1811.95 1281.74 1808.88 1281.74 1806.52 1280.84 1804.88 1279.04 1803.24 1277.24 1802.42 1274.68 1802.42 1271.34 1802.42 1269.47 1802.63 1267.67 1803.05 1265.93 1803.46 1264.2 1804.07 1262.56 1804.85 1261.03 1805.63 1259.51 1806.57 1258.12 1807.66 1256.86 1808.76 1255.61 1809.98 1254.54 1811.33 1253.63 1812.68 1252.73 1814.14 1252.03 1815.71 1251.53 1817.28 1251.04 1818.92 1250.79 1820.65 1250.79Z" fill-rule="evenodd"/><text fill="#000000" fill-opacity="0" font-family="Arial,Arial_MSFontService,sans-serif" font-size="30.9468" x="1802.42" y="1277.87">𝑐𝑣</text><path d="M1783.97 1327.16C1782.94 1327.16 1781.96 1327.35 1781.03 1327.71 1780.1 1328.08 1779.12 1328.7 1778.11 1329.58 1777.1 1330.45 1776.13 1331.64 1775.21 1333.12 1774.29 1334.61 1773.47 1336.36 1772.74 1338.37 1772.01 1340.38 1771.31 1342.96 1770.63 1346.09L1769.21 1352.62C1769.16 1352.91 1769.1 1353.34 1769.03 1353.89 1768.96 1354.45 1768.93 1354.95 1768.93 1355.41 1768.93 1357.14 1769.64 1358.47 1771.06 1359.4 1772.48 1360.34 1774.36 1360.8 1776.71 1360.8 1779.49 1360.8 1781.96 1359.67 1784.11 1357.42 1786.26 1355.16 1787.92 1352.05 1789.11 1348.1 1790.3 1344.14 1790.9 1340.2 1790.9 1336.28 1790.9 1334.53 1790.71 1332.99 1790.35 1331.68 1789.98 1330.37 1789.29 1329.29 1788.26 1328.44 1787.23 1327.59 1785.8 1327.16 1783.97 1327.16ZM1785.02 1323.96C1787.64 1323.96 1789.95 1324.5 1791.95 1325.56 1793.95 1326.63 1795.46 1328.18 1796.49 1330.2 1797.52 1332.23 1798.03 1334.72 1798.03 1337.66 1798.03 1342.25 1797.13 1346.61 1795.33 1350.73 1793.54 1354.85 1791.04 1358.09 1787.84 1360.46 1784.63 1362.82 1781.05 1364 1777.08 1364 1775.24 1364 1773.5 1363.84 1771.85 1363.52 1770.2 1363.19 1768.55 1362.64 1766.9 1361.86L1762.69 1380.86 1756.04 1380.86 1764.27 1344.19C1765.24 1339.86 1766.63 1336.24 1768.44 1333.32 1770.25 1330.41 1772.55 1328.12 1775.33 1326.46 1778.12 1324.79 1781.35 1323.96 1785.02 1323.96Z" fill-rule="evenodd"/><text fill="#000000" fill-opacity="0" font-family="Arial,Arial_MSFontService,sans-serif" font-size="56.9004" x="1756.04" y="1373.75">𝜌</text><path d="M1854.65 1349.79C1856.1 1349.79 1857.45 1349.87 1858.69 1350.03 1859.93 1350.19 1861.21 1350.43 1862.54 1350.77L1860.88 1358.07 1857.36 1358.07C1857.34 1357.04 1857.27 1356.18 1857.14 1355.49 1857.01 1354.81 1856.8 1354.27 1856.51 1353.87 1856.22 1353.47 1855.85 1353.19 1855.38 1353.02 1854.91 1352.85 1854.34 1352.76 1853.67 1352.74 1852.6 1352.74 1851.57 1352.98 1850.58 1353.45 1849.6 1353.93 1848.69 1354.59 1847.84 1355.43 1847 1356.28 1846.23 1357.26 1845.54 1358.4 1844.84 1359.53 1844.25 1360.75 1843.75 1362.06 1843.25 1363.37 1842.87 1364.74 1842.6 1366.16 1842.33 1367.58 1842.2 1368.99 1842.2 1370.4 1842.2 1372.5 1842.62 1374.11 1843.45 1375.21 1844.29 1376.31 1845.54 1376.86 1847.2 1376.86 1848.14 1376.86 1849 1376.78 1849.8 1376.61 1850.59 1376.44 1851.36 1376.16 1852.12 1375.76 1852.87 1375.36 1853.65 1374.84 1854.46 1374.2 1855.26 1373.55 1856.15 1372.75 1857.12 1371.8 1857.5 1372.2 1857.86 1372.59 1858.21 1372.98 1858.56 1373.36 1858.92 1373.76 1859.3 1374.15 1857.15 1376.38 1855.01 1378.03 1852.86 1379.11 1850.72 1380.19 1848.42 1380.74 1845.95 1380.74 1842.88 1380.74 1840.52 1379.84 1838.88 1378.04 1837.24 1376.24 1836.42 1373.68 1836.42 1370.34 1836.42 1368.47 1836.63 1366.67 1837.05 1364.93 1837.46 1363.2 1838.07 1361.56 1838.85 1360.03 1839.63 1358.51 1840.57 1357.12 1841.66 1355.86 1842.76 1354.61 1843.98 1353.54 1845.33 1352.63 1846.68 1351.73 1848.14 1351.03 1849.71 1350.53 1851.28 1350.04 1852.92 1349.79 1854.65 1349.79ZM1809.96 1349.79C1810.81 1349.79 1811.5 1349.96 1812.03 1350.29 1812.55 1350.63 1812.97 1351.07 1813.28 1351.62 1813.59 1352.17 1813.8 1352.77 1813.9 1353.42 1814.01 1354.08 1814.07 1354.72 1814.07 1355.36 1814.07 1355.74 1814.03 1356.24 1813.95 1356.88L1812.07 1367.66C1811.89 1368.69 1811.74 1369.7 1811.63 1370.7 1811.51 1371.69 1811.45 1372.56 1811.45 1373.32 1811.45 1374.07 1811.5 1374.69 1811.6 1375.17 1811.7 1375.64 1811.79 1375.88 1811.89 1375.88 1812.53 1375.88 1813.34 1375.63 1814.34 1375.12 1815.33 1374.61 1816.38 1373.92 1817.48 1373.04 1818.58 1372.15 1819.68 1371.1 1820.78 1369.89 1821.89 1368.68 1822.87 1367.37 1823.75 1365.95 1824.62 1364.53 1825.33 1363.04 1825.88 1361.48 1826.42 1359.92 1826.7 1358.35 1826.7 1356.76 1826.7 1355.82 1826.52 1355.15 1826.18 1354.73 1825.83 1354.32 1825.36 1354.11 1824.76 1354.11 1824.13 1354.11 1823.45 1354.41 1822.74 1355.02 1822.02 1355.62 1821.28 1356.41 1820.5 1357.38L1818.74 1355.63C1819.22 1354.85 1819.79 1354.11 1820.44 1353.41 1821.1 1352.7 1821.79 1352.08 1822.53 1351.55 1823.26 1351.01 1824.02 1350.58 1824.81 1350.27 1825.59 1349.95 1826.36 1349.79 1827.11 1349.79 1828.68 1349.79 1829.81 1350.28 1830.51 1351.26 1831.2 1352.25 1831.55 1353.56 1831.55 1355.21 1831.55 1356.16 1831.38 1357.25 1831.03 1358.49 1830.68 1359.72 1830.19 1361.02 1829.56 1362.39 1828.92 1363.76 1828.17 1365.16 1827.29 1366.6 1826.42 1368.04 1825.45 1369.44 1824.39 1370.8 1823.33 1372.16 1822.19 1373.44 1820.99 1374.64 1819.79 1375.85 1818.54 1376.89 1817.24 1377.79 1815.94 1378.68 1814.62 1379.39 1813.28 1379.92 1811.94 1380.44 1810.6 1380.71 1809.27 1380.71 1808.56 1380.71 1807.96 1380.56 1807.49 1380.27 1807.01 1379.99 1806.64 1379.58 1806.38 1379.05 1806.13 1378.53 1805.95 1377.91 1805.85 1377.19 1805.75 1376.48 1805.7 1375.69 1805.7 1374.84 1805.7 1373.71 1805.77 1372.49 1805.91 1371.2 1806.05 1369.91 1806.22 1368.61 1806.44 1367.3 1807.5 1360.93 1808.02 1357.22 1808.02 1356.19 1808.06 1355.46 1807.98 1354.96 1807.77 1354.69 1807.56 1354.42 1807.27 1354.29 1806.89 1354.29 1806.49 1354.29 1806.07 1354.4 1805.62 1354.61 1805.18 1354.83 1804.73 1355.11 1804.27 1355.45 1803.81 1355.79 1803.37 1356.15 1802.94 1356.53 1802.52 1356.92 1802.11 1357.28 1801.74 1357.62L1800.1 1355.63C1800.75 1354.93 1801.45 1354.24 1802.2 1353.54 1802.94 1352.85 1803.73 1352.22 1804.57 1351.65 1805.4 1351.08 1806.27 1350.63 1807.19 1350.29 1808.1 1349.96 1809.02 1349.79 1809.96 1349.79Z" fill-rule="evenodd"/><text fill="#000000" fill-opacity="0" font-family="Arial,Arial_MSFontService,sans-serif" font-size="30.9468" x="1800.1" y="1376.87">𝑣𝑐</text></g></svg>