<svg width="1652" height="1039" xmlns="http://www.w3.org/2000/svg" xmlns:xlink="http://www.w3.org/1999/xlink" xml:space="preserve" overflow="hidden"><g transform="translate(-209 -176)"><path d="M1222.5 437 1351.25 179.5 1726.75 179.5 1855.5 437 1726.75 694.5 1351.25 694.5Z" stroke="#4EA72E" stroke-width="6.875" stroke-miterlimit="8" fill="none" fill-rule="evenodd"/><path d="M718.5 695.5 847.5 437.5 1221.5 437.5 1350.5 695.5 1221.5 953.5 847.5 953.5Z" stroke="#4EA72E" stroke-width="6.875" stroke-miterlimit="8" fill="none" fill-rule="evenodd"/><path d="M213.5 439 342.25 181.5 717.751 181.5 846.5 439 717.751 696.5 342.25 696.5Z" stroke="#4EA72E" stroke-width="6.875" stroke-miterlimit="8" fill="none" fill-rule="evenodd"/><path d="M214.5 954 343.25 696.5 718.75 696.5 847.5 954 718.75 1211.5 343.25 1211.5Z" stroke="#4EA72E" stroke-width="6.875" stroke-miterlimit="8" fill="none" fill-rule="evenodd"/><path d="M1223.5 953.5 1352.5 695.5 1727.5 695.5 1856.5 953.5 1727.5 1211.5 1352.5 1211.5Z" stroke="#4EA72E" stroke-width="6.875" stroke-miterlimit="8" fill="none" fill-rule="evenodd"/><path d="M1028.5 693.062 1185.24 693.063 1185.24 699.938 1028.5 699.937ZM1180.65 682.75 1208.15 696.5 1180.65 710.25Z" fill="#156082"/><path d="M3.4375-9.25143e-06 3.4378 111.178-3.4372 111.178-3.4375 9.25143e-06ZM13.7503 106.595 0.000360892 134.095-13.7497 106.595Z" fill="#156082" transform="matrix(1 0 0 -1 1028.5 696.594)"/><text font-family="Aptos,Aptos_MSFontService,sans-serif" font-weight="400" font-size="37" transform="matrix(1 0 0 1 968.003 747)">Γ</text><path d="M1057.54 718.857C1061.06 719.785 1063.76 721.787 1065.65 724.864 1067.53 727.942 1068.47 731.654 1068.47 736.002 1068.47 740.362 1067.53 744.075 1065.66 747.14 1063.78 750.206 1061.07 752.202 1057.54 753.129L1057.11 751.738C1059.89 750.811 1061.96 748.98 1063.32 746.246 1064.67 743.512 1065.35 740.037 1065.35 735.822 1065.35 731.751 1064.67 728.369 1063.33 725.677 1061.98 722.985 1059.89 721.176 1057.06 720.248ZM999.372 718.857 999.86 720.248C997.042 721.176 994.955 722.985 993.6 725.677 992.245 728.369 991.568 731.751 991.568 735.822 991.568 740.037 992.245 743.512 993.6 746.246 994.955 748.98 997.024 750.811 999.806 751.738L999.372 753.129C995.843 752.202 993.14 750.206 991.261 747.14 989.382 744.075 988.442 740.362 988.442 736.002 988.442 731.654 989.385 727.942 991.27 724.864 993.155 721.787 995.856 719.785 999.372 718.857Z" fill-rule="evenodd"/><text font-family="Cambria Math,Cambria Math_MSFontService,sans-serif" font-weight="400" font-size="37" transform="matrix(1 0 0 1 1000.41 747)">0</text><text font-family="Cambria Math,Cambria Math_MSFontService,sans-serif" font-weight="400" font-size="37" transform="matrix(1 0 0 1 1020.46 747)">;</text><text font-family="Cambria Math,Cambria Math_MSFontService,sans-serif" font-weight="400" font-size="37" transform="matrix(1 0 0 1 1036.32 747)">0</text><path d="M1017 696C1017 690.477 1021.7 686 1027.5 686 1033.3 686 1038 690.477 1038 696 1038 701.523 1033.3 706 1027.5 706 1021.7 706 1017 701.523 1017 696Z" fill-rule="evenodd"/><path d="M1530 696.5C1530 691.253 1534.7 687 1540.5 687 1546.3 687 1551 691.253 1551 696.5 1551 701.747 1546.3 706 1540.5 706 1534.7 706 1530 701.747 1530 696.5Z" fill-rule="evenodd"/><path d="M1025 954C1025 948.477 1029.48 944 1035 944 1040.52 944 1045 948.477 1045 954 1045 959.523 1040.52 964 1035 964 1029.48 964 1025 959.523 1025 954Z" fill-rule="evenodd"/><path d="M514 697C514 691.477 518.701 687 524.5 687 530.299 687 535 691.477 535 697 535 702.523 530.299 707 524.5 707 518.701 707 514 702.523 514 697Z" fill-rule="evenodd"/><path d="M707 695.5C707 690.253 711.701 686 717.5 686 723.299 686 728 690.253 728 695.5 728 700.747 723.299 705 717.5 705 711.701 705 707 700.747 707 695.5Z" fill-rule="evenodd"/><path d="M1338 696C1338 690.477 1342.48 686 1348 686 1353.52 686 1358 690.477 1358 696 1358 701.523 1353.52 706 1348 706 1342.48 706 1338 701.523 1338 696Z" fill-rule="evenodd"/><path d="M835 953.5C835 948.253 839.477 944 845 944 850.523 944 855 948.253 855 953.5 855 958.747 850.523 963 845 963 839.477 963 835 958.747 835 953.5Z" fill-rule="evenodd"/><path d="M1211 953C1211 947.477 1215.7 943 1221.5 943 1227.3 943 1232 947.477 1232 953 1232 958.523 1227.3 963 1221.5 963 1215.7 963 1211 958.523 1211 953Z" fill-rule="evenodd"/><path d="M1211 436C1211 430.477 1215.48 426 1221 426 1226.52 426 1231 430.477 1231 436 1231 441.523 1226.52 446 1221 446 1215.48 446 1211 441.523 1211 436Z" fill-rule="evenodd"/><path d="M834 438.5C834 433.253 838.477 429 844 429 849.523 429 854 433.253 854 438.5 854 443.747 849.523 448 844 448 838.477 448 834 443.747 834 438.5Z" fill-rule="evenodd"/><path d="M1024 437C1024 431.477 1028.48 427 1034 427 1039.52 427 1044 431.477 1044 437 1044 442.523 1039.52 447 1034 447 1028.48 447 1024 442.523 1024 437Z" fill-rule="evenodd"/><path d="M525.5 696.5 1034 438.5 1542.5 696.5 1034 954.5Z" stroke="#000000" stroke-width="6.875" stroke-miterlimit="8" fill="none" fill-rule="evenodd"/><text font-family="Arial,Arial_MSFontService,sans-serif" font-weight="400" font-size="83" transform="matrix(1 0 0 1 1252.86 700)">K</text><text font-family="Arial,Arial_MSFontService,sans-serif" font-weight="400" font-size="83" transform="matrix(1 0 0 1 743.427 715)">K’</text><text font-family="Arial,Arial_MSFontService,sans-serif" font-weight="400" font-size="83" transform="matrix(1 0 0 1 758.877 471)">K</text><text font-family="Arial,Arial_MSFontService,sans-serif" font-weight="400" font-size="83" transform="matrix(1 0 0 1 766.963 981)">K</text><text font-family="Arial,Arial_MSFontService,sans-serif" font-weight="400" font-size="83" transform="matrix(1 0 0 1 1248.45 474)">K’</text><text font-family="Arial,Arial_MSFontService,sans-serif" font-weight="400" font-size="83" transform="matrix(1 0 0 1 1249.45 975)">K’</text><path d="M1193.58 743.55 1195.46 743.55 1195.46 770.862 1196.46 770.862C1197.14 770.862 1197.71 770.789 1198.14 770.643 1198.66 770.456 1199.24 770.138 1199.86 769.69 1200.49 769.242 1201.37 768.487 1202.52 767.425 1203.48 766.529 1204.2 765.768 1204.69 765.143 1205.18 764.518 1205.52 763.946 1205.71 763.425 1205.87 762.987 1205.96 762.55 1205.96 762.112 1205.96 761.487 1205.76 760.998 1205.38 760.643 1204.99 760.289 1204.36 760.05 1203.49 759.925L1203.49 758.393 1216.96 758.393 1216.96 759.925C1216 760.112 1214.98 760.539 1213.89 761.206 1212.81 761.873 1211.7 762.748 1210.55 763.831L1203.36 770.643 1212.36 782.393C1213.4 783.768 1214.35 784.784 1215.19 785.44 1216.03 786.097 1216.96 786.529 1217.96 786.737L1217.96 788.268 1205.96 788.268 1205.96 786.737C1206.5 786.675 1206.9 786.555 1207.16 786.378 1207.42 786.201 1207.55 785.904 1207.55 785.487 1207.55 785.175 1207.49 784.867 1207.38 784.565 1207.26 784.263 1207.03 783.852 1206.67 783.331 1206.32 782.81 1205.67 781.904 1204.74 780.612L1201.02 775.612C1200.31 774.675 1199.8 774.06 1199.5 773.768 1199.2 773.477 1198.88 773.268 1198.55 773.143 1198.22 773.018 1197.77 772.956 1197.21 772.956L1195.46 772.956 1195.46 780.456C1195.46 782.248 1195.54 783.492 1195.71 784.19 1195.87 784.888 1196.19 785.42 1196.66 785.784 1197.13 786.149 1197.89 786.466 1198.96 786.737L1198.96 788.268 1186.55 788.268 1186.55 786.737C1187.59 786.466 1188.32 786.185 1188.72 785.893 1189.13 785.602 1189.42 785.253 1189.6 784.847 1189.77 784.44 1189.9 783.888 1189.97 783.19 1190.04 782.492 1190.08 781.581 1190.08 780.456L1190.08 754.3C1190.08 752.3 1190.07 750.904 1190.03 750.112 1190 749.321 1189.92 748.649 1189.78 748.097 1189.65 747.545 1189.46 747.112 1189.22 746.8 1188.98 746.487 1188.66 746.237 1188.25 746.05 1187.85 745.862 1187.11 745.675 1186.05 745.487L1186.05 743.862Z" fill-rule="evenodd"/><text fill="#000000" fill-opacity="0" font-family="Arial,Arial_MSFontService,sans-serif" font-size="44.7188" x="1186.05" y="782.679">k</text><path d="M1221.8 778.405 1231.88 778.405 1231.88 779.873C1231.14 779.965 1230.62 780.122 1230.31 780.344 1229.99 780.566 1229.84 780.83 1229.84 781.136 1229.84 781.442 1229.92 781.755 1230.08 782.077 1230.24 782.398 1230.49 782.78 1230.85 783.224L1233.88 787.332 1237.13 783.385C1237.49 782.987 1237.76 782.616 1237.95 782.272 1238.14 781.927 1238.24 781.533 1238.24 781.09 1238.24 780.814 1238.09 780.566 1237.79 780.344 1237.49 780.122 1237.03 779.965 1236.42 779.873L1236.42 778.405 1244.84 778.405 1244.84 779.873C1244.1 780.057 1243.38 780.424 1242.7 780.975 1242.02 781.526 1241.27 782.276 1240.46 783.224L1235.41 789.283 1240.99 796.42C1241.42 796.986 1241.82 797.472 1242.19 797.877 1242.57 798.283 1242.92 798.623 1243.25 798.898 1243.58 799.174 1243.9 799.388 1244.2 799.541 1244.51 799.694 1244.81 799.809 1245.12 799.885L1245.12 801.354 1234.91 801.354 1234.91 799.816C1235.58 799.74 1236.07 799.587 1236.39 799.357 1236.7 799.128 1236.86 798.86 1236.86 798.554 1236.86 798.294 1236.81 798.026 1236.72 797.751 1236.63 797.476 1236.44 797.139 1236.15 796.741L1232.61 791.991 1228.78 796.695C1228.49 797.047 1228.28 797.361 1228.16 797.636 1228.04 797.912 1227.98 798.202 1227.98 798.508 1227.98 798.799 1228.13 799.07 1228.45 799.323 1228.76 799.575 1229.25 799.74 1229.93 799.816L1229.93 801.354 1221.32 801.354 1221.32 799.885C1221.75 799.732 1222.13 799.575 1222.47 799.415 1222.81 799.254 1223.15 799.04 1223.49 798.772 1223.83 798.504 1224.21 798.164 1224.6 797.751 1225 797.338 1225.48 796.802 1226.03 796.144L1231.08 790.109 1225.89 783.293C1225.41 782.666 1225 782.145 1224.65 781.732 1224.3 781.319 1223.97 780.983 1223.67 780.723 1223.38 780.463 1223.08 780.271 1222.78 780.149 1222.48 780.026 1222.16 779.935 1221.8 779.873Z" fill-rule="evenodd"/><text fill="#000000" fill-opacity="0" font-family="Arial,Arial_MSFontService,sans-serif" font-size="22.9492" x="1221.32" y="798.485">x</text><path d="M957.224 543.307 959.099 543.307 959.099 570.619 960.099 570.619C960.787 570.619 961.349 570.546 961.787 570.4 962.307 570.213 962.88 569.895 963.505 569.447 964.13 568.999 965.016 568.244 966.162 567.182 967.12 566.286 967.844 565.525 968.333 564.9 968.823 564.275 969.162 563.702 969.349 563.182 969.516 562.744 969.599 562.307 969.599 561.869 969.599 561.244 969.406 560.755 969.021 560.4 968.636 560.046 968.005 559.807 967.13 559.682L967.13 558.15 980.599 558.15 980.599 559.682C979.641 559.869 978.62 560.296 977.537 560.963 976.453 561.63 975.339 562.505 974.193 563.588L967.005 570.4 976.005 582.15C977.047 583.525 977.99 584.541 978.833 585.197 979.677 585.854 980.599 586.286 981.599 586.494L981.599 588.025 969.599 588.025 969.599 586.494C970.141 586.432 970.542 586.312 970.802 586.135 971.063 585.958 971.193 585.661 971.193 585.244 971.193 584.932 971.136 584.624 971.021 584.322 970.906 584.02 970.672 583.609 970.318 583.088 969.964 582.567 969.318 581.661 968.38 580.369L964.662 575.369C963.953 574.432 963.448 573.817 963.146 573.525 962.844 573.234 962.526 573.025 962.193 572.9 961.86 572.775 961.412 572.713 960.849 572.713L959.099 572.713 959.099 580.213C959.099 582.005 959.182 583.249 959.349 583.947 959.516 584.645 959.833 585.176 960.302 585.541 960.771 585.906 961.537 586.223 962.599 586.494L962.599 588.025 950.193 588.025 950.193 586.494C951.235 586.223 951.958 585.942 952.365 585.65 952.771 585.359 953.063 585.01 953.24 584.604 953.417 584.197 953.542 583.645 953.615 582.947 953.688 582.249 953.724 581.338 953.724 580.213L953.724 554.057C953.724 552.057 953.708 550.661 953.677 549.869 953.646 549.077 953.563 548.406 953.427 547.854 953.292 547.301 953.104 546.869 952.865 546.557 952.625 546.244 952.302 545.994 951.896 545.807 951.49 545.619 950.755 545.432 949.693 545.244L949.693 543.619Z" fill-rule="evenodd"/><text fill="#000000" fill-opacity="0" font-family="Arial,Arial_MSFontService,sans-serif" font-size="44.7188" x="949.693" y="582.436">k</text><path d="M985.011 578.162 995.476 578.162 995.476 579.63C994.497 579.814 993.816 580.043 993.433 580.319 993.051 580.594 992.86 581 992.86 581.535 992.86 581.918 992.917 582.331 993.032 582.774 993.146 583.218 993.311 583.738 993.525 584.335L997.885 596.223 1002.87 584.886C1003.13 584.243 1003.34 583.689 1003.52 583.222 1003.7 582.755 1003.78 582.285 1003.78 581.811 1003.78 581.183 1003.57 580.698 1003.15 580.353 1002.73 580.009 1002.03 579.768 1001.05 579.63L1001.05 578.162 1010.6 578.162 1010.6 579.63C1010.11 579.737 1009.7 579.856 1009.38 579.986 1009.06 580.116 1008.76 580.319 1008.49 580.594 1008.21 580.87 1007.94 581.248 1007.67 581.73 1007.41 582.212 1007.09 582.851 1006.72 583.646L997.885 602.694C997.182 604.178 996.493 605.452 995.82 606.515 995.147 607.579 994.439 608.455 993.697 609.143 992.955 609.832 992.152 610.34 991.288 610.669 990.423 610.998 989.455 611.163 988.384 611.163 987.88 611.163 987.363 611.132 986.835 611.071 986.308 611.01 985.745 610.918 985.149 610.795L985.149 605.77 987.604 605.77C987.788 606.412 988.04 606.875 988.362 607.158 988.683 607.441 989.104 607.583 989.624 607.583 990.113 607.583 990.553 607.506 990.943 607.353 991.333 607.2 991.739 606.894 992.16 606.435 992.58 605.976 993.043 605.33 993.548 604.496 994.053 603.662 994.657 602.564 995.361 601.203L988.545 583.509C988.27 582.79 988.025 582.212 987.811 581.776 987.597 581.34 987.371 580.988 987.134 580.72 986.897 580.453 986.614 580.242 986.285 580.089 985.956 579.936 985.531 579.783 985.011 579.63Z" fill-rule="evenodd"/><text fill="#000000" fill-opacity="0" font-family="Arial,Arial_MSFontService,sans-serif" font-size="33.001" x="985.011" y="607.037">y</text><path d="M947.413 356.484 953.863 356.484 960.204 374.063 967.178 356.484 973.284 356.484 973.284 357.37C972.754 357.502 972.372 357.635 972.137 357.767 971.902 357.9 971.715 358.065 971.577 358.264 971.438 358.463 971.336 358.761 971.27 359.158 971.203 359.556 971.17 360.17 971.17 361.001L971.17 376.629C971.17 377.435 971.197 378.026 971.252 378.399 971.306 378.772 971.396 379.067 971.523 379.284 971.649 379.501 971.836 379.682 972.083 379.826 972.33 379.971 972.73 380.115 973.284 380.26L973.284 381.145 965.75 381.145 965.75 380.26C966.437 380.091 966.913 379.899 967.178 379.682 967.443 379.465 967.623 379.146 967.72 378.724 967.816 378.303 967.864 377.604 967.864 376.629L967.864 369.709C967.864 367.89 967.891 366.051 967.945 364.19 968 362.329 968.063 361.055 968.135 360.369L967.828 360.369 960.674 378.273 958.596 378.273 951.948 360.08 951.641 360.08C951.701 360.814 951.758 362.145 951.812 364.072 951.866 365.999 951.893 367.981 951.893 370.016L951.893 376.629C951.893 377.435 951.921 378.026 951.975 378.399 952.029 378.772 952.119 379.067 952.246 379.284 952.372 379.501 952.559 379.682 952.806 379.826 953.053 379.971 953.453 380.115 954.007 380.26L954.007 381.145 947.413 381.145 947.413 380.26C948.16 380.067 948.66 379.853 948.913 379.618 949.165 379.384 949.331 379.049 949.409 378.616 949.488 378.182 949.527 377.52 949.527 376.629L949.527 361.001C949.527 360.17 949.497 359.565 949.436 359.185 949.376 358.806 949.277 358.511 949.138 358.3 949 358.089 948.816 357.921 948.587 357.794 948.359 357.668 947.967 357.526 947.413 357.37Z" fill-rule="evenodd"/><text fill="#000000" fill-opacity="0" font-family="Arial,Arial_MSFontService,sans-serif" font-size="24.6606" x="947.413" y="378.063">M</text><path d="M1103.56 323.41C1108.51 327.649 1112.44 333.973 1115.35 342.379 1118.26 350.786 1119.72 360.169 1119.72 370.527 1119.72 380.728 1118.26 390.096 1115.35 398.629 1112.44 407.163 1108.51 413.537 1103.56 417.753L1102.71 416.416C1106.99 412.068 1110.28 405.774 1112.6 397.536 1114.91 389.298 1116.07 380.301 1116.07 370.545 1116.07 360.56 1114.9 351.521 1112.58 343.427 1110.25 335.334 1106.97 329.113 1102.71 324.765ZM1000.4 323.41 1001.25 324.765C996.982 329.113 993.691 335.334 991.372 343.427 989.053 351.521 987.894 360.56 987.894 370.545 987.894 380.301 989.05 389.298 991.363 397.536 993.675 405.774 996.97 412.068 1001.25 416.416L1000.4 417.753C995.446 413.537 991.517 407.163 988.608 398.629 985.699 390.096 984.245 380.728 984.245 370.527 984.245 360.169 985.699 350.786 988.608 342.379 991.517 333.973 995.446 327.649 1000.4 323.41Z" fill-rule="evenodd"/><path d="M1012.49 357.731C1011.66 357.731 1010.96 357.978 1010.4 358.472 1009.84 358.966 1009.39 359.676 1009.05 360.604 1008.71 361.531 1008.46 362.66 1008.32 363.991 1008.17 365.322 1008.1 366.824 1008.1 368.499 1008.1 372.425 1008.47 375.307 1009.19 377.143 1009.92 378.98 1011.05 379.899 1012.58 379.899 1014.04 379.899 1015.12 379.034 1015.82 377.306 1016.53 375.578 1016.88 372.901 1016.88 369.275 1016.88 366.505 1016.7 364.262 1016.34 362.546 1015.98 360.829 1015.47 359.598 1014.83 358.851 1014.19 358.104 1013.41 357.731 1012.49 357.731ZM1012.58 356.195C1015.22 356.195 1017.18 357.213 1018.47 359.249 1019.76 361.284 1020.4 364.361 1020.4 368.481 1020.4 372.744 1019.71 375.969 1018.34 378.155 1016.96 380.341 1014.94 381.434 1012.29 381.434 1009.69 381.434 1007.75 380.41 1006.48 378.363 1005.21 376.315 1004.58 373.208 1004.58 369.041 1004.58 366.824 1004.77 364.909 1005.16 363.296 1005.56 361.682 1006.1 360.348 1006.81 359.294 1007.51 358.24 1008.36 357.46 1009.35 356.954 1010.33 356.448 1011.41 356.195 1012.58 356.195Z" fill-rule="evenodd"/><text fill="#000000" fill-opacity="0" font-family="Arial,Arial_MSFontService,sans-serif" font-size="25.2388" x="1004.58" y="378.279">0</text><path d="M1024.72 376.954 1027.88 376.954C1028.05 377.797 1028.13 378.628 1028.13 379.447 1028.13 380.29 1027.99 381.061 1027.7 381.759 1027.41 382.458 1026.95 383.154 1026.32 383.846 1025.69 384.539 1024.82 385.3 1023.71 386.131L1022.73 385.029C1023.35 384.451 1023.79 383.93 1024.07 383.467 1024.35 383.003 1024.55 382.476 1024.67 381.886 1024.79 381.296 1024.85 380.555 1024.85 379.664 1024.85 378.748 1024.8 377.845 1024.72 376.954Z" fill-rule="evenodd"/><text fill="#000000" fill-opacity="0" font-family="Arial,Arial_MSFontService,sans-serif" font-size="9.17773" x="1022.73" y="384.984">,</text><path d="M1074.22 336.122 1089.05 336.122 1088.53 338.506 1084.23 338.506 1082.19 347.558C1081.92 348.738 1081.79 349.629 1081.79 350.231 1081.79 350.713 1081.87 351.062 1082.03 351.279 1082.18 351.496 1082.43 351.604 1082.77 351.604 1083.49 351.604 1084.34 351.026 1085.31 349.87L1086.36 350.846C1085.45 351.845 1084.61 352.568 1083.86 353.014 1083.11 353.459 1082.3 353.682 1081.45 353.682 1080.63 353.682 1079.99 353.402 1079.52 352.842 1079.05 352.282 1078.81 351.544 1078.81 350.629 1078.81 349.822 1078.98 348.654 1079.32 347.124L1079.71 345.299C1079.92 344.336 1080.21 343.173 1080.59 341.812 1080.97 340.451 1081.3 339.404 1081.58 338.669L1081.48 338.506 1076.17 338.506 1073.95 348.786C1073.77 349.593 1073.56 350.463 1073.32 351.397 1073.08 352.33 1072.89 352.996 1072.76 353.393L1068.93 353.393 1069.11 352.508C1070.39 351.243 1071.57 348.28 1072.65 343.619L1073.84 338.506 1073.26 338.506C1072.41 338.506 1071.69 338.651 1071.1 338.94 1070.51 339.229 1069.86 339.807 1069.16 340.674L1068.03 339.717C1068.65 338.958 1069.16 338.38 1069.56 337.982 1069.96 337.585 1070.38 337.248 1070.82 336.971 1071.26 336.694 1071.75 336.483 1072.3 336.338 1072.85 336.194 1073.49 336.122 1074.22 336.122ZM1057.78 328.443C1060.02 328.443 1061.71 328.934 1062.86 329.916 1064 330.897 1064.57 332.322 1064.57 334.188 1064.57 334.827 1064.51 335.414 1064.38 335.95 1064.26 336.486 1064.06 337.016 1063.79 337.54 1063.52 338.064 1063.15 338.627 1062.7 339.229 1062.24 339.831 1061.73 340.442 1061.18 341.063 1060.62 341.683 1059.67 342.716 1058.31 344.161 1056.02 346.582 1054.34 348.696 1053.26 350.502L1060.08 350.502C1060.67 350.502 1061.14 350.466 1061.5 350.394 1061.86 350.322 1062.15 350.201 1062.37 350.033 1062.59 349.864 1062.76 349.644 1062.89 349.373 1063.01 349.102 1063.17 348.684 1063.36 348.118L1064.9 348.118 1064.59 353.393 1049.72 353.393 1049.72 352.526C1050.24 351.261 1050.94 349.966 1051.82 348.642 1052.7 347.317 1053.95 345.757 1055.56 343.962 1056.96 342.421 1057.96 341.252 1058.58 340.457 1059.25 339.59 1059.75 338.841 1060.08 338.208 1060.42 337.576 1060.65 336.98 1060.8 336.42 1060.94 335.86 1061.02 335.297 1061.02 334.73 1061.02 333.827 1060.87 333.029 1060.58 332.337 1060.29 331.644 1059.85 331.099 1059.25 330.702 1058.66 330.304 1057.91 330.105 1057 330.105 1054.75 330.105 1053.23 331.358 1052.45 333.863L1050.27 333.863 1050.27 330.395C1051.72 329.708 1053.09 329.211 1054.36 328.904 1055.63 328.597 1056.77 328.443 1057.78 328.443Z" fill-rule="evenodd"/><text fill="#000000" fill-opacity="0" font-family="Arial,Arial_MSFontService,sans-serif" font-size="25.2388" x="1049.72" y="350.527">2𝜋</text><path d="M1057.73 378.582 1062.33 378.582 1062.33 379.147 1079.46 379.147 1079.46 381.147 1059.46 381.147 1059.46 380.985 1059.06 380.985 1049.34 414.191 1047.59 414.191 1040.11 398.112 1037.06 399.467 1036.5 398.112 1042.42 395.402 1048.8 409.422Z" fill-rule="evenodd"/><path d="M1070.27 386.193C1071.63 386.193 1072.82 386.404 1073.84 386.826 1074.87 387.247 1075.65 387.852 1076.19 388.641 1076.74 389.43 1077.01 390.373 1077.01 391.469 1077.01 392.492 1076.8 393.393 1076.39 394.17 1075.98 394.947 1075.41 395.624 1074.67 396.202 1073.93 396.78 1072.97 397.346 1071.78 397.9L1071.78 398.063C1072.52 398.195 1073.23 398.421 1073.91 398.74 1074.59 399.06 1075.19 399.472 1075.72 399.978 1076.25 400.484 1076.68 401.089 1077 401.794 1077.32 402.498 1077.48 403.302 1077.48 404.206 1077.48 405.603 1077.17 406.843 1076.56 407.927 1075.96 409.011 1075.02 409.866 1073.77 410.493 1072.52 411.119 1071 411.432 1069.2 411.432 1068.17 411.432 1067.05 411.315 1065.85 411.08 1064.65 410.845 1063.55 410.535 1062.55 410.149L1062.55 406.319 1064.72 406.319C1065.14 407.572 1065.7 408.481 1066.39 409.047 1067.08 409.613 1068.03 409.896 1069.22 409.896 1070.79 409.896 1071.97 409.469 1072.77 408.614 1073.57 407.759 1073.97 406.494 1073.97 404.82 1073.97 403.061 1073.44 401.718 1072.38 400.791 1071.32 399.864 1069.77 399.4 1067.72 399.4L1066.09 399.4 1066.09 397.81C1067.72 397.714 1069.09 397.401 1070.2 396.871 1071.32 396.341 1072.15 395.66 1072.69 394.829 1073.23 393.998 1073.5 393.065 1073.5 392.029 1073.5 390.692 1073.15 389.662 1072.44 388.939 1071.72 388.217 1070.69 387.855 1069.33 387.855 1068.2 387.855 1067.27 388.163 1066.56 388.777 1065.85 389.391 1065.33 390.331 1064.99 391.595L1062.82 391.595 1062.82 388.163C1064.22 387.5 1065.53 387.006 1066.74 386.681 1067.96 386.356 1069.14 386.193 1070.27 386.193Z" fill-rule="evenodd"/><text fill="#000000" fill-opacity="0" font-family="Arial,Arial_MSFontService,sans-serif" font-size="25.2388" x="1062.55" y="408.277">3</text><path d="M1091.58 394.992C1090.34 394.992 1089.23 395.492 1088.24 396.491 1087.25 397.491 1086.48 398.831 1085.93 400.511 1085.38 402.191 1085.1 403.868 1085.1 405.542 1085.1 406.795 1085.27 407.732 1085.61 408.352 1085.96 408.972 1086.53 409.282 1087.34 409.282 1088.13 409.282 1088.91 408.939 1089.68 408.252 1090.44 407.566 1091.23 406.587 1092.04 405.317 1092.86 404.046 1093.43 402.58 1093.77 400.917L1093.93 400.141C1094.04 399.647 1094.11 399.219 1094.15 398.858 1094.19 398.497 1094.2 398.105 1094.2 397.684 1094.2 396.756 1094 396.076 1093.61 395.642 1093.21 395.208 1092.54 394.992 1091.58 394.992ZM1091.22 393.564C1092.01 393.564 1092.74 393.652 1093.42 393.826 1094.1 394.001 1094.8 394.311 1095.52 394.757L1097.18 393.564 1098.34 393.853 1095.69 405.308C1095.42 406.452 1095.29 407.343 1095.29 407.981 1095.29 408.463 1095.37 408.812 1095.52 409.029 1095.68 409.246 1095.93 409.354 1096.26 409.354 1096.62 409.354 1097.01 409.207 1097.42 408.912 1097.83 408.617 1098.41 408.054 1099.15 407.223L1100.18 408.234C1099.1 409.391 1098.18 410.213 1097.41 410.7 1096.65 411.188 1095.82 411.432 1094.93 411.432 1094.18 411.432 1093.58 411.185 1093.14 410.691 1092.69 410.198 1092.47 409.541 1092.47 408.722 1092.47 408.06 1092.61 407.355 1092.88 406.608L1092.65 406.536C1091.49 408.222 1090.4 409.457 1089.36 410.24 1088.33 411.023 1087.23 411.414 1086.07 411.414 1084.75 411.414 1083.72 410.914 1082.99 409.915 1082.26 408.915 1081.9 407.512 1081.9 405.705 1081.9 403.633 1082.31 401.643 1083.12 399.734 1083.93 397.825 1085.05 396.32 1086.47 395.217 1087.89 394.115 1089.48 393.564 1091.22 393.564Z" fill-rule="evenodd"/><text fill="#000000" fill-opacity="0" font-family="Arial,Arial_MSFontService,sans-serif" font-size="17.8677" x="1081.9" y="409.199">𝑎</text><path d="M1035.46 369.147 1101.46 369.147 1101.46 371.147 1035.46 371.147Z" fill-rule="evenodd"/><path d="M412.17 597.603 418.619 597.603 424.961 615.181 431.934 597.603 438.041 597.603 438.041 598.488C437.511 598.621 437.128 598.753 436.893 598.885 436.659 599.018 436.472 599.184 436.333 599.382 436.195 599.581 436.093 599.879 436.026 600.277 435.96 600.674 435.927 601.288 435.927 602.119L435.927 617.747C435.927 618.554 435.954 619.144 436.008 619.517 436.062 619.891 436.153 620.186 436.279 620.403 436.406 620.619 436.592 620.8 436.839 620.945 437.086 621.089 437.487 621.234 438.041 621.378L438.041 622.263 430.507 622.263 430.507 621.378C431.194 621.21 431.669 621.017 431.934 620.8 432.199 620.583 432.38 620.264 432.476 619.843 432.573 619.421 432.621 618.722 432.621 617.747L432.621 610.827C432.621 609.009 432.648 607.169 432.702 605.308 432.756 603.447 432.82 602.174 432.892 601.487L432.585 601.487 425.43 619.391 423.353 619.391 416.704 601.198 416.397 601.198C416.457 601.933 416.515 603.264 416.569 605.191 416.623 607.118 416.65 609.099 416.65 611.135L416.65 617.747C416.65 618.554 416.677 619.144 416.731 619.517 416.786 619.891 416.876 620.186 417.002 620.403 417.129 620.619 417.316 620.8 417.562 620.945 417.809 621.089 418.21 621.234 418.764 621.378L418.764 622.263 412.17 622.263 412.17 621.378C412.916 621.185 413.416 620.972 413.669 620.737 413.922 620.502 414.088 620.168 414.166 619.734 414.244 619.301 414.283 618.638 414.283 617.747L414.283 602.119C414.283 601.288 414.253 600.683 414.193 600.304 414.133 599.924 414.033 599.629 413.895 599.418 413.756 599.208 413.573 599.039 413.344 598.913 413.115 598.786 412.724 598.645 412.17 598.488Z" fill-rule="evenodd"/><text fill="#000000" fill-opacity="0" font-family="Arial,Arial_MSFontService,sans-serif" font-size="24.6606" x="412.17" y="619.181">M</text><path d="M585.004 564.528C589.954 568.768 593.883 575.091 596.792 583.498 599.701 591.905 601.155 601.287 601.155 611.645 601.155 621.847 599.701 631.214 596.792 639.747 593.883 648.281 589.954 654.655 585.004 658.871L584.154 657.534C588.43 653.186 591.724 646.893 594.037 638.654 596.349 630.416 597.505 621.419 597.505 611.663 597.505 601.679 596.343 592.639 594.019 584.546 591.694 576.452 588.406 570.231 584.154 565.883ZM465.153 564.528 466.002 565.883C461.738 570.231 458.447 576.452 456.129 584.546 453.81 592.639 452.651 601.679 452.651 611.663 452.651 621.419 453.807 630.416 456.12 638.654 458.432 646.893 461.726 653.186 466.002 657.534L465.153 658.871C460.203 654.655 456.273 648.281 453.364 639.747 450.456 631.214 449.001 621.847 449.001 611.645 449.001 601.287 450.456 591.905 453.364 583.498 456.273 575.091 460.203 568.768 465.153 564.528Z" fill-rule="evenodd"/><path d="M469.696 610.484 491.953 610.484 491.953 612.887 469.696 612.887Z" fill-rule="evenodd"/><text fill="#000000" fill-opacity="0" font-family="Arial,Arial_MSFontService,sans-serif" font-size="2.40283" x="469.696" y="612.587">−</text><path d="M527.452 577.24 542.284 577.24 541.76 579.625 537.46 579.625 535.419 588.676C535.154 589.856 535.021 590.747 535.021 591.35 535.021 591.831 535.1 592.181 535.256 592.398 535.413 592.614 535.66 592.723 535.997 592.723 536.72 592.723 537.569 592.145 538.544 590.988L539.592 591.964C538.677 592.964 537.843 593.686 537.09 594.132 536.337 594.578 535.533 594.8 534.678 594.8 533.859 594.8 533.215 594.52 532.745 593.96 532.275 593.4 532.04 592.663 532.04 591.747 532.04 590.94 532.209 589.772 532.546 588.242L532.944 586.418C533.149 585.454 533.441 584.292 533.82 582.931 534.199 581.57 534.528 580.522 534.805 579.787L534.714 579.625 529.403 579.625 527.181 589.904C527 590.711 526.789 591.582 526.548 592.515 526.307 593.448 526.121 594.114 525.988 594.511L522.158 594.511 522.339 593.626C523.615 592.361 524.796 589.399 525.88 584.737L527.072 579.625 526.494 579.625C525.639 579.625 524.916 579.769 524.326 580.058 523.736 580.347 523.092 580.925 522.393 581.793L521.255 580.835C521.881 580.076 522.393 579.498 522.79 579.101 523.188 578.703 523.606 578.366 524.046 578.089 524.486 577.812 524.979 577.601 525.528 577.457 526.076 577.312 526.717 577.24 527.452 577.24ZM511.011 569.562C513.251 569.562 514.943 570.052 516.087 571.034 517.232 572.016 517.804 573.44 517.804 575.307 517.804 575.945 517.74 576.532 517.614 577.068 517.487 577.604 517.289 578.134 517.018 578.658 516.747 579.182 516.382 579.745 515.925 580.347 515.467 580.95 514.961 581.561 514.407 582.181 513.853 582.801 512.896 583.834 511.535 585.279 509.246 587.7 507.566 589.814 506.494 591.621L513.305 591.621C513.895 591.621 514.371 591.585 514.732 591.512 515.094 591.44 515.383 591.32 515.6 591.151 515.816 590.982 515.988 590.763 516.114 590.492 516.241 590.221 516.401 589.802 516.593 589.236L518.129 589.236 517.822 594.511 502.953 594.511 502.953 593.644C503.471 592.38 504.17 591.085 505.049 589.76 505.928 588.435 507.175 586.875 508.789 585.081 510.186 583.539 511.191 582.371 511.806 581.576 512.48 580.709 512.983 579.959 513.314 579.327 513.645 578.694 513.883 578.098 514.028 577.538 514.172 576.978 514.245 576.415 514.245 575.849 514.245 574.945 514.1 574.148 513.811 573.455 513.522 572.762 513.079 572.217 512.483 571.82 511.887 571.422 511.137 571.224 510.234 571.224 507.982 571.224 506.464 572.476 505.681 574.982L503.495 574.982 503.495 571.513C504.952 570.826 506.316 570.329 507.587 570.022 508.858 569.715 509.999 569.562 511.011 569.562Z" fill-rule="evenodd"/><text fill="#000000" fill-opacity="0" font-family="Arial,Arial_MSFontService,sans-serif" font-size="25.2388" x="502.953" y="591.646">2𝜋</text><path d="M522.745 630.633C521.504 630.633 520.39 631.133 519.402 632.132 518.415 633.132 517.644 634.472 517.09 636.152 516.536 637.832 516.259 639.51 516.259 641.184 516.259 642.436 516.431 643.373 516.774 643.993 517.117 644.613 517.692 644.923 518.499 644.923 519.294 644.923 520.074 644.58 520.839 643.894 521.604 643.207 522.392 642.229 523.205 640.958 524.018 639.687 524.594 638.221 524.931 636.559L525.093 635.782C525.202 635.288 525.274 634.86 525.31 634.499 525.346 634.138 525.364 633.746 525.364 633.325 525.364 632.397 525.166 631.717 524.768 631.283 524.371 630.85 523.696 630.633 522.745 630.633ZM522.383 629.206C523.166 629.206 523.898 629.293 524.578 629.468 525.259 629.642 525.961 629.952 526.683 630.398L528.345 629.206 529.502 629.495 526.846 640.949C526.581 642.093 526.448 642.984 526.448 643.623 526.448 644.104 526.527 644.454 526.683 644.67 526.84 644.887 527.087 644.996 527.424 644.996 527.785 644.996 528.171 644.848 528.58 644.553 528.99 644.258 529.568 643.695 530.315 642.864L531.344 643.876C530.26 645.032 529.336 645.854 528.571 646.342 527.806 646.829 526.978 647.073 526.087 647.073 525.34 647.073 524.744 646.826 524.298 646.333 523.853 645.839 523.63 645.182 523.63 644.363 523.63 643.701 523.768 642.996 524.045 642.25L523.811 642.177C522.654 643.864 521.558 645.098 520.523 645.881 519.487 646.664 518.391 647.055 517.234 647.055 515.91 647.055 514.883 646.555 514.154 645.556 513.425 644.556 513.061 643.153 513.061 641.346 513.061 639.275 513.468 637.284 514.281 635.375 515.094 633.466 516.211 631.961 517.632 630.859 519.053 629.757 520.637 629.206 522.383 629.206Z" fill-rule="evenodd"/><text fill="#000000" fill-opacity="0" font-family="Arial,Arial_MSFontService,sans-serif" font-size="17.8677" x="513.061" y="644.84">𝑎</text><path d="M500.341 610.266 543.341 610.266 543.341 612.266 500.341 612.266Z" fill-rule="evenodd"/><path d="M551.764 618.072 554.926 618.072C555.094 618.915 555.179 619.746 555.179 620.565 555.179 621.408 555.034 622.179 554.745 622.878 554.456 623.576 553.995 624.272 553.363 624.964 552.731 625.657 551.861 626.419 550.753 627.25L549.777 626.148C550.391 625.57 550.837 625.049 551.114 624.585 551.391 624.121 551.59 623.594 551.71 623.004 551.83 622.414 551.891 621.673 551.891 620.782 551.891 619.867 551.849 618.963 551.764 618.072Z" fill-rule="evenodd"/><text fill="#000000" fill-opacity="0" font-family="Arial,Arial_MSFontService,sans-serif" font-size="9.17773" x="549.777" y="626.103">,</text><path d="M573.154 598.849C572.323 598.849 571.627 599.096 571.067 599.59 570.507 600.084 570.055 600.794 569.712 601.722 569.369 602.649 569.125 603.779 568.98 605.109 568.836 606.44 568.763 607.943 568.763 609.617 568.763 613.543 569.128 616.425 569.857 618.262 570.585 620.098 571.714 621.017 573.244 621.017 574.701 621.017 575.782 620.153 576.487 618.424 577.191 616.696 577.544 614.019 577.544 610.394 577.544 607.624 577.363 605.38 577.002 603.664 576.64 601.948 576.138 600.716 575.493 599.969 574.849 599.223 574.069 598.849 573.154 598.849ZM573.244 597.314C575.882 597.314 577.845 598.331 579.134 600.367 580.422 602.402 581.067 605.48 581.067 609.599 581.067 613.863 580.377 617.087 578.998 619.273 577.619 621.459 575.605 622.552 572.955 622.552 570.353 622.552 568.417 621.529 567.147 619.481 565.876 617.434 565.241 614.326 565.241 610.159 565.241 607.943 565.436 606.028 565.828 604.414 566.219 602.8 566.767 601.466 567.472 600.412 568.176 599.358 569.022 598.578 570.01 598.073 570.998 597.567 572.076 597.314 573.244 597.314Z" fill-rule="evenodd"/><text fill="#000000" fill-opacity="0" font-family="Arial,Arial_MSFontService,sans-serif" font-size="25.2388" x="565.241" y="619.398">0</text><path d="M1511.29 621.213 1517.74 621.213 1524.08 638.792 1531.06 621.213 1537.16 621.213 1537.16 622.098C1536.63 622.231 1536.25 622.363 1536.02 622.496 1535.78 622.628 1535.59 622.794 1535.46 622.993 1535.32 623.191 1535.21 623.489 1535.15 623.887 1535.08 624.284 1535.05 624.899 1535.05 625.73L1535.05 641.357C1535.05 642.164 1535.08 642.754 1535.13 643.128 1535.18 643.501 1535.27 643.796 1535.4 644.013 1535.53 644.23 1535.71 644.41 1535.96 644.555 1536.21 644.699 1536.61 644.844 1537.16 644.988L1537.16 645.874 1529.63 645.874 1529.63 644.988C1530.32 644.82 1530.79 644.627 1531.06 644.41 1531.32 644.194 1531.5 643.874 1531.6 643.453 1531.69 643.031 1531.74 642.333 1531.74 641.357L1531.74 634.438C1531.74 632.619 1531.77 630.779 1531.82 628.918 1531.88 627.058 1531.94 625.784 1532.01 625.097L1531.71 625.097 1524.55 643.001 1522.47 643.001 1515.83 624.808 1515.52 624.808C1515.58 625.543 1515.64 626.874 1515.69 628.801 1515.74 630.728 1515.77 632.709 1515.77 634.745L1515.77 641.357C1515.77 642.164 1515.8 642.754 1515.85 643.128 1515.91 643.501 1516 643.796 1516.12 644.013 1516.25 644.23 1516.44 644.41 1516.68 644.555 1516.93 644.699 1517.33 644.844 1517.89 644.988L1517.89 645.874 1511.29 645.874 1511.29 644.988C1512.04 644.796 1512.54 644.582 1512.79 644.347 1513.04 644.112 1513.21 643.778 1513.29 643.344 1513.37 642.911 1513.41 642.248 1513.41 641.357L1513.41 625.73C1513.41 624.899 1513.38 624.293 1513.32 623.914 1513.25 623.535 1513.16 623.24 1513.02 623.029 1512.88 622.818 1512.69 622.649 1512.47 622.523 1512.24 622.396 1511.85 622.255 1511.29 622.098Z" fill-rule="evenodd"/><text fill="#000000" fill-opacity="0" font-family="Arial,Arial_MSFontService,sans-serif" font-size="24.6606" x="1511.29" y="642.791">M</text><path d="M1650.51 588.138C1655.46 592.378 1659.39 598.701 1662.3 607.108 1665.2 615.515 1666.66 624.897 1666.66 635.255 1666.66 645.457 1665.2 654.824 1662.3 663.358 1659.39 671.891 1655.46 678.266 1650.51 682.481L1649.66 681.144C1653.93 676.796 1657.23 670.503 1659.54 662.265 1661.85 654.026 1663.01 645.029 1663.01 635.274 1663.01 625.289 1661.85 616.25 1659.52 608.156 1657.2 600.062 1653.91 593.841 1649.66 589.493ZM1564.27 588.138 1565.12 589.493C1560.86 593.841 1557.57 600.062 1555.25 608.156 1552.93 616.25 1551.77 625.289 1551.77 635.274 1551.77 645.029 1552.93 654.026 1555.24 662.265 1557.55 670.503 1560.85 676.796 1565.12 681.144L1564.27 682.481C1559.32 678.266 1555.4 671.891 1552.49 663.358 1549.58 654.824 1548.12 645.457 1548.12 635.255 1548.12 624.897 1549.58 615.515 1552.49 607.108 1555.4 598.701 1559.32 592.378 1564.27 588.138Z" fill-rule="evenodd"/><path d="M1592.95 600.85 1607.79 600.85 1607.26 603.235 1602.96 603.235 1600.92 612.286C1600.66 613.467 1600.52 614.358 1600.52 614.96 1600.52 615.442 1600.6 615.791 1600.76 616.008 1600.92 616.225 1601.16 616.333 1601.5 616.333 1602.22 616.333 1603.07 615.755 1604.05 614.599L1605.1 615.574C1604.18 616.574 1603.35 617.297 1602.59 617.742 1601.84 618.188 1601.04 618.411 1600.18 618.411 1599.36 618.411 1598.72 618.131 1598.25 617.571 1597.78 617.011 1597.54 616.273 1597.54 615.357 1597.54 614.551 1597.71 613.382 1598.05 611.853L1598.45 610.028C1598.65 609.064 1598.94 607.902 1599.32 606.541 1599.7 605.18 1600.03 604.132 1600.31 603.398L1600.22 603.235 1594.91 603.235 1592.68 613.515C1592.5 614.322 1592.29 615.192 1592.05 616.125 1591.81 617.059 1591.62 617.724 1591.49 618.122L1587.66 618.122 1587.84 617.236C1589.12 615.972 1590.3 613.009 1591.38 608.348L1592.58 603.235 1592 603.235C1591.14 603.235 1590.42 603.379 1589.83 603.669 1589.24 603.958 1588.59 604.536 1587.9 605.403L1586.76 604.445C1587.38 603.687 1587.9 603.108 1588.29 602.711 1588.69 602.314 1589.11 601.976 1589.55 601.699 1589.99 601.422 1590.48 601.211 1591.03 601.067 1591.58 600.922 1592.22 600.85 1592.95 600.85ZM1576.51 593.172C1578.75 593.172 1580.45 593.663 1581.59 594.644 1582.73 595.626 1583.31 597.05 1583.31 598.917 1583.31 599.555 1583.24 600.143 1583.12 600.679 1582.99 601.214 1582.79 601.744 1582.52 602.268 1582.25 602.792 1581.89 603.355 1581.43 603.958 1580.97 604.56 1580.46 605.171 1579.91 605.791 1579.36 606.412 1578.4 607.444 1577.04 608.89 1574.75 611.311 1573.07 613.424 1572 615.231L1578.81 615.231C1579.4 615.231 1579.87 615.195 1580.24 615.123 1580.6 615.05 1580.89 614.93 1581.1 614.761 1581.32 614.593 1581.49 614.373 1581.62 614.102 1581.74 613.831 1581.9 613.412 1582.1 612.846L1583.63 612.846 1583.33 618.122 1568.46 618.122 1568.46 617.254C1568.97 615.99 1569.67 614.695 1570.55 613.37 1571.43 612.045 1572.68 610.486 1574.29 608.691 1575.69 607.149 1576.69 605.981 1577.31 605.186 1577.98 604.319 1578.49 603.569 1578.82 602.937 1579.15 602.305 1579.39 601.708 1579.53 601.148 1579.68 600.588 1579.75 600.025 1579.75 599.459 1579.75 598.556 1579.6 597.758 1579.31 597.065 1579.03 596.373 1578.58 595.828 1577.99 595.43 1577.39 595.033 1576.64 594.834 1575.74 594.834 1573.48 594.834 1571.97 596.087 1571.18 598.592L1569 598.592 1569 595.123C1570.46 594.437 1571.82 593.94 1573.09 593.633 1574.36 593.326 1575.5 593.172 1576.51 593.172Z" fill-rule="evenodd"/><text fill="#000000" fill-opacity="0" font-family="Arial,Arial_MSFontService,sans-serif" font-size="25.2388" x="1568.46" y="615.256">2𝜋</text><path d="M1588.25 654.243C1587.01 654.243 1585.89 654.743 1584.91 655.743 1583.92 656.742 1583.15 658.082 1582.59 659.763 1582.04 661.443 1581.76 663.12 1581.76 664.794 1581.76 666.047 1581.93 666.983 1582.28 667.603 1582.62 668.224 1583.2 668.534 1584 668.534 1584.8 668.534 1585.58 668.19 1586.34 667.504 1587.11 666.817 1587.9 665.839 1588.71 664.568 1589.52 663.297 1590.1 661.831 1590.43 660.169L1590.6 659.392C1590.71 658.898 1590.78 658.471 1590.81 658.109 1590.85 657.748 1590.87 657.357 1590.87 656.935 1590.87 656.008 1590.67 655.327 1590.27 654.894 1589.87 654.46 1589.2 654.243 1588.25 654.243ZM1587.89 652.816C1588.67 652.816 1589.4 652.903 1590.08 653.078 1590.76 653.253 1591.46 653.563 1592.19 654.008L1593.85 652.816 1595 653.105 1592.35 664.559C1592.08 665.703 1591.95 666.595 1591.95 667.233 1591.95 667.715 1592.03 668.064 1592.19 668.281 1592.34 668.498 1592.59 668.606 1592.93 668.606 1593.29 668.606 1593.67 668.458 1594.08 668.163 1594.49 667.868 1595.07 667.305 1595.82 666.474L1596.85 667.486C1595.76 668.642 1594.84 669.464 1594.07 669.952 1593.31 670.44 1592.48 670.684 1591.59 670.684 1590.84 670.684 1590.25 670.437 1589.8 669.943 1589.36 669.449 1589.13 668.793 1589.13 667.974 1589.13 667.311 1589.27 666.607 1589.55 665.86L1589.31 665.788C1588.16 667.474 1587.06 668.708 1586.03 669.491 1584.99 670.274 1583.89 670.666 1582.74 670.666 1581.41 670.666 1580.39 670.166 1579.66 669.166 1578.93 668.166 1578.56 666.763 1578.56 664.957 1578.56 662.885 1578.97 660.895 1579.78 658.986 1580.6 657.077 1581.71 655.571 1583.14 654.469 1584.56 653.367 1586.14 652.816 1587.89 652.816Z" fill-rule="evenodd"/><text fill="#000000" fill-opacity="0" font-family="Arial,Arial_MSFontService,sans-serif" font-size="17.8677" x="1578.56" y="668.45">𝑎</text><path d="M1566.59 633.876 1609.59 633.876 1609.59 635.876 1566.59 635.876Z" fill-rule="evenodd"/><path d="M1617.27 641.682 1620.43 641.682C1620.6 642.525 1620.68 643.356 1620.68 644.175 1620.68 645.019 1620.54 645.789 1620.25 646.488 1619.96 647.187 1619.5 647.882 1618.87 648.575 1618.23 649.267 1617.36 650.029 1616.26 650.86L1615.28 649.758C1615.89 649.18 1616.34 648.659 1616.62 648.195 1616.89 647.732 1617.09 647.205 1617.21 646.614 1617.33 646.024 1617.39 645.284 1617.39 644.392 1617.39 643.477 1617.35 642.574 1617.27 641.682Z" fill-rule="evenodd"/><text fill="#000000" fill-opacity="0" font-family="Arial,Arial_MSFontService,sans-serif" font-size="9.17773" x="1615.28" y="649.713">,</text><path d="M1638.66 622.46C1637.83 622.46 1637.13 622.707 1636.57 623.2 1636.01 623.694 1635.56 624.405 1635.22 625.332 1634.87 626.26 1634.63 627.389 1634.48 628.72 1634.34 630.051 1634.27 631.553 1634.27 633.227 1634.27 637.154 1634.63 640.035 1635.36 641.872 1636.09 643.709 1637.22 644.627 1638.75 644.627 1640.2 644.627 1641.29 643.763 1641.99 642.035 1642.69 640.306 1643.05 637.629 1643.05 634.004 1643.05 631.234 1642.87 628.991 1642.51 627.274 1642.14 625.558 1641.64 624.327 1641 623.58 1640.35 622.833 1639.57 622.46 1638.66 622.46ZM1638.75 620.924C1641.39 620.924 1643.35 621.942 1644.64 623.977 1645.93 626.013 1646.57 629.09 1646.57 633.209 1646.57 637.473 1645.88 640.698 1644.5 642.884 1643.12 645.07 1641.11 646.163 1638.46 646.163 1635.86 646.163 1633.92 645.139 1632.65 643.091 1631.38 641.044 1630.74 637.937 1630.74 633.769 1630.74 631.553 1630.94 629.638 1631.33 628.024 1631.72 626.41 1632.27 625.076 1632.98 624.022 1633.68 622.969 1634.53 622.189 1635.51 621.683 1636.5 621.177 1637.58 620.924 1638.75 620.924Z" fill-rule="evenodd"/><text fill="#000000" fill-opacity="0" font-family="Arial,Arial_MSFontService,sans-serif" font-size="25.2388" x="1630.74" y="643.008">0</text><path d="M944.371 1019.16 950.821 1019.16 957.162 1036.74 964.136 1019.16 970.242 1019.16 970.242 1020.05C969.712 1020.18 969.33 1020.31 969.095 1020.45 968.86 1020.58 968.674 1020.74 968.535 1020.94 968.397 1021.14 968.294 1021.44 968.228 1021.84 968.162 1022.23 968.129 1022.85 968.129 1023.68L968.129 1039.31C968.129 1040.11 968.156 1040.7 968.21 1041.08 968.264 1041.45 968.354 1041.75 968.481 1041.96 968.607 1042.18 968.794 1042.36 969.041 1042.51 969.288 1042.65 969.688 1042.79 970.242 1042.94L970.242 1043.82 962.709 1043.82 962.709 1042.94C963.395 1042.77 963.871 1042.58 964.136 1042.36 964.401 1042.14 964.582 1041.82 964.678 1041.4 964.774 1040.98 964.822 1040.28 964.822 1039.31L964.822 1032.39C964.822 1030.57 964.85 1028.73 964.904 1026.87 964.958 1025.01 965.021 1023.73 965.093 1023.05L964.786 1023.05 957.632 1040.95 955.554 1040.95 948.906 1022.76 948.599 1022.76C948.659 1023.49 948.716 1024.82 948.77 1026.75 948.825 1028.68 948.852 1030.66 948.852 1032.7L948.852 1039.31C948.852 1040.11 948.879 1040.7 948.933 1041.08 948.987 1041.45 949.078 1041.75 949.204 1041.96 949.331 1042.18 949.517 1042.36 949.764 1042.51 950.011 1042.65 950.411 1042.79 950.966 1042.94L950.966 1043.82 944.371 1043.82 944.371 1042.94C945.118 1042.75 945.618 1042.53 945.871 1042.3 946.124 1042.06 946.289 1041.73 946.368 1041.3 946.446 1040.86 946.485 1040.2 946.485 1039.31L946.485 1023.68C946.485 1022.85 946.455 1022.24 946.395 1021.86 946.334 1021.49 946.235 1021.19 946.097 1020.98 945.958 1020.77 945.774 1020.6 945.546 1020.47 945.317 1020.35 944.925 1020.21 944.371 1020.05Z" fill-rule="evenodd"/><text fill="#000000" fill-opacity="0" font-family="Arial,Arial_MSFontService,sans-serif" font-size="24.6606" x="944.371" y="1040.74">M</text><path d="M1134.14 986.089C1139.09 990.329 1143.02 996.652 1145.93 1005.06 1148.84 1013.47 1150.29 1022.85 1150.29 1033.21 1150.29 1043.41 1148.84 1052.78 1145.93 1061.31 1143.02 1069.84 1139.09 1076.22 1134.14 1080.43L1133.29 1079.09C1137.57 1074.75 1140.86 1068.45 1143.17 1060.22 1145.49 1051.98 1146.64 1042.98 1146.64 1033.22 1146.64 1023.24 1145.48 1014.2 1143.16 1006.11 1140.83 998.013 1137.54 991.792 1133.29 987.444ZM997.354 986.089 998.204 987.444C993.94 991.792 990.649 998.013 988.33 1006.11 986.012 1014.2 984.852 1023.24 984.852 1033.22 984.852 1042.98 986.009 1051.98 988.321 1060.22 990.634 1068.45 993.928 1074.75 998.204 1079.09L997.354 1080.43C992.404 1076.22 988.475 1069.84 985.566 1061.31 982.657 1052.78 981.203 1043.41 981.203 1033.21 981.203 1022.85 982.657 1013.47 985.566 1005.06 988.475 996.652 992.404 990.329 997.354 986.089Z" fill-rule="evenodd"/><path d="M1009.45 1020.41C1008.62 1020.41 1007.92 1020.66 1007.36 1021.15 1006.8 1021.64 1006.35 1022.36 1006.01 1023.28 1005.66 1024.21 1005.42 1025.34 1005.28 1026.67 1005.13 1028 1005.06 1029.5 1005.06 1031.18 1005.06 1035.1 1005.42 1037.99 1006.15 1039.82 1006.88 1041.66 1008.01 1042.58 1009.54 1042.58 1011 1042.58 1012.08 1041.71 1012.78 1039.99 1013.49 1038.26 1013.84 1035.58 1013.84 1031.95 1013.84 1029.18 1013.66 1026.94 1013.3 1025.22 1012.94 1023.51 1012.43 1022.28 1011.79 1021.53 1011.14 1020.78 1010.36 1020.41 1009.45 1020.41ZM1009.54 1018.87C1012.18 1018.87 1014.14 1019.89 1015.43 1021.93 1016.72 1023.96 1017.36 1027.04 1017.36 1031.16 1017.36 1035.42 1016.67 1038.65 1015.29 1040.83 1013.91 1043.02 1011.9 1044.11 1009.25 1044.11 1006.65 1044.11 1004.71 1043.09 1003.44 1041.04 1002.17 1038.99 1001.54 1035.89 1001.54 1031.72 1001.54 1029.5 1001.73 1027.59 1002.12 1025.97 1002.51 1024.36 1003.06 1023.03 1003.77 1021.97 1004.47 1020.92 1005.32 1020.14 1006.31 1019.63 1007.29 1019.13 1008.37 1018.87 1009.54 1018.87Z" fill-rule="evenodd"/><text fill="#000000" fill-opacity="0" font-family="Arial,Arial_MSFontService,sans-serif" font-size="25.2388" x="1001.54" y="1040.96">0</text><path d="M1021.68 1039.63 1024.84 1039.63C1025.01 1040.48 1025.09 1041.31 1025.09 1042.13 1025.09 1042.97 1024.95 1043.74 1024.66 1044.44 1024.37 1045.14 1023.91 1045.83 1023.28 1046.53 1022.64 1047.22 1021.77 1047.98 1020.67 1048.81L1019.69 1047.71C1020.31 1047.13 1020.75 1046.61 1021.03 1046.15 1021.31 1045.68 1021.5 1045.16 1021.62 1044.57 1021.74 1043.97 1021.8 1043.23 1021.8 1042.34 1021.8 1041.43 1021.76 1040.52 1021.68 1039.63Z" fill-rule="evenodd"/><text fill="#000000" fill-opacity="0" font-family="Arial,Arial_MSFontService,sans-serif" font-size="9.17773" x="1019.69" y="1047.66">,</text><path d="M1035.52 1032.05 1057.77 1032.05 1057.77 1034.45 1035.52 1034.45Z" fill-rule="evenodd"/><text fill="#000000" fill-opacity="0" font-family="Arial,Arial_MSFontService,sans-serif" font-size="2.40283" x="1035.52" y="1034.15">−</text><path d="M1104.8 998.801 1119.63 998.801 1119.11 1001.19 1114.81 1001.19 1112.77 1010.24C1112.5 1011.42 1112.37 1012.31 1112.37 1012.91 1112.37 1013.39 1112.45 1013.74 1112.6 1013.96 1112.76 1014.18 1113.01 1014.28 1113.34 1014.28 1114.07 1014.28 1114.92 1013.71 1115.89 1012.55L1116.94 1013.52C1116.02 1014.52 1115.19 1015.25 1114.44 1015.69 1113.68 1016.14 1112.88 1016.36 1112.03 1016.36 1111.21 1016.36 1110.56 1016.08 1110.09 1015.52 1109.62 1014.96 1109.39 1014.22 1109.39 1013.31 1109.39 1012.5 1109.56 1011.33 1109.89 1009.8L1110.29 1007.98C1110.5 1007.01 1110.79 1005.85 1111.17 1004.49 1111.55 1003.13 1111.88 1002.08 1112.15 1001.35L1112.06 1001.19 1106.75 1001.19 1104.53 1011.47C1104.35 1012.27 1104.14 1013.14 1103.9 1014.08 1103.65 1015.01 1103.47 1015.67 1103.34 1016.07L1099.51 1016.07 1099.69 1015.19C1100.96 1013.92 1102.14 1010.96 1103.23 1006.3L1104.42 1001.19 1103.84 1001.19C1102.99 1001.19 1102.26 1001.33 1101.67 1001.62 1101.08 1001.91 1100.44 1002.49 1099.74 1003.35L1098.6 1002.4C1099.23 1001.64 1099.74 1001.06 1100.14 1000.66 1100.54 1000.26 1100.95 999.927 1101.39 999.65 1101.83 999.373 1102.33 999.162 1102.88 999.018 1103.42 998.873 1104.06 998.801 1104.8 998.801ZM1088.36 991.123C1090.6 991.123 1092.29 991.613 1093.43 992.595 1094.58 993.577 1095.15 995.001 1095.15 996.868 1095.15 997.506 1095.09 998.093 1094.96 998.629 1094.83 999.165 1094.64 999.695 1094.37 1000.22 1094.09 1000.74 1093.73 1001.31 1093.27 1001.91 1092.81 1002.51 1092.31 1003.12 1091.75 1003.74 1091.2 1004.36 1090.24 1005.4 1088.88 1006.84 1086.59 1009.26 1084.91 1011.38 1083.84 1013.18L1090.65 1013.18C1091.24 1013.18 1091.72 1013.15 1092.08 1013.07 1092.44 1013 1092.73 1012.88 1092.95 1012.71 1093.16 1012.54 1093.34 1012.32 1093.46 1012.05 1093.59 1011.78 1093.75 1011.36 1093.94 1010.8L1095.48 1010.8 1095.17 1016.07 1080.3 1016.07 1080.3 1015.21C1080.82 1013.94 1081.52 1012.65 1082.4 1011.32 1083.28 1010 1084.52 1008.44 1086.14 1006.64 1087.53 1005.1 1088.54 1003.93 1089.15 1003.14 1089.83 1002.27 1090.33 1001.52 1090.66 1000.89 1090.99 1000.26 1091.23 999.659 1091.38 999.099 1091.52 998.539 1091.59 997.976 1091.59 997.41 1091.59 996.506 1091.45 995.708 1091.16 995.016 1090.87 994.323 1090.43 993.778 1089.83 993.381 1089.23 992.983 1088.48 992.785 1087.58 992.785 1085.33 992.785 1083.81 994.037 1083.03 996.542L1080.84 996.542 1080.84 993.074C1082.3 992.387 1083.66 991.89 1084.93 991.583 1086.21 991.276 1087.35 991.123 1088.36 991.123Z" fill-rule="evenodd"/><text fill="#000000" fill-opacity="0" font-family="Arial,Arial_MSFontService,sans-serif" font-size="25.2388" x="1080.3" y="1013.21">2𝜋</text><path d="M1088.3 1041.26 1092.91 1041.26 1092.91 1041.83 1110.26 1041.83 1110.26 1043.83 1090.26 1043.83 1090.26 1043.66 1089.64 1043.66 1079.92 1076.87 1078.17 1076.87 1070.69 1060.79 1067.64 1062.15 1067.08 1060.79 1073 1058.08 1079.38 1072.1Z" fill-rule="evenodd"/><path d="M1100.84 1048.87C1102.21 1048.87 1103.4 1049.08 1104.42 1049.5 1105.45 1049.93 1106.23 1050.53 1106.77 1051.32 1107.31 1052.11 1107.58 1053.05 1107.58 1054.15 1107.58 1055.17 1107.38 1056.07 1106.97 1056.85 1106.56 1057.63 1105.98 1058.3 1105.24 1058.88 1104.5 1059.46 1103.54 1060.03 1102.36 1060.58L1102.36 1060.74C1103.1 1060.87 1103.8 1061.1 1104.48 1061.42 1105.17 1061.74 1105.77 1062.15 1106.3 1062.66 1106.83 1063.16 1107.25 1063.77 1107.57 1064.47 1107.89 1065.18 1108.05 1065.98 1108.05 1066.88 1108.05 1068.28 1107.75 1069.52 1107.14 1070.61 1106.53 1071.69 1105.6 1072.55 1104.35 1073.17 1103.1 1073.8 1101.57 1074.11 1099.78 1074.11 1098.74 1074.11 1097.63 1073.99 1096.43 1073.76 1095.23 1073.52 1094.13 1073.21 1093.13 1072.83L1093.13 1069 1095.3 1069C1095.72 1070.25 1096.28 1071.16 1096.97 1071.73 1097.66 1072.29 1098.6 1072.58 1099.8 1072.58 1101.36 1072.58 1102.55 1072.15 1103.35 1071.29 1104.15 1070.44 1104.55 1069.17 1104.55 1067.5 1104.55 1065.74 1104.02 1064.4 1102.96 1063.47 1101.9 1062.54 1100.34 1062.08 1098.3 1062.08L1096.67 1062.08 1096.67 1060.49C1098.3 1060.39 1099.67 1060.08 1100.78 1059.55 1101.9 1059.02 1102.72 1058.34 1103.27 1057.51 1103.81 1056.68 1104.08 1055.74 1104.08 1054.71 1104.08 1053.37 1103.72 1052.34 1103.01 1051.62 1102.3 1050.9 1101.27 1050.53 1099.9 1050.53 1098.77 1050.53 1097.85 1050.84 1097.14 1051.46 1096.43 1052.07 1095.91 1053.01 1095.57 1054.27L1093.4 1054.27 1093.4 1050.84C1094.8 1050.18 1096.1 1049.69 1097.32 1049.36 1098.54 1049.04 1099.71 1048.87 1100.84 1048.87Z" fill-rule="evenodd"/><text fill="#000000" fill-opacity="0" font-family="Arial,Arial_MSFontService,sans-serif" font-size="25.2388" x="1093.13" y="1070.96">3</text><path d="M1122.16 1057.67C1120.92 1057.67 1119.81 1058.17 1118.82 1059.17 1117.83 1060.17 1117.06 1061.51 1116.51 1063.19 1115.95 1064.87 1115.68 1066.55 1115.68 1068.22 1115.68 1069.47 1115.85 1070.41 1116.19 1071.03 1116.53 1071.65 1117.11 1071.96 1117.92 1071.96 1118.71 1071.96 1119.49 1071.62 1120.26 1070.93 1121.02 1070.25 1121.81 1069.27 1122.62 1068 1123.43 1066.73 1124.01 1065.26 1124.35 1063.6L1124.51 1062.82C1124.62 1062.33 1124.69 1061.9 1124.73 1061.54 1124.76 1061.18 1124.78 1060.78 1124.78 1060.36 1124.78 1059.44 1124.58 1058.75 1124.18 1058.32 1123.79 1057.89 1123.11 1057.67 1122.16 1057.67ZM1121.8 1056.24C1122.58 1056.24 1123.31 1056.33 1123.99 1056.51 1124.68 1056.68 1125.38 1056.99 1126.1 1057.44L1127.76 1056.24 1128.92 1056.53 1126.26 1067.99C1126 1069.13 1125.86 1070.02 1125.86 1070.66 1125.86 1071.14 1125.94 1071.49 1126.1 1071.71 1126.26 1071.93 1126.5 1072.03 1126.84 1072.03 1127.2 1072.03 1127.59 1071.89 1128 1071.59 1128.41 1071.3 1128.98 1070.73 1129.73 1069.9L1130.76 1070.91C1129.68 1072.07 1128.75 1072.89 1127.99 1073.38 1127.22 1073.87 1126.39 1074.11 1125.5 1074.11 1124.76 1074.11 1124.16 1073.86 1123.71 1073.37 1123.27 1072.88 1123.05 1072.22 1123.05 1071.4 1123.05 1070.74 1123.18 1070.03 1123.46 1069.29L1123.23 1069.22C1122.07 1070.9 1120.97 1072.14 1119.94 1072.92 1118.9 1073.7 1117.81 1074.09 1116.65 1074.09 1115.33 1074.09 1114.3 1073.59 1113.57 1072.59 1112.84 1071.59 1112.48 1070.19 1112.48 1068.38 1112.48 1066.31 1112.88 1064.32 1113.7 1062.41 1114.51 1060.5 1115.63 1059 1117.05 1057.9 1118.47 1056.79 1120.05 1056.24 1121.8 1056.24Z" fill-rule="evenodd"/><text fill="#000000" fill-opacity="0" font-family="Arial,Arial_MSFontService,sans-serif" font-size="17.8677" x="1112.48" y="1071.88">𝑎</text><path d="M1066.26 1031.83 1099.26 1031.83 1132.26 1031.83 1132.26 1033.83 1099.26 1033.83 1066.26 1033.83Z" fill-rule="evenodd"/></g></svg>