<svg width="1766" height="743" xmlns="http://www.w3.org/2000/svg" xmlns:xlink="http://www.w3.org/1999/xlink" xml:space="preserve" overflow="hidden"><g transform="translate(-2319 -331)"><path d="M2508.5 710 3185 418.5 3861.5 710 3185 1001.5Z" stroke="#4EA72E" stroke-width="6.875" stroke-miterlimit="8" fill="none" fill-rule="evenodd"/><path d="M1.36043-3.15684 656.729 279.273 654.008 285.587-1.36043 3.15684ZM656.601 267.988 676.414 291.499 645.717 293.243Z" fill="#156082" transform="matrix(1 0 0 -1 2508.5 709.999)"/><path d="M2817.98 873.192C2819.13 873.192 2820.03 873.577 2820.69 874.347 2821.35 875.116 2821.69 876.155 2821.69 877.462 2821.69 878.876 2821.41 880.64 2820.85 882.752L2819.67 887.398C2819.37 888.58 2819.15 889.502 2819.01 890.164 2818.88 890.827 2818.78 891.4 2818.72 891.883 2818.66 892.367 2818.62 892.769 2818.62 893.092 2818.62 894.327 2818.83 895.218 2819.24 895.764 2819.65 896.31 2820.32 896.583 2821.26 896.583 2822.01 896.583 2822.82 896.283 2823.69 895.683 2824.55 895.083 2825.48 894.179 2826.45 892.971 2827.43 891.762 2828.21 890.59 2828.8 889.453 2829.39 888.316 2829.88 886.915 2830.25 885.25L2832.8 873.621 2837.45 873.621 2833.53 890.648C2833.14 892.367 2832.94 893.691 2832.94 894.622 2832.94 895.339 2833.05 895.858 2833.29 896.18 2833.52 896.502 2833.89 896.663 2834.39 896.663 2834.93 896.663 2835.5 896.444 2836.11 896.005 2836.72 895.567 2837.57 894.73 2838.69 893.495L2840.22 894.998C2838.59 896.735 2837.2 897.961 2836.05 898.678 2834.91 899.394 2833.69 899.752 2832.4 899.752 2831.29 899.752 2830.4 899.385 2829.74 898.651 2829.08 897.917 2828.75 896.941 2828.75 895.724 2828.75 894.757 2828.96 893.7 2829.39 892.555L2829.07 892.447C2827.3 894.936 2825.62 896.771 2824.04 897.953 2822.45 899.134 2820.83 899.725 2819.16 899.725 2817.5 899.725 2816.22 899.246 2815.32 898.288 2814.43 897.33 2813.98 896.001 2813.98 894.3 2813.98 893.172 2814.24 891.57 2814.76 889.493L2816.5 882.457C2816.99 880.505 2817.23 879.127 2817.23 878.321 2817.23 877.605 2817.11 877.086 2816.88 876.764 2816.65 876.441 2816.28 876.28 2815.78 876.28 2815.22 876.28 2814.64 876.508 2814.02 876.965 2813.4 877.422 2812.55 878.25 2811.48 879.449L2809.95 877.945C2811.47 876.405 2812.62 875.349 2813.39 874.776 2814.16 874.203 2814.9 873.796 2815.6 873.554 2816.31 873.313 2817.1 873.192 2817.98 873.192Z" fill-rule="evenodd"/><text fill="#000000" fill-opacity="0" font-family="Arial,Arial_MSFontService,sans-serif" font-size="26.5601" x="2809.95" y="896.432">𝑢</text><path d="M2852.48 890.873C2853.83 890.873 2854.99 891.026 2855.94 891.332 2856.9 891.638 2857.68 892.051 2858.28 892.572 2858.88 893.093 2859.31 893.718 2859.58 894.447 2859.84 895.176 2859.98 895.964 2859.98 896.81 2859.98 897.318 2859.94 897.79 2859.87 898.226 2859.8 898.663 2859.67 899.092 2859.5 899.516 2859.32 899.939 2859.09 900.365 2858.8 900.795 2858.52 901.224 2858.16 901.68 2857.73 902.162 2857.4 902.579 2856.98 903.06 2856.46 903.607 2855.94 904.154 2855.37 904.74 2854.75 905.365 2854.13 905.99 2853.48 906.641 2852.81 907.318 2852.13 907.995 2851.47 908.666 2850.83 909.33 2850.2 909.994 2849.61 910.639 2849.08 911.264 2848.54 911.889 2848.11 912.461 2847.77 912.982L2855 912.982C2855.61 912.982 2856.1 912.96 2856.46 912.914 2856.82 912.868 2857.13 912.767 2857.37 912.611 2857.61 912.455 2857.81 912.217 2857.98 911.898 2858.15 911.579 2858.35 911.14 2858.57 910.58L2860.39 910.58C2860.32 911.504 2860.26 912.435 2860.2 913.373 2860.14 914.31 2860.08 915.241 2860.01 916.166L2843.47 916.166 2843.47 915.15C2843.78 914.447 2844.15 913.754 2844.57 913.07 2844.98 912.387 2845.45 911.693 2845.97 910.99 2846.49 910.287 2847.08 909.561 2847.75 908.812 2848.41 908.064 2849.15 907.286 2849.96 906.478 2851.18 905.254 2852.18 904.21 2852.94 903.344 2853.71 902.478 2854.32 901.706 2854.76 901.029 2855.2 900.352 2855.51 899.727 2855.67 899.154 2855.83 898.581 2855.91 897.969 2855.91 897.318 2855.91 896.654 2855.82 896.042 2855.63 895.482 2855.44 894.922 2855.17 894.447 2854.82 894.057 2854.47 893.666 2854.02 893.36 2853.48 893.139 2852.94 892.917 2852.32 892.807 2851.62 892.807 2850.41 892.807 2849.39 893.135 2848.57 893.793 2847.75 894.45 2847.11 895.404 2846.66 896.654L2844.1 896.654 2844.1 892.846C2845.76 892.155 2847.3 891.654 2848.7 891.342 2850.1 891.029 2851.36 890.873 2852.48 890.873Z" fill-rule="evenodd"/><text fill="#000000" fill-opacity="0" font-family="Arial,Arial_MSFontService,sans-serif" font-size="25.293" x="2843.47" y="913.004">2</text><path d="M2509.86 707.344 3163.88 989.758 3161.15 996.07 2507.14 713.656ZM3163.76 978.473 3183.55 1002 3152.86 1003.72Z" fill="#156082"/><path d="M2819.02 502.831C2820.17 502.831 2821.07 503.216 2821.74 503.986 2822.4 504.756 2822.73 505.794 2822.73 507.101 2822.73 508.515 2822.45 510.279 2821.9 512.392L2820.72 517.038C2820.41 518.219 2820.19 519.141 2820.06 519.804 2819.92 520.466 2819.82 521.039 2819.76 521.522 2819.7 522.006 2819.67 522.409 2819.67 522.731 2819.67 523.966 2819.87 524.857 2820.29 525.403 2820.7 525.949 2821.37 526.222 2822.3 526.222 2823.05 526.222 2823.86 525.922 2824.73 525.322 2825.6 524.723 2826.52 523.819 2827.5 522.61 2828.47 521.402 2829.26 520.229 2829.85 519.092 2830.44 517.955 2830.92 516.554 2831.3 514.889L2833.85 503.261 2838.49 503.261 2834.57 520.287C2834.18 522.006 2833.98 523.331 2833.98 524.262 2833.98 524.978 2834.1 525.497 2834.33 525.819 2834.56 526.142 2834.93 526.303 2835.43 526.303 2835.97 526.303 2836.54 526.083 2837.15 525.645 2837.76 525.206 2838.62 524.369 2839.73 523.134L2841.26 524.638C2839.63 526.374 2838.24 527.601 2837.1 528.317 2835.95 529.033 2834.73 529.391 2833.44 529.391 2832.33 529.391 2831.45 529.024 2830.79 528.29 2830.12 527.556 2829.79 526.58 2829.79 525.363 2829.79 524.396 2830.01 523.34 2830.44 522.194L2830.11 522.086C2828.34 524.575 2826.66 526.41 2825.08 527.592 2823.49 528.773 2821.87 529.364 2820.21 529.364 2818.54 529.364 2817.26 528.885 2816.36 527.927 2815.47 526.97 2815.02 525.64 2815.02 523.939 2815.02 522.811 2815.28 521.209 2815.8 519.132L2817.55 512.096C2818.03 510.145 2818.27 508.766 2818.27 507.96 2818.27 507.244 2818.16 506.725 2817.92 506.403 2817.69 506.081 2817.32 505.919 2816.82 505.919 2816.27 505.919 2815.68 506.148 2815.06 506.604 2814.44 507.061 2813.6 507.889 2812.52 509.088L2810.99 507.584C2812.52 506.045 2813.66 504.988 2814.43 504.415 2815.2 503.843 2815.94 503.435 2816.65 503.194 2817.35 502.952 2818.15 502.831 2819.02 502.831Z" fill-rule="evenodd"/><text fill="#000000" fill-opacity="0" font-family="Arial,Arial_MSFontService,sans-serif" font-size="26.5601" x="2810.99" y="526.071">𝑢</text><path d="M2853.14 520.649 2854.33 520.649C2854.31 521.365 2854.29 522.006 2854.27 522.573 2854.26 523.139 2854.25 523.689 2854.24 524.223 2854.24 524.757 2854.23 525.284 2854.23 525.805L2854.23 540.649C2854.23 541.052 2854.25 541.401 2854.27 541.694 2854.3 541.987 2854.34 542.234 2854.4 542.436 2854.46 542.638 2854.54 542.81 2854.64 542.954 2854.73 543.097 2854.85 543.22 2854.98 543.325 2855.13 543.481 2855.34 543.601 2855.6 543.686 2855.86 543.771 2856.19 543.842 2856.6 543.901 2857 543.959 2857.49 544.005 2858.05 544.038 2858.62 544.07 2859.3 544.093 2860.09 544.106L2860.09 545.805 2844.61 545.805 2844.61 544.106C2845.37 544.08 2846.03 544.051 2846.56 544.018 2847.09 543.985 2847.55 543.94 2847.93 543.881 2848.3 543.823 2848.61 543.758 2848.83 543.686 2849.06 543.614 2849.26 543.526 2849.43 543.422 2849.61 543.305 2849.77 543.178 2849.9 543.041 2850.03 542.905 2850.13 542.732 2850.21 542.524 2850.29 542.316 2850.35 542.062 2850.4 541.762 2850.44 541.463 2850.47 541.092 2850.47 540.649L2850.47 526.645C2850.47 526.137 2850.37 525.779 2850.17 525.571 2849.98 525.362 2849.7 525.258 2849.33 525.258 2848.93 525.258 2848.33 525.467 2847.54 525.883 2846.74 526.3 2845.71 526.918 2844.45 527.739 2844.28 527.439 2844.12 527.14 2843.98 526.84 2843.84 526.541 2843.69 526.235 2843.53 525.922 2845.15 525.037 2846.74 524.155 2848.33 523.276 2849.91 522.397 2851.51 521.521 2853.14 520.649Z" fill-rule="evenodd"/><text fill="#000000" fill-opacity="0" font-family="Arial,Arial_MSFontService,sans-serif" font-size="25.1562" x="2843.53" y="542.661">1</text><path d="M3187.35 369.321 3193.8 369.321 3195.86 386.845 3206.39 369.321 3212.08 369.321 3211.89 370.206C3211.43 370.302 3211.1 370.411 3210.9 370.531 3210.7 370.652 3210.52 370.832 3210.36 371.073 3210.2 371.314 3210.03 371.69 3209.87 372.202 3209.71 372.714 3209.5 373.548 3209.25 374.704L3206.16 388.724C3206 389.435 3205.9 389.998 3205.85 390.413 3205.8 390.829 3205.78 391.205 3205.78 391.542 3205.78 392.084 3205.92 392.467 3206.19 392.69 3206.46 392.912 3206.91 393.048 3207.55 393.096L3207.35 393.981 3200.12 393.981 3200.32 393.096C3200.78 393.024 3201.12 392.906 3201.35 392.744 3201.58 392.581 3201.77 392.355 3201.93 392.066 3202.09 391.777 3202.23 391.425 3202.36 391.009 3202.5 390.594 3202.7 389.79 3202.96 388.598L3205.36 377.703C3205.7 376.198 3206.09 374.698 3206.52 373.205L3206.27 373.205C3205.89 373.916 3205.05 375.361 3203.74 377.541L3195.52 391.109 3193.55 391.109 3192.05 379.492C3191.83 377.854 3191.59 375.65 3191.33 372.88L3190.97 372.88C3190.56 375.578 3190.1 378.077 3189.59 380.377L3187.75 388.724C3187.5 389.868 3187.37 390.808 3187.37 391.542 3187.37 392.084 3187.51 392.467 3187.78 392.69 3188.05 392.912 3188.5 393.048 3189.14 393.096L3188.94 393.981 3182.62 393.981 3182.82 393.096C3183.27 393.024 3183.62 392.906 3183.85 392.744 3184.08 392.581 3184.27 392.355 3184.43 392.066 3184.58 391.777 3184.73 391.425 3184.86 391.009 3184.99 390.594 3185.19 389.79 3185.45 388.598L3188.53 374.686C3188.65 374.168 3188.74 373.675 3188.82 373.205 3188.89 372.735 3188.92 372.259 3188.92 371.778 3188.92 371.212 3188.78 370.817 3188.5 370.594 3188.22 370.372 3187.77 370.242 3187.15 370.206Z" fill-rule="evenodd"/><text fill="#000000" fill-opacity="0" font-family="Arial,Arial_MSFontService,sans-serif" font-size="24.6606" x="3182.62" y="390.899">𝑀</text><path d="M3341.93 336.246C3346.88 340.486 3350.81 346.809 3353.72 355.216 3356.63 363.623 3358.08 373.005 3358.08 383.363 3358.08 393.565 3356.63 402.932 3353.72 411.465 3350.81 419.999 3346.88 426.373 3341.93 430.589L3341.08 429.252C3345.36 424.904 3348.65 418.611 3350.96 410.372 3353.27 402.134 3354.43 393.137 3354.43 383.381 3354.43 373.396 3353.27 364.357 3350.94 356.264 3348.62 348.17 3345.33 341.949 3341.08 337.601ZM3238.76 336.246 3239.61 337.601C3235.35 341.949 3232.06 348.17 3229.74 356.264 3227.42 364.357 3226.26 373.396 3226.26 383.381 3226.26 393.137 3227.42 402.134 3229.73 410.372 3232.04 418.611 3235.33 424.904 3239.61 429.252L3238.76 430.589C3233.81 426.373 3229.88 419.999 3226.97 411.465 3224.06 402.932 3222.61 393.565 3222.61 383.363 3222.61 373.005 3224.06 363.623 3226.97 355.216 3229.88 346.809 3233.81 340.486 3238.76 336.246Z" fill-rule="evenodd"/><path d="M3250.86 370.567C3250.02 370.567 3249.33 370.814 3248.77 371.308 3248.21 371.802 3247.76 372.512 3247.41 373.44 3247.07 374.367 3246.83 375.496 3246.68 376.827 3246.54 378.158 3246.47 379.661 3246.47 381.335 3246.47 385.261 3246.83 388.143 3247.56 389.98 3248.29 391.816 3249.42 392.735 3250.95 392.735 3252.4 392.735 3253.48 391.871 3254.19 390.142 3254.89 388.414 3255.25 385.737 3255.25 382.112 3255.25 379.342 3255.07 377.098 3254.7 375.382 3254.34 373.666 3253.84 372.434 3253.2 371.687 3252.55 370.941 3251.77 370.567 3250.86 370.567ZM3250.95 369.032C3253.58 369.032 3255.55 370.049 3256.84 372.085 3258.12 374.12 3258.77 377.198 3258.77 381.317 3258.77 385.58 3258.08 388.805 3256.7 390.991 3255.32 393.177 3253.31 394.27 3250.66 394.27 3248.06 394.27 3246.12 393.247 3244.85 391.199 3243.58 389.152 3242.94 386.044 3242.94 381.877 3242.94 379.661 3243.14 377.746 3243.53 376.132 3243.92 374.518 3244.47 373.184 3245.17 372.13 3245.88 371.076 3246.72 370.296 3247.71 369.79 3248.7 369.285 3249.78 369.032 3250.95 369.032Z" fill-rule="evenodd"/><text fill="#000000" fill-opacity="0" font-family="Arial,Arial_MSFontService,sans-serif" font-size="25.2388" x="3242.94" y="391.116">0</text><path d="M3263.09 389.79 3266.25 389.79C3266.42 390.633 3266.5 391.464 3266.5 392.283 3266.5 393.126 3266.36 393.897 3266.07 394.596 3265.78 395.294 3265.32 395.99 3264.68 396.682 3264.05 397.375 3263.18 398.137 3262.07 398.968L3261.1 397.866C3261.71 397.287 3262.16 396.767 3262.43 396.303 3262.71 395.839 3262.91 395.312 3263.03 394.722 3263.15 394.132 3263.21 393.391 3263.21 392.5 3263.21 391.585 3263.17 390.681 3263.09 389.79Z" fill-rule="evenodd"/><text fill="#000000" fill-opacity="0" font-family="Arial,Arial_MSFontService,sans-serif" font-size="9.17773" x="3261.1" y="397.82">,</text><path d="M3312.59 348.958 3327.42 348.958 3326.9 351.343 3322.6 351.343 3320.55 360.394C3320.29 361.574 3320.16 362.465 3320.16 363.068 3320.16 363.549 3320.24 363.899 3320.39 364.115 3320.55 364.332 3320.8 364.441 3321.13 364.441 3321.86 364.441 3322.7 363.863 3323.68 362.706L3324.73 363.682C3323.81 364.682 3322.98 365.404 3322.23 365.85 3321.47 366.296 3320.67 366.518 3319.81 366.518 3318.99 366.518 3318.35 366.238 3317.88 365.678 3317.41 365.118 3317.18 364.38 3317.18 363.465 3317.18 362.658 3317.34 361.49 3317.68 359.96L3318.08 358.135C3318.28 357.172 3318.58 356.01 3318.96 354.649 3319.33 353.288 3319.66 352.24 3319.94 351.505L3319.85 351.343 3314.54 351.343 3312.32 361.622C3312.14 362.429 3311.92 363.299 3311.68 364.233 3311.44 365.166 3311.26 365.832 3311.12 366.229L3307.29 366.229 3307.47 365.344C3308.75 364.079 3309.93 361.116 3311.02 356.455L3312.21 351.343 3311.63 351.343C3310.77 351.343 3310.05 351.487 3309.46 351.776 3308.87 352.065 3308.23 352.643 3307.53 353.51L3306.39 352.553C3307.02 351.794 3307.53 351.216 3307.93 350.819 3308.32 350.421 3308.74 350.084 3309.18 349.807 3309.62 349.53 3310.11 349.319 3310.66 349.175 3311.21 349.03 3311.85 348.958 3312.59 348.958ZM3296.15 341.28C3298.39 341.28 3300.08 341.77 3301.22 342.752 3302.37 343.734 3302.94 345.158 3302.94 347.025 3302.94 347.663 3302.88 348.25 3302.75 348.786 3302.62 349.322 3302.42 349.852 3302.15 350.376 3301.88 350.9 3301.52 351.463 3301.06 352.065 3300.6 352.667 3300.1 353.279 3299.54 353.899 3298.99 354.519 3298.03 355.552 3296.67 356.997 3294.38 359.418 3292.7 361.532 3291.63 363.339L3298.44 363.339C3299.03 363.339 3299.51 363.302 3299.87 363.23 3300.23 363.158 3300.52 363.038 3300.74 362.869 3300.95 362.7 3301.12 362.48 3301.25 362.209 3301.38 361.938 3301.54 361.52 3301.73 360.954L3303.26 360.954 3302.96 366.229 3288.09 366.229 3288.09 365.362C3288.61 364.097 3289.31 362.803 3290.18 361.478 3291.06 360.153 3292.31 358.593 3293.92 356.799 3295.32 355.257 3296.33 354.089 3296.94 353.294 3297.62 352.427 3298.12 351.677 3298.45 351.044 3298.78 350.412 3299.02 349.816 3299.16 349.256 3299.31 348.696 3299.38 348.133 3299.38 347.567 3299.38 346.663 3299.24 345.865 3298.95 345.173 3298.66 344.48 3298.21 343.935 3297.62 343.538 3297.02 343.14 3296.27 342.942 3295.37 342.942 3293.12 342.942 3291.6 344.194 3290.82 346.699L3288.63 346.699 3288.63 343.231C3290.09 342.544 3291.45 342.047 3292.72 341.74 3293.99 341.433 3295.13 341.28 3296.15 341.28Z" fill-rule="evenodd"/><text fill="#000000" fill-opacity="0" font-family="Arial,Arial_MSFontService,sans-serif" font-size="25.2388" x="3288.09" y="363.363">2𝜋</text><path d="M3296.09 391.418 3300.7 391.418 3300.7 391.983 3318.08 391.983 3318.08 393.983 3298.08 393.983 3298.08 393.821 3297.43 393.821 3287.71 427.027 3285.96 427.027 3278.48 410.948 3275.42 412.303 3274.86 410.948 3280.79 408.238 3287.17 422.258Z" fill-rule="evenodd"/><path d="M3308.63 399.03C3309.99 399.03 3311.19 399.24 3312.21 399.662 3313.23 400.083 3314.02 400.689 3314.56 401.478 3315.1 402.266 3315.37 403.209 3315.37 404.305 3315.37 405.329 3315.17 406.229 3314.76 407.006 3314.35 407.783 3313.77 408.46 3313.03 409.038 3312.29 409.616 3311.33 410.183 3310.15 410.737L3310.15 410.899C3310.88 411.032 3311.59 411.257 3312.27 411.577 3312.95 411.896 3313.56 412.308 3314.09 412.814 3314.62 413.32 3315.04 413.925 3315.36 414.63 3315.68 415.334 3315.84 416.138 3315.84 417.042 3315.84 418.439 3315.54 419.679 3314.93 420.763 3314.32 421.847 3313.39 422.703 3312.14 423.329 3310.88 423.955 3309.36 424.268 3307.57 424.268 3306.53 424.268 3305.41 424.151 3304.22 423.916 3303.02 423.681 3301.92 423.371 3300.92 422.986L3300.92 419.156 3303.09 419.156C3303.51 420.408 3304.06 421.317 3304.76 421.884 3305.45 422.45 3306.39 422.733 3307.58 422.733 3309.15 422.733 3310.33 422.305 3311.13 421.45 3311.94 420.595 3312.34 419.33 3312.34 417.656 3312.34 415.898 3311.81 414.555 3310.75 413.627 3309.69 412.7 3308.13 412.236 3306.08 412.236L3304.46 412.236 3304.46 410.646C3306.08 410.55 3307.46 410.237 3308.57 409.707 3309.68 409.177 3310.51 408.496 3311.05 407.665 3311.6 406.834 3311.87 405.901 3311.87 404.865 3311.87 403.528 3311.51 402.498 3310.8 401.776 3310.09 401.053 3309.05 400.692 3307.69 400.692 3306.56 400.692 3305.64 400.999 3304.93 401.613 3304.22 402.227 3303.69 403.167 3303.36 404.431L3301.19 404.431 3301.19 400.999C3302.59 400.336 3303.89 399.843 3305.11 399.517 3306.33 399.192 3307.5 399.03 3308.63 399.03Z" fill-rule="evenodd"/><text fill="#000000" fill-opacity="0" font-family="Arial,Arial_MSFontService,sans-serif" font-size="25.2388" x="3300.92" y="421.113">3</text><path d="M3329.95 407.828C3328.71 407.828 3327.59 408.328 3326.61 409.327 3325.62 410.327 3324.85 411.667 3324.29 413.347 3323.74 415.027 3323.46 416.704 3323.46 418.379 3323.46 419.631 3323.63 420.568 3323.98 421.188 3324.32 421.808 3324.9 422.118 3325.7 422.118 3326.5 422.118 3327.28 421.775 3328.04 421.089 3328.81 420.402 3329.6 419.423 3330.41 418.153 3331.22 416.882 3331.8 415.416 3332.14 413.754L3332.3 412.977C3332.41 412.483 3332.48 412.055 3332.51 411.694 3332.55 411.333 3332.57 410.941 3332.57 410.52 3332.57 409.592 3332.37 408.912 3331.97 408.478 3331.57 408.045 3330.9 407.828 3329.95 407.828ZM3329.59 406.401C3330.37 406.401 3331.1 406.488 3331.78 406.663 3332.46 406.837 3333.16 407.147 3333.89 407.593L3335.55 406.401 3336.71 406.69 3334.05 418.144C3333.79 419.288 3333.65 420.179 3333.65 420.818 3333.65 421.299 3333.73 421.649 3333.89 421.865 3334.04 422.082 3334.29 422.191 3334.63 422.191 3334.99 422.191 3335.38 422.043 3335.78 421.748 3336.19 421.453 3336.77 420.89 3337.52 420.059L3338.55 421.071C3337.46 422.227 3336.54 423.049 3335.78 423.537 3335.01 424.024 3334.18 424.268 3333.29 424.268 3332.54 424.268 3331.95 424.021 3331.5 423.528 3331.06 423.034 3330.83 422.377 3330.83 421.558 3330.83 420.896 3330.97 420.191 3331.25 419.445L3331.01 419.372C3329.86 421.059 3328.76 422.293 3327.73 423.076 3326.69 423.859 3325.59 424.25 3324.44 424.25 3323.11 424.25 3322.09 423.75 3321.36 422.751 3320.63 421.751 3320.27 420.348 3320.27 418.541 3320.27 416.47 3320.67 414.479 3321.48 412.57 3322.3 410.661 3323.42 409.156 3324.84 408.054 3326.26 406.952 3327.84 406.401 3329.59 406.401Z" fill-rule="evenodd"/><text fill="#000000" fill-opacity="0" font-family="Arial,Arial_MSFontService,sans-serif" font-size="17.8677" x="3320.27" y="422.035">𝑎</text><path d="M3274.08 381.983 3307.08 381.983 3340.08 381.983 3340.08 383.983 3307.08 383.983 3274.08 383.983Z" fill-rule="evenodd"/><path d="M3194.83 1012.2 3201.28 1012.2 3203.34 1029.72 3213.87 1012.2 3219.56 1012.2 3219.36 1013.08C3218.91 1013.18 3218.58 1013.29 3218.38 1013.41 3218.18 1013.53 3218 1013.71 3217.84 1013.95 3217.68 1014.19 3217.51 1014.57 3217.35 1015.08 3217.19 1015.59 3216.98 1016.43 3216.73 1017.58L3213.64 1031.6C3213.48 1032.31 3213.38 1032.88 3213.33 1033.29 3213.28 1033.71 3213.26 1034.08 3213.26 1034.42 3213.26 1034.96 3213.39 1035.35 3213.66 1035.57 3213.94 1035.79 3214.39 1035.93 3215.03 1035.97L3214.83 1036.86 3207.6 1036.86 3207.8 1035.97C3208.26 1035.9 3208.6 1035.78 3208.83 1035.62 3209.06 1035.46 3209.25 1035.23 3209.41 1034.94 3209.57 1034.66 3209.71 1034.3 3209.84 1033.89 3209.98 1033.47 3210.18 1032.67 3210.44 1031.48L3212.84 1020.58C3213.18 1019.08 3213.57 1017.58 3214 1016.08L3213.75 1016.08C3213.37 1016.79 3212.53 1018.24 3211.22 1020.42L3203 1033.99 3201.03 1033.99 3199.53 1022.37C3199.31 1020.73 3199.07 1018.53 3198.81 1015.76L3198.44 1015.76C3198.03 1018.46 3197.58 1020.96 3197.07 1023.26L3195.23 1031.6C3194.98 1032.75 3194.85 1033.69 3194.85 1034.42 3194.85 1034.96 3194.98 1035.35 3195.26 1035.57 3195.53 1035.79 3195.98 1035.93 3196.62 1035.97L3196.42 1036.86 3190.1 1036.86 3190.3 1035.97C3190.75 1035.9 3191.1 1035.78 3191.33 1035.62 3191.55 1035.46 3191.75 1035.23 3191.9 1034.94 3192.06 1034.66 3192.2 1034.3 3192.34 1033.89 3192.47 1033.47 3192.67 1032.67 3192.93 1031.48L3196 1017.56C3196.13 1017.05 3196.22 1016.55 3196.29 1016.08 3196.37 1015.61 3196.4 1015.14 3196.4 1014.66 3196.4 1014.09 3196.26 1013.7 3195.98 1013.47 3195.69 1013.25 3195.25 1013.12 3194.63 1013.08Z" fill-rule="evenodd"/><text fill="#000000" fill-opacity="0" font-family="Arial,Arial_MSFontService,sans-serif" font-size="24.6606" x="3190.1" y="1033.78">𝑀</text><path d="M3383.03 979.124C3387.98 983.364 3391.91 989.687 3394.81 998.094 3397.72 1006.5 3399.18 1015.88 3399.18 1026.24 3399.18 1036.44 3397.72 1045.81 3394.81 1054.34 3391.91 1062.88 3387.98 1069.25 3383.03 1073.47L3382.18 1072.13C3386.45 1067.78 3389.75 1061.49 3392.06 1053.25 3394.37 1045.01 3395.53 1036.02 3395.53 1026.26 3395.53 1016.28 3394.37 1007.24 3392.04 999.142 3389.72 991.048 3386.43 984.827 3382.18 980.479ZM3246.24 979.124 3247.09 980.479C3242.83 984.827 3239.53 991.048 3237.22 999.142 3234.9 1007.24 3233.74 1016.28 3233.74 1026.26 3233.74 1036.02 3234.89 1045.01 3237.21 1053.25 3239.52 1061.49 3242.81 1067.78 3247.09 1072.13L3246.24 1073.47C3241.29 1069.25 3237.36 1062.88 3234.45 1054.34 3231.54 1045.81 3230.09 1036.44 3230.09 1026.24 3230.09 1015.88 3231.54 1006.5 3234.45 998.094 3237.36 989.687 3241.29 983.364 3246.24 979.124Z" fill-rule="evenodd"/><path d="M3258.33 1013.45C3257.5 1013.45 3256.81 1013.69 3256.25 1014.19 3255.69 1014.68 3255.24 1015.39 3254.89 1016.32 3254.55 1017.25 3254.31 1018.37 3254.16 1019.71 3254.02 1021.04 3253.94 1022.54 3253.94 1024.21 3253.94 1028.14 3254.31 1031.02 3255.04 1032.86 3255.77 1034.69 3256.9 1035.61 3258.43 1035.61 3259.88 1035.61 3260.96 1034.75 3261.67 1033.02 3262.37 1031.29 3262.72 1028.62 3262.72 1024.99 3262.72 1022.22 3262.54 1019.98 3262.18 1018.26 3261.82 1016.54 3261.32 1015.31 3260.67 1014.57 3260.03 1013.82 3259.25 1013.45 3258.33 1013.45ZM3258.43 1011.91C3261.06 1011.91 3263.03 1012.93 3264.31 1014.96 3265.6 1017 3266.25 1020.08 3266.25 1024.2 3266.25 1028.46 3265.56 1031.68 3264.18 1033.87 3262.8 1036.06 3260.79 1037.15 3258.14 1037.15 3255.53 1037.15 3253.6 1036.13 3252.33 1034.08 3251.06 1032.03 3250.42 1028.92 3250.42 1024.76 3250.42 1022.54 3250.62 1020.62 3251.01 1019.01 3251.4 1017.4 3251.95 1016.06 3252.65 1015.01 3253.36 1013.95 3254.2 1013.17 3255.19 1012.67 3256.18 1012.16 3257.26 1011.91 3258.43 1011.91Z" fill-rule="evenodd"/><text fill="#000000" fill-opacity="0" font-family="Arial,Arial_MSFontService,sans-serif" font-size="25.2388" x="3250.42" y="1033.99">0</text><path d="M3270.56 1032.67 3273.73 1032.67C3273.89 1033.51 3273.98 1034.34 3273.98 1035.16 3273.98 1036 3273.83 1036.78 3273.54 1037.47 3273.26 1038.17 3272.8 1038.87 3272.16 1039.56 3271.53 1040.25 3270.66 1041.02 3269.55 1041.85L3268.58 1040.74C3269.19 1040.17 3269.64 1039.65 3269.91 1039.18 3270.19 1038.72 3270.39 1038.19 3270.51 1037.6 3270.63 1037.01 3270.69 1036.27 3270.69 1035.38 3270.69 1034.46 3270.65 1033.56 3270.56 1032.67Z" fill-rule="evenodd"/><text fill="#000000" fill-opacity="0" font-family="Arial,Arial_MSFontService,sans-serif" font-size="9.17773" x="3268.58" y="1040.7">,</text><path d="M3284.4 1025.08 3306.66 1025.08 3306.66 1027.48 3284.4 1027.48Z" fill-rule="evenodd"/><text fill="#000000" fill-opacity="0" font-family="Arial,Arial_MSFontService,sans-serif" font-size="2.40283" x="3284.4" y="1027.18">−</text><path d="M3353.68 991.836 3368.52 991.836 3367.99 994.221 3363.69 994.221 3361.65 1003.27C3361.39 1004.45 3361.25 1005.34 3361.25 1005.95 3361.25 1006.43 3361.33 1006.78 3361.49 1006.99 3361.65 1007.21 3361.89 1007.32 3362.23 1007.32 3362.95 1007.32 3363.8 1006.74 3364.78 1005.58L3365.83 1006.56C3364.91 1007.56 3364.08 1008.28 3363.32 1008.73 3362.57 1009.17 3361.77 1009.4 3360.91 1009.4 3360.09 1009.4 3359.45 1009.12 3358.98 1008.56 3358.51 1008 3358.27 1007.26 3358.27 1006.34 3358.27 1005.54 3358.44 1004.37 3358.78 1002.84L3359.18 1001.01C3359.38 1000.05 3359.67 998.888 3360.05 997.527 3360.43 996.166 3360.76 995.118 3361.04 994.384L3360.95 994.221 3355.64 994.221 3353.41 1004.5C3353.23 1005.31 3353.02 1006.18 3352.78 1007.11 3352.54 1008.04 3352.35 1008.71 3352.22 1009.11L3348.39 1009.11 3348.57 1008.22C3349.85 1006.96 3351.03 1003.99 3352.11 999.334L3353.31 994.221 3352.73 994.221C3351.87 994.221 3351.15 994.366 3350.56 994.655 3349.97 994.944 3349.32 995.522 3348.63 996.389L3347.49 995.431C3348.11 994.673 3348.63 994.095 3349.02 993.697 3349.42 993.3 3349.84 992.962 3350.28 992.685 3350.72 992.408 3351.21 992.198 3351.76 992.053 3352.31 991.909 3352.95 991.836 3353.68 991.836ZM3337.24 984.158C3339.48 984.158 3341.18 984.649 3342.32 985.63 3343.46 986.612 3344.04 988.036 3344.04 989.903 3344.04 990.542 3343.97 991.129 3343.85 991.665 3343.72 992.201 3343.52 992.731 3343.25 993.254 3342.98 993.778 3342.62 994.341 3342.16 994.944 3341.7 995.546 3341.19 996.157 3340.64 996.777 3340.09 997.398 3339.13 998.43 3337.77 999.876 3335.48 1002.3 3333.8 1004.41 3332.73 1006.22L3339.54 1006.22C3340.13 1006.22 3340.6 1006.18 3340.97 1006.11 3341.33 1006.04 3341.62 1005.92 3341.83 1005.75 3342.05 1005.58 3342.22 1005.36 3342.35 1005.09 3342.47 1004.82 3342.63 1004.4 3342.83 1003.83L3344.36 1003.83 3344.05 1009.11 3329.19 1009.11 3329.19 1008.24C3329.7 1006.98 3330.4 1005.68 3331.28 1004.36 3332.16 1003.03 3333.41 1001.47 3335.02 999.677 3336.42 998.135 3337.42 996.967 3338.04 996.172 3338.71 995.305 3339.22 994.555 3339.55 993.923 3339.88 993.291 3340.12 992.694 3340.26 992.134 3340.41 991.574 3340.48 991.011 3340.48 990.445 3340.48 989.542 3340.33 988.744 3340.04 988.051 3339.76 987.359 3339.31 986.814 3338.72 986.416 3338.12 986.019 3337.37 985.82 3336.47 985.82 3334.21 985.82 3332.7 987.073 3331.91 989.578L3329.73 989.578 3329.73 986.109C3331.19 985.423 3332.55 984.926 3333.82 984.619 3335.09 984.312 3336.23 984.158 3337.24 984.158Z" fill-rule="evenodd"/><text fill="#000000" fill-opacity="0" font-family="Arial,Arial_MSFontService,sans-serif" font-size="25.2388" x="3329.19" y="1006.24">2𝜋</text><path d="M3337.19 1034.3 3341.8 1034.3 3341.8 1034.86 3359.38 1034.86 3359.38 1036.86 3339.38 1036.86 3339.38 1036.7 3338.53 1036.7 3328.81 1069.91 3327.05 1069.91 3319.57 1053.83 3316.52 1055.18 3315.96 1053.83 3321.89 1051.12 3328.26 1065.14Z" fill-rule="evenodd"/><path d="M3349.73 1041.91C3351.09 1041.91 3352.28 1042.12 3353.31 1042.54 3354.33 1042.96 3355.11 1043.57 3355.66 1044.36 3356.2 1045.15 3356.47 1046.09 3356.47 1047.18 3356.47 1048.21 3356.26 1049.11 3355.85 1049.88 3355.45 1050.66 3354.87 1051.34 3354.13 1051.92 3353.39 1052.49 3352.43 1053.06 3351.25 1053.62L3351.25 1053.78C3351.98 1053.91 3352.69 1054.14 3353.37 1054.46 3354.05 1054.77 3354.66 1055.19 3355.19 1055.69 3355.72 1056.2 3356.14 1056.8 3356.46 1057.51 3356.78 1058.21 3356.94 1059.02 3356.94 1059.92 3356.94 1061.32 3356.63 1062.56 3356.03 1063.64 3355.42 1064.73 3354.49 1065.58 3353.23 1066.21 3351.98 1066.83 3350.46 1067.15 3348.66 1067.15 3347.63 1067.15 3346.51 1067.03 3345.31 1066.79 3344.11 1066.56 3343.02 1066.25 3342.02 1065.86L3342.02 1062.03 3344.18 1062.03C3344.61 1063.29 3345.16 1064.2 3345.85 1064.76 3346.55 1065.33 3347.49 1065.61 3348.68 1065.61 3350.25 1065.61 3351.43 1065.18 3352.23 1064.33 3353.03 1063.47 3353.43 1062.21 3353.43 1060.53 3353.43 1058.78 3352.9 1057.43 3351.84 1056.51 3350.78 1055.58 3349.23 1055.11 3347.18 1055.11L3345.56 1055.11 3345.56 1053.52C3347.18 1053.43 3348.55 1053.12 3349.67 1052.59 3350.78 1052.06 3351.61 1051.37 3352.15 1050.54 3352.69 1049.71 3352.96 1048.78 3352.96 1047.74 3352.96 1046.41 3352.61 1045.38 3351.9 1044.65 3351.19 1043.93 3350.15 1043.57 3348.79 1043.57 3347.66 1043.57 3346.74 1043.88 3346.03 1044.49 3345.32 1045.11 3344.79 1046.05 3344.45 1047.31L3342.29 1047.31 3342.29 1043.88C3343.68 1043.21 3344.99 1042.72 3346.21 1042.4 3347.42 1042.07 3348.6 1041.91 3349.73 1041.91Z" fill-rule="evenodd"/><text fill="#000000" fill-opacity="0" font-family="Arial,Arial_MSFontService,sans-serif" font-size="25.2388" x="3342.02" y="1063.99">3</text><path d="M3371.05 1050.71C3369.81 1050.71 3368.69 1051.21 3367.7 1052.21 3366.72 1053.21 3365.95 1054.55 3365.39 1056.23 3364.84 1057.91 3364.56 1059.58 3364.56 1061.26 3364.56 1062.51 3364.73 1063.45 3365.08 1064.07 3365.42 1064.69 3365.99 1065 3366.8 1065 3367.6 1065 3368.38 1064.65 3369.14 1063.97 3369.91 1063.28 3370.69 1062.3 3371.51 1061.03 3372.32 1059.76 3372.9 1058.29 3373.23 1056.63L3373.4 1055.86C3373.5 1055.36 3373.58 1054.93 3373.61 1054.57 3373.65 1054.21 3373.67 1053.82 3373.67 1053.4 3373.67 1052.47 3373.47 1051.79 3373.07 1051.36 3372.67 1050.92 3372 1050.71 3371.05 1050.71ZM3370.69 1049.28C3371.47 1049.28 3372.2 1049.37 3372.88 1049.54 3373.56 1049.72 3374.26 1050.03 3374.99 1050.47L3376.65 1049.28 3377.8 1049.57 3375.15 1061.02C3374.88 1062.17 3374.75 1063.06 3374.75 1063.7 3374.75 1064.18 3374.83 1064.53 3374.99 1064.74 3375.14 1064.96 3375.39 1065.07 3375.73 1065.07 3376.09 1065.07 3376.47 1064.92 3376.88 1064.63 3377.29 1064.33 3377.87 1063.77 3378.62 1062.94L3379.65 1063.95C3378.56 1065.11 3377.64 1065.93 3376.87 1066.42 3376.11 1066.9 3375.28 1067.15 3374.39 1067.15 3373.64 1067.15 3373.05 1066.9 3372.6 1066.41 3372.15 1065.91 3371.93 1065.26 3371.93 1064.44 3371.93 1063.77 3372.07 1063.07 3372.35 1062.32L3372.11 1062.25C3370.96 1063.94 3369.86 1065.17 3368.82 1065.95 3367.79 1066.74 3366.69 1067.13 3365.54 1067.13 3364.21 1067.13 3363.18 1066.63 3362.46 1065.63 3361.73 1064.63 3361.36 1063.23 3361.36 1061.42 3361.36 1059.35 3361.77 1057.36 3362.58 1055.45 3363.4 1053.54 3364.51 1052.03 3365.93 1050.93 3367.35 1049.83 3368.94 1049.28 3370.69 1049.28Z" fill-rule="evenodd"/><text fill="#000000" fill-opacity="0" font-family="Arial,Arial_MSFontService,sans-serif" font-size="17.8677" x="3361.36" y="1064.91">𝑎</text><path d="M3315.38 1024.86 3348.38 1024.86 3381.38 1024.86 3381.38 1026.86 3348.38 1026.86 3315.38 1026.86Z" fill-rule="evenodd"/><path d="M2324.39 626.222 2330.84 626.222 2332.9 643.746 2343.44 626.222 2349.13 626.222 2348.93 627.107C2348.47 627.203 2348.14 627.312 2347.94 627.432 2347.74 627.552 2347.56 627.733 2347.4 627.974 2347.24 628.215 2347.08 628.591 2346.91 629.103 2346.75 629.615 2346.54 630.449 2346.29 631.605L2343.2 645.625C2343.04 646.336 2342.94 646.899 2342.89 647.314 2342.85 647.73 2342.82 648.106 2342.82 648.443 2342.82 648.985 2342.96 649.368 2343.23 649.59 2343.5 649.813 2343.95 649.949 2344.59 649.997L2344.39 650.882 2337.17 650.882 2337.37 649.997C2337.82 649.925 2338.17 649.807 2338.4 649.645 2338.62 649.482 2338.82 649.256 2338.97 648.967 2339.13 648.678 2339.27 648.326 2339.41 647.91 2339.54 647.495 2339.74 646.691 2340 645.498L2342.41 634.604C2342.74 633.099 2343.13 631.599 2343.56 630.106L2343.31 630.106C2342.94 630.816 2342.09 632.262 2340.78 634.442L2332.56 648.01 2330.59 648.01 2329.09 636.393C2328.87 634.755 2328.63 632.551 2328.37 629.781L2328.01 629.781C2327.6 632.479 2327.14 634.978 2326.63 637.278L2324.79 645.625C2324.54 646.769 2324.41 647.709 2324.41 648.443 2324.41 648.985 2324.55 649.368 2324.82 649.59 2325.09 649.813 2325.54 649.949 2326.18 649.997L2325.98 650.882 2319.66 650.882 2319.86 649.997C2320.32 649.925 2320.66 649.807 2320.89 649.645 2321.12 649.482 2321.31 649.256 2321.47 648.967 2321.62 648.678 2321.77 648.326 2321.9 647.91 2322.03 647.495 2322.23 646.691 2322.5 645.498L2325.57 631.587C2325.69 631.069 2325.78 630.576 2325.86 630.106 2325.93 629.636 2325.97 629.16 2325.97 628.679 2325.97 628.112 2325.82 627.718 2325.54 627.495 2325.26 627.272 2324.81 627.143 2324.2 627.107Z" fill-rule="evenodd"/><text fill="#000000" fill-opacity="0" font-family="Arial,Arial_MSFontService,sans-serif" font-size="24.6606" x="2319.66" y="647.8">𝑀</text><path d="M2495.65 593.147C2500.6 597.386 2504.53 603.71 2507.44 612.117 2510.35 620.523 2511.81 629.906 2511.81 640.264 2511.81 650.466 2510.35 659.833 2507.44 668.366 2504.53 676.9 2500.6 683.274 2495.65 687.49L2494.8 686.153C2499.08 681.805 2502.37 675.512 2504.69 667.273 2507 659.035 2508.16 650.038 2508.16 640.282 2508.16 630.297 2506.99 621.258 2504.67 613.164 2502.34 605.071 2499.06 598.85 2494.8 594.502ZM2375.8 593.147 2376.65 594.502C2372.39 598.85 2369.1 605.071 2366.78 613.164 2364.46 621.258 2363.3 630.297 2363.3 640.282 2363.3 650.038 2364.46 659.035 2366.77 667.273 2369.08 675.512 2372.38 681.805 2376.65 686.153L2375.8 687.49C2370.85 683.274 2366.92 676.9 2364.01 668.366 2361.11 659.833 2359.65 650.466 2359.65 640.264 2359.65 629.906 2361.11 620.523 2364.01 612.117 2366.92 603.71 2370.85 597.386 2375.8 593.147Z" fill-rule="evenodd"/><path d="M2380.35 639.103 2402.6 639.103 2402.6 641.506 2380.35 641.506Z" fill-rule="evenodd"/><text fill="#000000" fill-opacity="0" font-family="Arial,Arial_MSFontService,sans-serif" font-size="2.40283" x="2380.35" y="641.205">−</text><path d="M2438.1 605.859 2452.93 605.859 2452.41 608.243 2448.11 608.243 2446.07 617.295C2445.8 618.475 2445.67 619.366 2445.67 619.969 2445.67 620.45 2445.75 620.8 2445.91 621.016 2446.06 621.233 2446.31 621.342 2446.65 621.342 2447.37 621.342 2448.22 620.763 2449.19 619.607L2450.24 620.583C2449.33 621.582 2448.49 622.305 2447.74 622.751 2446.99 623.196 2446.18 623.419 2445.33 623.419 2444.51 623.419 2443.87 623.139 2443.4 622.579 2442.93 622.019 2442.69 621.281 2442.69 620.366 2442.69 619.559 2442.86 618.391 2443.2 616.861L2443.59 615.036C2443.8 614.073 2444.09 612.911 2444.47 611.55 2444.85 610.189 2445.18 609.141 2445.46 608.406L2445.36 608.243 2440.05 608.243 2437.83 618.523C2437.65 619.33 2437.44 620.2 2437.2 621.134 2436.96 622.067 2436.77 622.733 2436.64 623.13L2432.81 623.13 2432.99 622.245C2434.27 620.98 2435.45 618.017 2436.53 613.356L2437.72 608.243 2437.14 608.243C2436.29 608.243 2435.57 608.388 2434.98 608.677 2434.39 608.966 2433.74 609.544 2433.04 610.411L2431.91 609.454C2432.53 608.695 2433.04 608.117 2433.44 607.719 2433.84 607.322 2434.26 606.985 2434.7 606.708 2435.14 606.431 2435.63 606.22 2436.18 606.075 2436.73 605.931 2437.37 605.859 2438.1 605.859ZM2421.66 598.18C2423.9 598.18 2425.59 598.671 2426.74 599.653 2427.88 600.634 2428.45 602.059 2428.45 603.926 2428.45 604.564 2428.39 605.151 2428.26 605.687 2428.14 606.223 2427.94 606.753 2427.67 607.277 2427.4 607.801 2427.03 608.364 2426.58 608.966 2426.12 609.568 2425.61 610.18 2425.06 610.8 2424.5 611.42 2423.55 612.453 2422.19 613.898 2419.9 616.319 2418.22 618.433 2417.14 620.24L2423.96 620.24C2424.55 620.24 2425.02 620.203 2425.38 620.131 2425.74 620.059 2426.03 619.938 2426.25 619.77 2426.47 619.601 2426.64 619.381 2426.76 619.11 2426.89 618.839 2427.05 618.421 2427.24 617.855L2428.78 617.855 2428.47 623.13 2413.6 623.13 2413.6 622.263C2414.12 620.998 2414.82 619.704 2415.7 618.379 2416.58 617.054 2417.82 615.494 2419.44 613.699 2420.84 612.158 2421.84 610.99 2422.46 610.195 2423.13 609.327 2423.63 608.578 2423.96 607.945 2424.3 607.313 2424.53 606.717 2424.68 606.157 2424.82 605.597 2424.9 605.034 2424.9 604.468 2424.9 603.564 2424.75 602.766 2424.46 602.074 2424.17 601.381 2423.73 600.836 2423.13 600.439 2422.54 600.041 2421.79 599.843 2420.88 599.843 2418.63 599.843 2417.11 601.095 2416.33 603.6L2414.15 603.6 2414.15 600.132C2415.6 599.445 2416.97 598.948 2418.24 598.641 2419.51 598.334 2420.65 598.18 2421.66 598.18Z" fill-rule="evenodd"/><text fill="#000000" fill-opacity="0" font-family="Arial,Arial_MSFontService,sans-serif" font-size="25.2388" x="2413.6" y="620.264">2𝜋</text><path d="M2435.58 667.165C2433.14 667.189 2431.31 667.514 2430.09 668.14 2428.87 668.767 2428.26 669.712 2428.26 670.977 2428.26 671.663 2428.4 672.205 2428.68 672.603 2428.96 673 2429.31 673.274 2429.73 673.425 2430.15 673.575 2430.65 673.651 2431.23 673.651 2432.05 673.651 2432.79 673.452 2433.46 673.054 2434.13 672.657 2434.65 672.151 2435.02 671.537 2435.39 670.923 2435.58 670.314 2435.58 669.712ZM2433.63 657.824C2434.82 657.824 2435.78 658.014 2436.5 658.393 2437.23 658.773 2437.77 659.354 2438.13 660.137 2438.49 660.92 2438.67 662.1 2438.67 663.678L2438.67 669.965C2438.67 670.856 2438.68 671.486 2438.69 671.853 2438.7 672.22 2438.74 672.561 2438.8 672.874 2438.86 673.187 2438.95 673.437 2439.07 673.623 2439.19 673.81 2439.37 673.97 2439.6 674.102 2439.84 674.235 2440.22 674.373 2440.75 674.518L2440.75 675.403 2435.8 675.403 2435.89 672.82 2435.62 672.747C2434.57 673.819 2433.59 674.578 2432.66 675.024 2431.74 675.469 2430.76 675.692 2429.73 675.692 2428.81 675.692 2428.01 675.514 2427.31 675.159 2426.61 674.804 2426.07 674.304 2425.7 673.66 2425.33 673.015 2425.14 672.271 2425.14 671.428 2425.14 669.67 2426.01 668.312 2427.75 667.354 2429.49 666.397 2432.1 665.84 2435.58 665.683L2435.58 664.509C2435.58 663.256 2435.46 662.269 2435.22 661.546 2434.98 660.823 2434.6 660.293 2434.08 659.956 2433.56 659.619 2432.87 659.45 2432 659.45 2431.06 659.45 2430.31 659.697 2429.74 660.191 2429.17 660.685 2428.73 661.426 2428.45 662.413L2426.08 662.413 2426.08 660.065C2427.23 659.462 2428.2 659.02 2428.97 658.737 2429.74 658.454 2430.51 658.231 2431.28 658.068 2432.05 657.906 2432.84 657.824 2433.63 657.824Z" fill-rule="evenodd"/><text fill="#000000" fill-opacity="0" font-family="Arial,Arial_MSFontService,sans-serif" font-size="17.8677" x="2425.14" y="673.459">a</text><path d="M2411.67 638.884 2454.67 638.884 2454.67 640.884 2411.67 640.884Z" fill-rule="evenodd"/><path d="M2462.41 646.691 2465.58 646.691C2465.75 647.534 2465.83 648.365 2465.83 649.184 2465.83 650.027 2465.68 650.798 2465.4 651.496 2465.11 652.195 2464.65 652.891 2464.01 653.583 2463.38 654.276 2462.51 655.037 2461.4 655.869L2460.43 654.766C2461.04 654.188 2461.49 653.667 2461.76 653.204 2462.04 652.74 2462.24 652.213 2462.36 651.623 2462.48 651.033 2462.54 650.292 2462.54 649.401 2462.54 648.485 2462.5 647.582 2462.41 646.691Z" fill-rule="evenodd"/><text fill="#000000" fill-opacity="0" font-family="Arial,Arial_MSFontService,sans-serif" font-size="9.17773" x="2460.43" y="654.721">,</text><path d="M2483.8 627.468C2482.97 627.468 2482.28 627.715 2481.72 628.209 2481.16 628.703 2480.71 629.413 2480.36 630.341 2480.02 631.268 2479.78 632.397 2479.63 633.728 2479.49 635.059 2479.41 636.562 2479.41 638.236 2479.41 642.162 2479.78 645.044 2480.51 646.88 2481.24 648.717 2482.36 649.636 2483.89 649.636 2485.35 649.636 2486.43 648.771 2487.14 647.043 2487.84 645.315 2488.19 642.638 2488.19 639.013 2488.19 636.242 2488.01 633.999 2487.65 632.283 2487.29 630.567 2486.79 629.335 2486.14 628.588 2485.5 627.841 2484.72 627.468 2483.8 627.468ZM2483.89 625.932C2486.53 625.932 2488.5 626.95 2489.78 628.986 2491.07 631.021 2491.72 634.099 2491.72 638.218 2491.72 642.481 2491.03 645.706 2489.65 647.892 2488.27 650.078 2486.26 651.171 2483.61 651.171 2481 651.171 2479.07 650.148 2477.8 648.1 2476.53 646.052 2475.89 642.945 2475.89 638.778 2475.89 636.562 2476.09 634.647 2476.48 633.033 2476.87 631.419 2477.42 630.085 2478.12 629.031 2478.83 627.977 2479.67 627.197 2480.66 626.691 2481.65 626.185 2482.73 625.932 2483.89 625.932Z" fill-rule="evenodd"/><text fill="#000000" fill-opacity="0" font-family="Arial,Arial_MSFontService,sans-serif" font-size="25.2388" x="2475.89" y="648.016">0</text><path d="M3880.72 676.135 3887.17 676.135 3889.23 693.66 3899.76 676.135 3905.46 676.135 3905.26 677.021C3904.8 677.117 3904.47 677.226 3904.27 677.346 3904.07 677.466 3903.89 677.647 3903.73 677.888 3903.57 678.129 3903.4 678.505 3903.24 679.017 3903.08 679.529 3902.87 680.363 3902.62 681.519L3899.53 695.539C3899.37 696.249 3899.27 696.812 3899.22 697.228 3899.17 697.644 3899.15 698.02 3899.15 698.357 3899.15 698.899 3899.29 699.282 3899.56 699.504 3899.83 699.727 3900.28 699.863 3900.92 699.911L3900.72 700.796 3893.5 700.796 3893.69 699.911C3894.15 699.839 3894.49 699.721 3894.72 699.559 3894.95 699.396 3895.15 699.17 3895.3 698.881 3895.46 698.592 3895.6 698.24 3895.74 697.824 3895.87 697.409 3896.07 696.605 3896.33 695.412L3898.73 684.518C3899.07 683.013 3899.46 681.513 3899.89 680.02L3899.64 680.02C3899.26 680.73 3898.42 682.176 3897.11 684.356L3888.89 697.924 3886.92 697.924 3885.42 686.307C3885.2 684.669 3884.96 682.465 3884.7 679.695L3884.34 679.695C3883.93 682.393 3883.47 684.892 3882.96 687.192L3881.12 695.539C3880.87 696.683 3880.74 697.622 3880.74 698.357 3880.74 698.899 3880.88 699.282 3881.15 699.504 3881.42 699.727 3881.87 699.863 3882.51 699.911L3882.31 700.796 3875.99 700.796 3876.19 699.911C3876.65 699.839 3876.99 699.721 3877.22 699.559 3877.45 699.396 3877.64 699.17 3877.8 698.881 3877.95 698.592 3878.1 698.24 3878.23 697.824 3878.36 697.409 3878.56 696.605 3878.83 695.412L3881.9 681.501C3882.02 680.983 3882.11 680.49 3882.19 680.02 3882.26 679.55 3882.29 679.074 3882.29 678.593 3882.29 678.026 3882.15 677.632 3881.87 677.409 3881.59 677.186 3881.14 677.057 3880.52 677.021Z" fill-rule="evenodd"/><text fill="#000000" fill-opacity="0" font-family="Arial,Arial_MSFontService,sans-serif" font-size="24.6606" x="3875.99" y="697.714">𝑀</text><path d="M4012.25 643.061C4017.2 647.3 4021.12 653.624 4024.03 662.03 4026.94 670.437 4028.4 679.82 4028.4 690.178 4028.4 700.379 4026.94 709.747 4024.03 718.28 4021.12 726.814 4017.2 733.188 4012.25 737.404L4011.4 736.067C4015.67 731.719 4018.97 725.425 4021.28 717.187 4023.59 708.949 4024.75 699.952 4024.75 690.196 4024.75 680.211 4023.58 671.172 4021.26 663.078 4018.94 654.985 4015.65 648.764 4011.4 644.416ZM3932.13 643.061 3932.98 644.416C3928.72 648.764 3925.43 654.985 3923.11 663.078 3920.79 671.172 3919.63 680.211 3919.63 690.196 3919.63 699.952 3920.79 708.949 3923.1 717.187 3925.41 725.425 3928.71 731.719 3932.98 736.067L3932.13 737.404C3927.18 733.188 3923.25 726.814 3920.34 718.28 3917.43 709.747 3915.98 700.379 3915.98 690.178 3915.98 679.82 3917.43 670.437 3920.34 662.03 3923.25 653.624 3927.18 647.3 3932.13 643.061Z" fill-rule="evenodd"/><path d="M3944.23 677.382C3943.4 677.382 3942.7 677.629 3942.14 678.123 3941.58 678.617 3941.13 679.327 3940.78 680.255 3940.44 681.182 3940.2 682.311 3940.05 683.642 3939.91 684.973 3939.84 686.476 3939.84 688.15 3939.84 692.076 3940.2 694.958 3940.93 696.794 3941.66 698.631 3942.79 699.55 3944.32 699.55 3945.77 699.55 3946.85 698.685 3947.56 696.957 3948.26 695.229 3948.62 692.552 3948.62 688.927 3948.62 686.156 3948.44 683.913 3948.07 682.197 3947.71 680.48 3947.21 679.249 3946.57 678.502 3945.92 677.755 3945.14 677.382 3944.23 677.382ZM3944.32 675.846C3946.95 675.846 3948.92 676.864 3950.21 678.9 3951.5 680.935 3952.14 684.012 3952.14 688.132 3952.14 692.395 3951.45 695.62 3950.07 697.806 3948.69 699.992 3946.68 701.085 3944.03 701.085 3941.43 701.085 3939.49 700.061 3938.22 698.014 3936.95 695.966 3936.31 692.859 3936.31 688.692 3936.31 686.476 3936.51 684.56 3936.9 682.947 3937.29 681.333 3937.84 679.999 3938.54 678.945 3939.25 677.891 3940.1 677.111 3941.08 676.605 3942.07 676.099 3943.15 675.846 3944.32 675.846Z" fill-rule="evenodd"/><text fill="#000000" fill-opacity="0" font-family="Arial,Arial_MSFontService,sans-serif" font-size="25.2388" x="3936.31" y="697.93">0</text><path d="M3956.46 696.605 3959.62 696.605C3959.79 697.448 3959.87 698.279 3959.87 699.098 3959.87 699.941 3959.73 700.712 3959.44 701.41 3959.15 702.109 3958.69 702.805 3958.05 703.497 3957.42 704.19 3956.55 704.951 3955.44 705.782L3954.47 704.68C3955.08 704.102 3955.53 703.581 3955.81 703.118 3956.08 702.654 3956.28 702.127 3956.4 701.537 3956.52 700.947 3956.58 700.206 3956.58 699.315 3956.58 698.399 3956.54 697.496 3956.46 696.605Z" fill-rule="evenodd"/><text fill="#000000" fill-opacity="0" font-family="Arial,Arial_MSFontService,sans-serif" font-size="9.17773" x="3954.47" y="704.635">,</text><path d="M3994.43 655.773 4009.26 655.773 4008.74 658.157 4004.44 658.157 4002.4 667.209C4002.13 668.389 4002 669.28 4002 669.882 4002 670.364 4002.08 670.714 4002.24 670.93 4002.39 671.147 4002.64 671.255 4002.98 671.255 4003.7 671.255 4004.55 670.677 4005.52 669.521L4006.57 670.497C4005.66 671.496 4004.82 672.219 4004.07 672.665 4003.32 673.11 4002.51 673.333 4001.66 673.333 4000.84 673.333 4000.19 673.053 3999.72 672.493 3999.25 671.933 3999.02 671.195 3999.02 670.28 3999.02 669.473 3999.19 668.305 3999.53 666.775L3999.92 664.95C4000.13 663.987 4000.42 662.825 4000.8 661.464 4001.18 660.102 4001.51 659.055 4001.78 658.32L4001.69 658.157 3996.38 658.157 3994.16 668.437C3993.98 669.244 3993.77 670.114 3993.53 671.048 3993.29 671.981 3993.1 672.647 3992.97 673.044L3989.14 673.044 3989.32 672.159C3990.59 670.894 3991.77 667.931 3992.86 663.27L3994.05 658.157 3993.47 658.157C3992.62 658.157 3991.9 658.302 3991.3 658.591 3990.71 658.88 3990.07 659.458 3989.37 660.325L3988.23 659.368C3988.86 658.609 3989.37 658.031 3989.77 657.633 3990.17 657.236 3990.59 656.899 3991.02 656.622 3991.46 656.345 3991.96 656.134 3992.51 655.989 3993.05 655.845 3993.7 655.773 3994.43 655.773ZM3977.99 648.094C3980.23 648.094 3981.92 648.585 3983.07 649.567 3984.21 650.548 3984.78 651.973 3984.78 653.839 3984.78 654.478 3984.72 655.065 3984.59 655.601 3984.47 656.137 3984.27 656.667 3984 657.191 3983.73 657.715 3983.36 658.278 3982.9 658.88 3982.45 659.482 3981.94 660.093 3981.39 660.714 3980.83 661.334 3979.87 662.367 3978.51 663.812 3976.23 666.233 3974.54 668.347 3973.47 670.153L3980.28 670.153C3980.87 670.153 3981.35 670.117 3981.71 670.045 3982.07 669.973 3982.36 669.852 3982.58 669.684 3982.8 669.515 3982.97 669.295 3983.09 669.024 3983.22 668.753 3983.38 668.335 3983.57 667.769L3985.11 667.769 3984.8 673.044 3969.93 673.044 3969.93 672.177C3970.45 670.912 3971.15 669.617 3972.03 668.293 3972.91 666.968 3974.15 665.408 3975.77 663.613 3977.16 662.072 3978.17 660.903 3978.78 660.109 3979.46 659.241 3979.96 658.492 3980.29 657.859 3980.62 657.227 3980.86 656.631 3981.01 656.071 3981.15 655.511 3981.22 654.948 3981.22 654.381 3981.22 653.478 3981.08 652.68 3980.79 651.988 3980.5 651.295 3980.06 650.75 3979.46 650.353 3978.87 649.955 3978.12 649.756 3977.21 649.756 3974.96 649.756 3973.44 651.009 3972.66 653.514L3970.47 653.514 3970.47 650.046C3971.93 649.359 3973.3 648.862 3974.57 648.555 3975.84 648.248 3976.98 648.094 3977.99 648.094Z" fill-rule="evenodd"/><text fill="#000000" fill-opacity="0" font-family="Arial,Arial_MSFontService,sans-serif" font-size="25.2388" x="3969.93" y="670.178">2𝜋</text><path d="M3991.91 717.079C3989.46 717.103 3987.63 717.428 3986.42 718.054 3985.2 718.681 3984.59 719.626 3984.59 720.891 3984.59 721.577 3984.73 722.119 3985.01 722.517 3985.29 722.914 3985.63 723.188 3986.06 723.339 3986.48 723.489 3986.98 723.565 3987.56 723.565 3988.38 723.565 3989.12 723.366 3989.79 722.968 3990.46 722.571 3990.98 722.065 3991.35 721.451 3991.72 720.836 3991.91 720.228 3991.91 719.626ZM3989.96 707.738C3991.15 707.738 3992.11 707.928 3992.83 708.307 3993.55 708.687 3994.1 709.268 3994.46 710.051 3994.82 710.834 3995 712.014 3995 713.592L3995 719.879C3995 720.77 3995.01 721.4 3995.02 721.767 3995.03 722.134 3995.07 722.474 3995.13 722.788 3995.19 723.101 3995.28 723.351 3995.4 723.537 3995.52 723.724 3995.69 723.884 3995.93 724.016 3996.16 724.149 3996.55 724.287 3997.08 724.432L3997.08 725.317 3992.13 725.317 3992.22 722.733 3991.95 722.661C3990.9 723.733 3989.91 724.492 3988.99 724.938 3988.07 725.383 3987.09 725.606 3986.06 725.606 3985.14 725.606 3984.33 725.428 3983.64 725.073 3982.94 724.718 3982.4 724.218 3982.03 723.574 3981.65 722.929 3981.47 722.185 3981.47 721.342 3981.47 719.584 3982.34 718.226 3984.08 717.268 3985.82 716.311 3988.43 715.754 3991.91 715.597L3991.91 714.423C3991.91 713.17 3991.79 712.183 3991.55 711.46 3991.31 710.737 3990.93 710.207 3990.41 709.87 3989.89 709.533 3989.2 709.364 3988.33 709.364 3987.39 709.364 3986.64 709.611 3986.07 710.105 3985.49 710.599 3985.06 711.34 3984.77 712.327L3982.41 712.327 3982.41 709.979C3983.56 709.376 3984.53 708.934 3985.3 708.651 3986.07 708.368 3986.84 708.145 3987.61 707.982 3988.38 707.82 3989.16 707.738 3989.96 707.738Z" fill-rule="evenodd"/><text fill="#000000" fill-opacity="0" font-family="Arial,Arial_MSFontService,sans-serif" font-size="17.8677" x="3981.47" y="723.373">a</text><path d="M3967.92 688.798 4010.92 688.798 4010.92 690.798 3967.92 690.798Z" fill-rule="evenodd"/><path d="M2497.5 709.5C2497.5 704.529 2501.53 700.5 2506.5 700.5 2511.47 700.5 2515.5 704.529 2515.5 709.5 2515.5 714.471 2511.47 718.5 2506.5 718.5 2501.53 718.5 2497.5 714.471 2497.5 709.5Z" stroke="#042433" stroke-width="6.875" stroke-miterlimit="8" fill="#156082" fill-rule="evenodd"/><path d="M3183.59 707.064 3363.89 711.953 3363.71 718.826 3183.41 713.936ZM3359.59 701.52 3386.71 716.011 3358.85 729.01Z" fill="#156082"/><path d="M3.4375-8.2606e-06 3.43781 127.262-3.43719 127.262-3.4375 8.2606e-06ZM13.7503 122.679 0.000360892 150.179-13.7497 122.679Z" fill="#156082" transform="matrix(1 0 0 -1 3184.5 705.679)"/><text font-family="Aptos,Aptos_MSFontService,sans-serif" font-weight="400" font-size="46" transform="matrix(1 0 0 1 3166 759)">Γ</text><path d="M3277.76 724.591C3282.13 725.744 3285.49 728.233 3287.83 732.059 3290.18 735.885 3291.35 740.501 3291.35 745.906 3291.35 751.327 3290.18 755.943 3287.84 759.753 3285.51 763.564 3282.15 766.046 3277.76 767.199L3277.22 765.47C3280.68 764.317 3283.25 762.041 3284.93 758.642 3286.62 755.242 3287.46 750.922 3287.46 745.682 3287.46 740.62 3286.62 736.416 3284.95 733.07 3283.27 729.723 3280.67 727.473 3277.15 726.32ZM3204.83 724.591 3205.44 726.32C3201.93 727.473 3199.34 729.723 3197.65 733.07 3195.97 736.416 3195.13 740.62 3195.13 745.682 3195.13 750.922 3195.97 755.242 3197.65 758.642 3199.34 762.041 3201.91 764.317 3205.37 765.47L3204.83 767.199C3200.44 766.046 3197.08 763.564 3194.75 759.753 3192.41 755.943 3191.24 751.327 3191.24 745.906 3191.24 740.501 3192.41 735.885 3194.76 732.059 3197.1 728.233 3200.46 725.744 3204.83 724.591Z" fill-rule="evenodd"/><text font-family="Cambria Math,Cambria Math_MSFontService,sans-serif" font-weight="400" font-size="46" transform="matrix(1 0 0 1 3206.22 759)">0</text><text font-family="Cambria Math,Cambria Math_MSFontService,sans-serif" font-weight="400" font-size="46" transform="matrix(1 0 0 1 3231.43 759)">;</text><text font-family="Cambria Math,Cambria Math_MSFontService,sans-serif" font-weight="400" font-size="46" transform="matrix(1 0 0 1 3251.09 759)">0</text><path d="M3174 710C3174 703.925 3178.92 699 3185 699 3191.07 699 3196 703.925 3196 710 3196 716.075 3191.07 721 3185 721 3178.92 721 3174 716.075 3174 710Z" fill-rule="evenodd"/><path d="M3363.49 749.215 3365.36 749.215 3365.36 776.528 3366.36 776.528C3367.05 776.528 3367.61 776.455 3368.05 776.309 3368.57 776.121 3369.14 775.804 3369.77 775.356 3370.39 774.908 3371.28 774.153 3372.42 773.09 3373.38 772.194 3374.11 771.434 3374.59 770.809 3375.08 770.184 3375.42 769.611 3375.61 769.09 3375.78 768.653 3375.86 768.215 3375.86 767.778 3375.86 767.153 3375.67 766.663 3375.28 766.309 3374.9 765.955 3374.27 765.715 3373.39 765.59L3373.39 764.059 3386.86 764.059 3386.86 765.59C3385.9 765.778 3384.88 766.205 3383.8 766.871 3382.71 767.538 3381.6 768.413 3380.45 769.496L3373.27 776.309 3382.27 788.059C3383.31 789.434 3384.25 790.449 3385.09 791.106 3385.94 791.762 3386.86 792.194 3387.86 792.403L3387.86 793.934 3375.86 793.934 3375.86 792.403C3376.4 792.34 3376.8 792.22 3377.06 792.043 3377.32 791.866 3377.45 791.569 3377.45 791.153 3377.45 790.84 3377.4 790.533 3377.28 790.231 3377.17 789.929 3376.93 789.517 3376.58 788.996 3376.22 788.475 3375.58 787.569 3374.64 786.278L3370.92 781.278C3370.21 780.34 3369.71 779.725 3369.41 779.434 3369.11 779.142 3368.79 778.934 3368.45 778.809 3368.12 778.684 3367.67 778.621 3367.11 778.621L3365.36 778.621 3365.36 786.121C3365.36 787.913 3365.44 789.158 3365.61 789.856 3365.78 790.554 3366.09 791.085 3366.56 791.449 3367.03 791.814 3367.8 792.132 3368.86 792.403L3368.86 793.934 3356.45 793.934 3356.45 792.403C3357.5 792.132 3358.22 791.85 3358.63 791.559 3359.03 791.267 3359.32 790.918 3359.5 790.512 3359.68 790.106 3359.8 789.554 3359.88 788.856 3359.95 788.158 3359.99 787.246 3359.99 786.121L3359.99 759.965C3359.99 757.965 3359.97 756.569 3359.94 755.778 3359.91 754.986 3359.82 754.314 3359.69 753.762 3359.55 753.21 3359.37 752.778 3359.13 752.465 3358.89 752.153 3358.56 751.903 3358.16 751.715 3357.75 751.528 3357.02 751.34 3355.95 751.153L3355.95 749.528Z" fill-rule="evenodd"/><text fill="#000000" fill-opacity="0" font-family="Arial,Arial_MSFontService,sans-serif" font-size="44.7188" x="3355.95" y="788.344">k</text><path d="M3391.71 784.07 3401.78 784.07 3401.78 785.539C3401.05 785.631 3400.52 785.787 3400.21 786.009 3399.9 786.231 3399.74 786.495 3399.74 786.801 3399.74 787.107 3399.82 787.421 3399.98 787.742 3400.14 788.063 3400.4 788.446 3400.75 788.889L3403.78 792.997 3407.04 789.05C3407.39 788.652 3407.66 788.281 3407.85 787.937 3408.04 787.593 3408.14 787.199 3408.14 786.755 3408.14 786.48 3407.99 786.231 3407.69 786.009 3407.39 785.787 3406.94 785.631 3406.33 785.539L3406.33 784.07 3414.75 784.07 3414.75 785.539C3414 785.722 3413.28 786.09 3412.6 786.64 3411.92 787.191 3411.18 787.941 3410.37 788.889L3405.32 794.948 3410.89 802.085C3411.32 802.651 3411.72 803.137 3412.1 803.542 3412.47 803.948 3412.83 804.288 3413.15 804.564 3413.48 804.839 3413.8 805.053 3414.11 805.206 3414.41 805.359 3414.72 805.474 3415.02 805.55L3415.02 807.019 3404.81 807.019 3404.81 805.482C3405.49 805.405 3405.98 805.252 3406.29 805.023 3406.61 804.793 3406.76 804.525 3406.76 804.219 3406.76 803.959 3406.72 803.692 3406.63 803.416 3406.53 803.141 3406.34 802.804 3406.05 802.406L3402.52 797.656 3398.68 802.361C3398.39 802.712 3398.19 803.026 3398.07 803.301 3397.94 803.577 3397.88 803.868 3397.88 804.174 3397.88 804.464 3398.04 804.736 3398.35 804.988 3398.67 805.241 3399.16 805.405 3399.83 805.482L3399.83 807.019 3391.23 807.019 3391.23 805.55C3391.65 805.397 3392.04 805.241 3392.37 805.08 3392.71 804.919 3393.05 804.705 3393.4 804.437 3393.74 804.17 3394.11 803.829 3394.51 803.416 3394.91 803.003 3395.38 802.468 3395.93 801.81L3400.98 795.774 3395.79 788.958C3395.32 788.331 3394.91 787.811 3394.55 787.398 3394.2 786.985 3393.88 786.648 3393.58 786.388 3393.28 786.128 3392.98 785.937 3392.68 785.814 3392.39 785.692 3392.06 785.6 3391.71 785.539Z" fill-rule="evenodd"/><text fill="#000000" fill-opacity="0" font-family="Arial,Arial_MSFontService,sans-serif" font-size="22.9492" x="3391.23" y="804.151">x</text><path d="M3109.48 525.072 3111.36 525.072 3111.36 552.384 3112.36 552.384C3113.04 552.384 3113.61 552.311 3114.04 552.166 3114.56 551.978 3115.14 551.66 3115.76 551.212 3116.39 550.765 3117.27 550.009 3118.42 548.947 3119.38 548.051 3120.1 547.291 3120.59 546.666 3121.08 546.041 3121.42 545.468 3121.61 544.947 3121.77 544.509 3121.86 544.072 3121.86 543.634 3121.86 543.009 3121.66 542.52 3121.28 542.166 3120.89 541.811 3120.26 541.572 3119.39 541.447L3119.39 539.916 3132.86 539.916 3132.86 541.447C3131.9 541.634 3130.88 542.061 3129.79 542.728 3128.71 543.395 3127.6 544.27 3126.45 545.353L3119.26 552.166 3128.26 563.916C3129.3 565.291 3130.25 566.306 3131.09 566.962 3131.93 567.619 3132.86 568.051 3133.86 568.259L3133.86 569.791 3121.86 569.791 3121.86 568.259C3122.4 568.197 3122.8 568.077 3123.06 567.9 3123.32 567.723 3123.45 567.426 3123.45 567.009 3123.45 566.697 3123.39 566.39 3123.28 566.087 3123.16 565.785 3122.93 565.374 3122.57 564.853 3122.22 564.332 3121.57 563.426 3120.64 562.134L3116.92 557.134C3116.21 556.197 3115.7 555.582 3115.4 555.291 3115.1 554.999 3114.78 554.791 3114.45 554.666 3114.12 554.541 3113.67 554.478 3113.11 554.478L3111.36 554.478 3111.36 561.978C3111.36 563.77 3111.44 565.015 3111.61 565.712 3111.77 566.41 3112.09 566.942 3112.56 567.306 3113.03 567.671 3113.79 567.989 3114.86 568.259L3114.86 569.791 3102.45 569.791 3102.45 568.259C3103.49 567.989 3104.22 567.707 3104.62 567.416 3105.03 567.124 3105.32 566.775 3105.5 566.369 3105.67 565.962 3105.8 565.41 3105.87 564.712 3105.94 564.015 3105.98 563.103 3105.98 561.978L3105.98 535.822C3105.98 533.822 3105.97 532.426 3105.93 531.634 3105.9 530.843 3105.82 530.171 3105.68 529.619 3105.55 529.067 3105.36 528.634 3105.12 528.322 3104.88 528.009 3104.56 527.759 3104.15 527.572 3103.75 527.384 3103.01 527.197 3101.95 527.009L3101.95 525.384Z" fill-rule="evenodd"/><text fill="#000000" fill-opacity="0" font-family="Arial,Arial_MSFontService,sans-serif" font-size="44.7188" x="3101.95" y="564.201">k</text><path d="M3137.27 559.927 3147.73 559.927 3147.73 561.396C3146.75 561.579 3146.07 561.809 3145.69 562.084 3145.31 562.359 3145.12 562.765 3145.12 563.3 3145.12 563.683 3145.17 564.096 3145.29 564.54 3145.4 564.983 3145.57 565.503 3145.78 566.1L3150.14 577.988 3155.12 566.651C3155.38 566.008 3155.6 565.454 3155.78 564.987 3155.95 564.52 3156.04 564.05 3156.04 563.576 3156.04 562.948 3155.83 562.463 3155.41 562.118 3154.99 561.774 3154.29 561.533 3153.31 561.396L3153.31 559.927 3162.86 559.927 3162.86 561.396C3162.37 561.503 3161.96 561.621 3161.64 561.751 3161.32 561.881 3161.02 562.084 3160.74 562.359 3160.47 562.635 3160.2 563.013 3159.93 563.495 3159.66 563.977 3159.34 564.616 3158.98 565.412L3150.14 584.459C3149.44 585.944 3148.75 587.217 3148.08 588.281 3147.4 589.344 3146.7 590.22 3145.95 590.908 3145.21 591.597 3144.41 592.105 3143.54 592.434 3142.68 592.763 3141.71 592.928 3140.64 592.928 3140.14 592.928 3139.62 592.897 3139.09 592.836 3138.56 592.775 3138 592.683 3137.41 592.561L3137.41 587.535 3139.86 587.535C3140.04 588.177 3140.3 588.64 3140.62 588.923 3140.94 589.206 3141.36 589.348 3141.88 589.348 3142.37 589.348 3142.81 589.271 3143.2 589.118 3143.59 588.965 3144 588.659 3144.42 588.2 3144.84 587.741 3145.3 587.095 3145.8 586.261 3146.31 585.427 3146.91 584.329 3147.62 582.968L3140.8 565.274C3140.53 564.555 3140.28 563.977 3140.07 563.541 3139.85 563.105 3139.63 562.753 3139.39 562.486 3139.15 562.218 3138.87 562.008 3138.54 561.854 3138.21 561.701 3137.79 561.549 3137.27 561.396Z" fill-rule="evenodd"/><text fill="#000000" fill-opacity="0" font-family="Arial,Arial_MSFontService,sans-serif" font-size="33.001" x="3137.27" y="588.803">y</text></g></svg>