<svg width="1766" height="743" xmlns="http://www.w3.org/2000/svg" xmlns:xlink="http://www.w3.org/1999/xlink" xml:space="preserve" overflow="hidden"><g transform="translate(-1421 -714)"><path d="M1611.5 1094 2287.5 802.5 2963.5 1094 2287.5 1385.5Z" stroke="#4EA72E" stroke-width="6.875" stroke-miterlimit="8" fill="none" fill-rule="evenodd"/><path d="M1.36043-3.15684 656.729 279.273 654.008 285.587-1.36043 3.15684ZM656.601 267.988 676.414 291.499 645.717 293.243Z" fill="#156082" transform="matrix(1 0 0 -1 1611.5 1094)"/><path d="M1920.24 1256.34C1921.38 1256.34 1922.29 1256.72 1922.95 1257.49 1923.61 1258.26 1923.94 1259.3 1923.94 1260.61 1923.94 1262.02 1923.67 1263.78 1923.11 1265.9L1921.93 1270.54C1921.63 1271.72 1921.41 1272.65 1921.27 1273.31 1921.14 1273.97 1921.04 1274.54 1920.98 1275.03 1920.91 1275.51 1920.88 1275.91 1920.88 1276.24 1920.88 1277.47 1921.09 1278.36 1921.5 1278.91 1921.91 1279.45 1922.58 1279.73 1923.51 1279.73 1924.27 1279.73 1925.08 1279.43 1925.94 1278.83 1926.81 1278.23 1927.73 1277.32 1928.71 1276.12 1929.69 1274.91 1930.47 1273.73 1931.06 1272.6 1931.65 1271.46 1932.13 1270.06 1932.51 1268.39L1935.06 1256.77 1939.71 1256.77 1935.79 1273.79C1935.39 1275.51 1935.2 1276.84 1935.2 1277.77 1935.2 1278.48 1935.31 1279 1935.55 1279.33 1935.78 1279.65 1936.15 1279.81 1936.65 1279.81 1937.18 1279.81 1937.76 1279.59 1938.37 1279.15 1938.97 1278.71 1939.83 1277.87 1940.94 1276.64L1942.47 1278.14C1940.84 1279.88 1939.46 1281.11 1938.31 1281.82 1937.17 1282.54 1935.95 1282.9 1934.66 1282.9 1933.55 1282.9 1932.66 1282.53 1932 1281.8 1931.34 1281.06 1931.01 1280.09 1931.01 1278.87 1931.01 1277.9 1931.22 1276.85 1931.65 1275.7L1931.33 1275.59C1929.56 1278.08 1927.88 1279.92 1926.29 1281.1 1924.71 1282.28 1923.08 1282.87 1921.42 1282.87 1919.75 1282.87 1918.47 1282.39 1917.58 1281.43 1916.68 1280.48 1916.24 1279.15 1916.24 1277.45 1916.24 1276.32 1916.5 1274.71 1917.02 1272.64L1918.76 1265.6C1919.24 1263.65 1919.49 1262.27 1919.49 1261.47 1919.49 1260.75 1919.37 1260.23 1919.14 1259.91 1918.9 1259.59 1918.54 1259.43 1918.04 1259.43 1917.48 1259.43 1916.89 1259.65 1916.28 1260.11 1915.66 1260.57 1914.81 1261.39 1913.74 1262.59L1912.21 1261.09C1913.73 1259.55 1914.88 1258.49 1915.65 1257.92 1916.42 1257.35 1917.15 1256.94 1917.86 1256.7 1918.57 1256.46 1919.36 1256.34 1920.24 1256.34Z" fill-rule="evenodd"/><text fill="#000000" fill-opacity="0" font-family="Arial,Arial_MSFontService,sans-serif" font-size="26.5601" x="1912.21" y="1279.58">𝑢</text><path d="M1954.73 1274.02C1956.09 1274.02 1957.24 1274.17 1958.2 1274.48 1959.16 1274.78 1959.94 1275.2 1960.53 1275.72 1961.13 1276.24 1961.57 1276.86 1961.83 1277.59 1962.1 1278.32 1962.23 1279.11 1962.23 1279.96 1962.23 1280.46 1962.2 1280.94 1962.13 1281.37 1962.05 1281.81 1961.93 1282.24 1961.76 1282.66 1961.58 1283.08 1961.35 1283.51 1961.06 1283.94 1960.78 1284.37 1960.42 1284.83 1959.99 1285.31 1959.66 1285.72 1959.24 1286.21 1958.72 1286.75 1958.2 1287.3 1957.63 1287.89 1957.01 1288.51 1956.39 1289.14 1955.74 1289.79 1955.07 1290.46 1954.39 1291.14 1953.73 1291.81 1953.09 1292.47 1952.46 1293.14 1951.87 1293.78 1951.34 1294.41 1950.8 1295.03 1950.37 1295.61 1950.03 1296.13L1957.25 1296.13C1957.87 1296.13 1958.35 1296.1 1958.72 1296.06 1959.08 1296.01 1959.39 1295.91 1959.63 1295.76 1959.87 1295.6 1960.07 1295.36 1960.24 1295.04 1960.41 1294.72 1960.61 1294.28 1960.83 1293.72L1962.64 1293.72C1962.58 1294.65 1962.52 1295.58 1962.46 1296.52 1962.4 1297.46 1962.34 1298.39 1962.27 1299.31L1945.73 1299.31 1945.73 1298.3C1946.04 1297.59 1946.41 1296.9 1946.82 1296.22 1947.24 1295.53 1947.71 1294.84 1948.23 1294.14 1948.75 1293.43 1949.34 1292.71 1950.01 1291.96 1950.67 1291.21 1951.41 1290.43 1952.21 1289.62 1953.44 1288.4 1954.43 1287.35 1955.2 1286.49 1955.97 1285.62 1956.58 1284.85 1957.02 1284.17 1957.46 1283.5 1957.76 1282.87 1957.93 1282.3 1958.09 1281.73 1958.17 1281.11 1958.17 1280.46 1958.17 1279.8 1958.08 1279.19 1957.89 1278.63 1957.7 1278.07 1957.43 1277.59 1957.08 1277.2 1956.73 1276.81 1956.28 1276.5 1955.74 1276.28 1955.2 1276.06 1954.58 1275.95 1953.87 1275.95 1952.66 1275.95 1951.65 1276.28 1950.83 1276.94 1950.01 1277.6 1949.37 1278.55 1948.91 1279.8L1946.35 1279.8 1946.35 1275.99C1948.02 1275.3 1949.55 1274.8 1950.95 1274.49 1952.35 1274.17 1953.61 1274.02 1954.73 1274.02Z" fill-rule="evenodd"/><text fill="#000000" fill-opacity="0" font-family="Arial,Arial_MSFontService,sans-serif" font-size="25.293" x="1945.73" y="1296.15">2</text><path d="M3.4375-5.69451e-06 3.43782 194.937-3.43718 194.937-3.4375 5.69451e-06ZM13.7503 190.353 0.000360892 217.853-13.7497 190.353Z" fill="#156082" transform="matrix(1 0 0 -1 2287.5 1164.35)"/><path d="M2239.5 1090.06 2445.66 1090.06 2445.66 1096.94 2239.5 1096.94ZM2441.07 1079.75 2468.57 1093.5 2441.07 1107.25Z" fill="#156082"/><path d="M2251.92 1111.27C2249.4 1111.27 2247.24 1111.85 2245.43 1113.03 2243.63 1114.21 2242.13 1115.88 2240.94 1118.05 2239.75 1120.22 2238.88 1122.84 2238.33 1125.92 2237.79 1129 2237.52 1132.43 2237.52 1136.21 2237.52 1144.8 2238.77 1151.34 2241.27 1155.82 2243.78 1160.3 2247.44 1162.54 2252.25 1162.54 2255.31 1162.54 2257.9 1161.57 2260.02 1159.62 2262.15 1157.67 2263.75 1154.83 2264.81 1151.08 2265.87 1147.32 2266.41 1142.94 2266.41 1137.93 2266.41 1131.83 2265.78 1126.77 2264.54 1122.75 2263.29 1118.73 2261.59 1115.82 2259.44 1114 2257.28 1112.18 2254.77 1111.27 2251.92 1111.27ZM2252.21 1107.57C2257.2 1107.57 2261.39 1108.67 2264.79 1110.87 2268.19 1113.07 2270.75 1116.3 2272.47 1120.57 2274.2 1124.84 2275.06 1130.04 2275.06 1136.17 2275.06 1142.72 2274.08 1148.25 2272.12 1152.75 2270.16 1157.26 2267.39 1160.64 2263.82 1162.87 2260.25 1165.11 2256.09 1166.23 2251.33 1166.23 2247.97 1166.23 2244.91 1165.68 2242.16 1164.58 2239.4 1163.47 2237.03 1161.75 2235.06 1159.41 2233.09 1157.07 2231.56 1154.08 2230.48 1150.45 2229.4 1146.81 2228.86 1142.45 2228.86 1137.39 2228.86 1131.14 2229.82 1125.78 2231.72 1121.3 2233.62 1116.82 2236.35 1113.42 2239.89 1111.08 2243.43 1108.74 2247.54 1107.57 2252.21 1107.57Z" fill-rule="evenodd"/><text fill="#000000" fill-opacity="0" font-family="Arial,Arial_MSFontService,sans-serif" font-size="58.6631" x="2228.86" y="1158.9">O</text><path d="M1612.86 1090.34 2266.88 1372.76 2264.15 1379.07 1610.14 1096.66ZM2266.76 1361.47 2286.55 1385 2255.86 1386.72Z" fill="#156082"/><path d="M1921.28 885.976C1922.43 885.976 1923.33 886.361 1923.99 887.131 1924.66 887.901 1924.99 888.939 1924.99 890.246 1924.99 891.66 1924.71 893.424 1924.16 895.537L1922.97 900.183C1922.67 901.364 1922.45 902.286 1922.32 902.949 1922.18 903.611 1922.08 904.184 1922.02 904.667 1921.96 905.151 1921.93 905.554 1921.93 905.876 1921.93 907.111 1922.13 908.002 1922.54 908.548 1922.96 909.094 1923.63 909.367 1924.56 909.367 1925.31 909.367 1926.12 909.067 1926.99 908.467 1927.86 907.868 1928.78 906.964 1929.75 905.755 1930.73 904.547 1931.51 903.374 1932.1 902.237 1932.7 901.1 1933.18 899.699 1933.55 898.034L1936.11 886.406 1940.75 886.406 1936.83 903.432C1936.44 905.151 1936.24 906.476 1936.24 907.407 1936.24 908.123 1936.36 908.642 1936.59 908.964 1936.82 909.287 1937.19 909.448 1937.69 909.448 1938.23 909.448 1938.8 909.228 1939.41 908.79 1940.02 908.351 1940.88 907.514 1941.99 906.279L1943.52 907.783C1941.89 909.519 1940.5 910.746 1939.36 911.462 1938.21 912.178 1936.99 912.536 1935.7 912.536 1934.59 912.536 1933.71 912.169 1933.04 911.435 1932.38 910.701 1932.05 909.725 1932.05 908.508 1932.05 907.541 1932.27 906.485 1932.7 905.339L1932.37 905.231C1930.6 907.72 1928.92 909.555 1927.34 910.737 1925.75 911.918 1924.13 912.509 1922.46 912.509 1920.8 912.509 1919.52 912.03 1918.62 911.072 1917.73 910.115 1917.28 908.785 1917.28 907.084 1917.28 905.956 1917.54 904.354 1918.06 902.277L1919.8 895.241C1920.29 893.29 1920.53 891.911 1920.53 891.105 1920.53 890.389 1920.41 889.87 1920.18 889.548 1919.95 889.226 1919.58 889.064 1919.08 889.064 1918.52 889.064 1917.94 889.293 1917.32 889.749 1916.7 890.206 1915.86 891.034 1914.78 892.233L1913.25 890.729C1914.77 889.19 1915.92 888.133 1916.69 887.56 1917.46 886.988 1918.2 886.58 1918.91 886.339 1919.61 886.097 1920.4 885.976 1921.28 885.976Z" fill-rule="evenodd"/><text fill="#000000" fill-opacity="0" font-family="Arial,Arial_MSFontService,sans-serif" font-size="26.5601" x="1913.25" y="909.216">𝑢</text><path d="M1955.4 903.794 1956.59 903.794C1956.56 904.51 1956.55 905.151 1956.53 905.718 1956.52 906.284 1956.51 906.834 1956.5 907.368 1956.5 907.902 1956.49 908.429 1956.49 908.95L1956.49 923.794C1956.49 924.198 1956.51 924.546 1956.53 924.839 1956.56 925.132 1956.6 925.379 1956.66 925.581 1956.72 925.783 1956.8 925.955 1956.89 926.099 1956.99 926.242 1957.1 926.365 1957.24 926.47 1957.39 926.626 1957.6 926.746 1957.86 926.831 1958.12 926.916 1958.45 926.987 1958.86 927.046 1959.26 927.104 1959.74 927.15 1960.31 927.183 1960.88 927.215 1961.56 927.238 1962.35 927.251L1962.35 928.95 1946.86 928.95 1946.86 927.251C1947.63 927.225 1948.28 927.196 1948.82 927.163 1949.35 927.13 1949.81 927.085 1950.18 927.026 1950.56 926.968 1950.86 926.903 1951.09 926.831 1951.32 926.759 1951.52 926.672 1951.69 926.567 1951.87 926.45 1952.03 926.323 1952.16 926.186 1952.29 926.05 1952.39 925.877 1952.47 925.669 1952.55 925.461 1952.61 925.207 1952.66 924.907 1952.7 924.608 1952.72 924.237 1952.72 923.794L1952.72 909.79C1952.72 909.282 1952.63 908.924 1952.43 908.716 1952.24 908.507 1951.96 908.403 1951.59 908.403 1951.19 908.403 1950.59 908.612 1949.79 909.028 1949 909.445 1947.97 910.063 1946.71 910.884 1946.54 910.584 1946.38 910.285 1946.24 909.985 1946.1 909.686 1945.95 909.38 1945.79 909.067 1947.4 908.182 1949 907.3 1950.58 906.421 1952.17 905.542 1953.77 904.666 1955.4 903.794Z" fill-rule="evenodd"/><text fill="#000000" fill-opacity="0" font-family="Arial,Arial_MSFontService,sans-serif" font-size="25.1562" x="1945.79" y="925.806">1</text><path d="M2289.61 752.466 2296.06 752.466 2298.12 769.99 2308.65 752.466 2314.34 752.466 2314.14 753.351C2313.69 753.447 2313.36 753.556 2313.16 753.676 2312.96 753.797 2312.78 753.977 2312.62 754.218 2312.46 754.459 2312.29 754.835 2312.13 755.347 2311.97 755.859 2311.76 756.693 2311.51 757.849L2308.42 771.869C2308.26 772.58 2308.16 773.143 2308.11 773.558 2308.06 773.974 2308.04 774.35 2308.04 774.687 2308.04 775.229 2308.17 775.612 2308.44 775.835 2308.72 776.057 2309.17 776.193 2309.81 776.241L2309.61 777.126 2302.38 777.126 2302.58 776.241C2303.04 776.169 2303.38 776.051 2303.61 775.889 2303.84 775.726 2304.03 775.5 2304.19 775.211 2304.35 774.922 2304.49 774.57 2304.62 774.154 2304.76 773.739 2304.95 772.935 2305.22 771.743L2307.62 760.849C2307.96 759.343 2308.34 757.843 2308.78 756.35L2308.53 756.35C2308.15 757.061 2307.31 758.506 2306 760.686L2297.78 774.254 2295.81 774.254 2294.31 762.637C2294.09 760.999 2293.85 758.795 2293.58 756.025L2293.22 756.025C2292.81 758.723 2292.36 761.222 2291.85 763.522L2290.01 771.869C2289.75 773.013 2289.63 773.953 2289.63 774.687 2289.63 775.229 2289.76 775.612 2290.03 775.835 2290.31 776.057 2290.76 776.193 2291.4 776.241L2291.2 777.126 2284.88 777.126 2285.08 776.241C2285.53 776.169 2285.88 776.051 2286.11 775.889 2286.33 775.726 2286.53 775.5 2286.68 775.211 2286.84 774.922 2286.98 774.57 2287.12 774.154 2287.25 773.739 2287.45 772.935 2287.71 771.743L2290.78 757.831C2290.9 757.314 2291 756.82 2291.07 756.35 2291.15 755.88 2291.18 755.404 2291.18 754.923 2291.18 754.357 2291.04 753.962 2290.76 753.739 2290.47 753.517 2290.03 753.387 2289.41 753.351Z" fill-rule="evenodd"/><text fill="#000000" fill-opacity="0" font-family="Arial,Arial_MSFontService,sans-serif" font-size="24.6606" x="2284.88" y="774.044">𝑀</text><path d="M2444.19 719.391C2449.14 723.631 2453.07 729.954 2455.98 738.361 2458.88 746.768 2460.34 756.15 2460.34 766.508 2460.34 776.71 2458.88 786.077 2455.98 794.61 2453.07 803.144 2449.14 809.518 2444.19 813.734L2443.34 812.397C2447.61 808.049 2450.91 801.756 2453.22 793.517 2455.53 785.279 2456.69 776.282 2456.69 766.526 2456.69 756.542 2455.53 747.502 2453.2 739.409 2450.88 731.315 2447.59 725.094 2443.34 720.746ZM2341.02 719.391 2341.87 720.746C2337.6 725.094 2334.31 731.315 2332 739.409 2329.68 747.502 2328.52 756.542 2328.52 766.526 2328.52 776.282 2329.67 785.279 2331.99 793.517 2334.3 801.756 2337.59 808.049 2341.87 812.397L2341.02 813.734C2336.07 809.518 2332.14 803.144 2329.23 794.61 2326.32 786.077 2324.87 776.71 2324.87 766.508 2324.87 756.15 2326.32 746.768 2329.23 738.361 2332.14 729.954 2336.07 723.631 2341.02 719.391Z" fill-rule="evenodd"/><path d="M2353.11 753.712C2352.28 753.712 2351.59 753.959 2351.03 754.453 2350.47 754.947 2350.02 755.657 2349.67 756.585 2349.33 757.512 2349.09 758.641 2348.94 759.972 2348.8 761.303 2348.72 762.806 2348.72 764.48 2348.72 768.406 2349.09 771.288 2349.82 773.125 2350.55 774.961 2351.68 775.88 2353.2 775.88 2354.66 775.88 2355.74 775.016 2356.45 773.287 2357.15 771.559 2357.5 768.882 2357.5 765.257 2357.5 762.487 2357.32 760.243 2356.96 758.527 2356.6 756.811 2356.1 755.579 2355.45 754.832 2354.81 754.086 2354.03 753.712 2353.11 753.712ZM2353.2 752.177C2355.84 752.177 2357.81 753.194 2359.09 755.23 2360.38 757.265 2361.03 760.343 2361.03 764.462 2361.03 768.725 2360.34 771.95 2358.96 774.136 2357.58 776.322 2355.57 777.415 2352.92 777.415 2350.31 777.415 2348.38 776.392 2347.11 774.344 2345.84 772.297 2345.2 769.189 2345.2 765.022 2345.2 762.806 2345.4 760.891 2345.79 759.277 2346.18 757.663 2346.73 756.329 2347.43 755.275 2348.14 754.221 2348.98 753.441 2349.97 752.935 2350.96 752.43 2352.04 752.177 2353.2 752.177Z" fill-rule="evenodd"/><text fill="#000000" fill-opacity="0" font-family="Arial,Arial_MSFontService,sans-serif" font-size="25.2388" x="2345.2" y="774.261">0</text><path d="M2365.34 772.935 2368.51 772.935C2368.67 773.778 2368.76 774.609 2368.76 775.428 2368.76 776.271 2368.61 777.042 2368.32 777.741 2368.04 778.439 2367.57 779.135 2366.94 779.827 2366.31 780.52 2365.44 781.282 2364.33 782.113L2363.36 781.011C2363.97 780.432 2364.42 779.912 2364.69 779.448 2364.97 778.984 2365.17 778.457 2365.29 777.867 2365.41 777.277 2365.47 776.536 2365.47 775.645 2365.47 774.73 2365.43 773.826 2365.34 772.935Z" fill-rule="evenodd"/><text fill="#000000" fill-opacity="0" font-family="Arial,Arial_MSFontService,sans-serif" font-size="9.17773" x="2363.36" y="780.965">,</text><path d="M2414.85 732.103 2429.68 732.103 2429.15 734.487 2424.85 734.487 2422.81 743.539C2422.55 744.719 2422.42 745.61 2422.42 746.213 2422.42 746.694 2422.49 747.044 2422.65 747.26 2422.81 747.477 2423.05 747.586 2423.39 747.586 2424.11 747.586 2424.96 747.008 2425.94 745.851L2426.99 746.827C2426.07 747.827 2425.24 748.549 2424.48 748.995 2423.73 749.44 2422.93 749.663 2422.07 749.663 2421.25 749.663 2420.61 749.383 2420.14 748.823 2419.67 748.263 2419.43 747.525 2419.43 746.61 2419.43 745.803 2419.6 744.635 2419.94 743.105L2420.34 741.28C2420.54 740.317 2420.83 739.155 2421.21 737.794 2421.59 736.433 2421.92 735.385 2422.2 734.65L2422.11 734.487 2416.8 734.487 2414.57 744.767C2414.39 745.574 2414.18 746.444 2413.94 747.378 2413.7 748.311 2413.51 748.977 2413.38 749.374L2409.55 749.374 2409.73 748.489C2411.01 747.224 2412.19 744.261 2413.27 739.6L2414.47 734.487 2413.89 734.487C2413.03 734.487 2412.31 734.632 2411.72 734.921 2411.13 735.21 2410.49 735.788 2409.79 736.655L2408.65 735.698C2409.27 734.939 2409.79 734.361 2410.18 733.964 2410.58 733.566 2411 733.229 2411.44 732.952 2411.88 732.675 2412.37 732.464 2412.92 732.32 2413.47 732.175 2414.11 732.103 2414.85 732.103ZM2398.4 724.424C2400.64 724.424 2402.34 724.915 2403.48 725.897 2404.63 726.879 2405.2 728.303 2405.2 730.17 2405.2 730.808 2405.13 731.395 2405.01 731.931 2404.88 732.467 2404.68 732.997 2404.41 733.521 2404.14 734.045 2403.78 734.608 2403.32 735.21 2402.86 735.812 2402.35 736.424 2401.8 737.044 2401.25 737.664 2400.29 738.697 2398.93 740.142 2396.64 742.563 2394.96 744.677 2393.89 746.484L2400.7 746.484C2401.29 746.484 2401.76 746.447 2402.13 746.375 2402.49 746.303 2402.78 746.182 2402.99 746.014 2403.21 745.845 2403.38 745.625 2403.51 745.354 2403.63 745.083 2403.79 744.665 2403.99 744.099L2405.52 744.099 2405.22 749.374 2390.35 749.374 2390.35 748.507C2390.86 747.242 2391.56 745.948 2392.44 744.623 2393.32 743.298 2394.57 741.738 2396.18 739.944 2397.58 738.402 2398.59 737.234 2399.2 736.439 2399.87 735.571 2400.38 734.822 2400.71 734.189 2401.04 733.557 2401.28 732.961 2401.42 732.401 2401.57 731.841 2401.64 731.278 2401.64 730.712 2401.64 729.808 2401.49 729.01 2401.2 728.318 2400.92 727.625 2400.47 727.08 2399.88 726.683 2399.28 726.285 2398.53 726.087 2397.63 726.087 2395.38 726.087 2393.86 727.339 2393.07 729.844L2390.89 729.844 2390.89 726.376C2392.35 725.689 2393.71 725.192 2394.98 724.885 2396.25 724.578 2397.39 724.424 2398.4 724.424Z" fill-rule="evenodd"/><text fill="#000000" fill-opacity="0" font-family="Arial,Arial_MSFontService,sans-serif" font-size="25.2388" x="2390.35" y="746.508">2𝜋</text><path d="M2398.35 774.563 2402.96 774.563 2402.96 775.128 2420.33 775.128 2420.33 777.128 2400.33 777.128 2400.33 776.966 2399.69 776.966 2389.97 810.172 2388.21 810.172 2380.73 794.093 2377.68 795.448 2377.12 794.093 2383.05 791.383 2389.42 805.403Z" fill-rule="evenodd"/><path d="M2410.89 782.174C2412.25 782.174 2413.44 782.385 2414.47 782.807 2415.49 783.228 2416.27 783.834 2416.82 784.622 2417.36 785.411 2417.63 786.354 2417.63 787.45 2417.63 788.474 2417.42 789.374 2417.02 790.151 2416.61 790.928 2416.03 791.605 2415.29 792.183 2414.55 792.761 2413.59 793.328 2412.41 793.882L2412.41 794.044C2413.14 794.177 2413.85 794.402 2414.53 794.722 2415.21 795.041 2415.82 795.453 2416.35 795.959 2416.88 796.465 2417.3 797.07 2417.62 797.775 2417.94 798.479 2418.1 799.283 2418.1 800.187 2418.1 801.584 2417.79 802.824 2417.19 803.908 2416.58 804.992 2415.65 805.848 2414.4 806.474 2413.14 807.1 2411.62 807.413 2409.82 807.413 2408.79 807.413 2407.67 807.296 2406.47 807.061 2405.27 806.826 2404.18 806.516 2403.18 806.131L2403.18 802.3 2405.34 802.3C2405.77 803.553 2406.32 804.462 2407.02 805.029 2407.71 805.595 2408.65 805.878 2409.84 805.878 2411.41 805.878 2412.59 805.45 2413.39 804.595 2414.19 803.74 2414.59 802.475 2414.59 800.801 2414.59 799.042 2414.06 797.7 2413 796.772 2411.94 795.845 2410.39 795.381 2408.34 795.381L2406.72 795.381 2406.72 793.791C2408.34 793.695 2409.71 793.382 2410.83 792.852 2411.94 792.322 2412.77 791.641 2413.31 790.81 2413.85 789.979 2414.12 789.046 2414.12 788.01 2414.12 786.673 2413.77 785.643 2413.06 784.921 2412.35 784.198 2411.31 783.837 2409.95 783.837 2408.82 783.837 2407.9 784.144 2407.19 784.758 2406.48 785.372 2405.95 786.312 2405.62 787.576L2403.45 787.576 2403.45 784.144C2404.84 783.481 2406.15 782.987 2407.37 782.662 2408.58 782.337 2409.76 782.174 2410.89 782.174Z" fill-rule="evenodd"/><text fill="#000000" fill-opacity="0" font-family="Arial,Arial_MSFontService,sans-serif" font-size="25.2388" x="2403.18" y="804.258">3</text><path d="M2432.21 790.973C2430.97 790.973 2429.85 791.473 2428.86 792.472 2427.88 793.472 2427.11 794.812 2426.55 796.492 2426 798.172 2425.72 799.849 2425.72 801.524 2425.72 802.776 2425.89 803.713 2426.24 804.333 2426.58 804.953 2427.15 805.263 2427.96 805.263 2428.76 805.263 2429.54 804.92 2430.3 804.234 2431.07 803.547 2431.85 802.568 2432.67 801.298 2433.48 800.027 2434.06 798.561 2434.39 796.899L2434.56 796.122C2434.66 795.628 2434.74 795.2 2434.77 794.839 2434.81 794.478 2434.83 794.086 2434.83 793.665 2434.83 792.737 2434.63 792.057 2434.23 791.623 2433.83 791.19 2433.16 790.973 2432.21 790.973ZM2431.85 789.546C2432.63 789.546 2433.36 789.633 2434.04 789.808 2434.72 789.982 2435.42 790.292 2436.15 790.738L2437.81 789.546 2438.96 789.835 2436.31 801.289C2436.04 802.433 2435.91 803.324 2435.91 803.963 2435.91 804.444 2435.99 804.794 2436.15 805.01 2436.3 805.227 2436.55 805.336 2436.89 805.336 2437.25 805.336 2437.63 805.188 2438.04 804.893 2438.45 804.598 2439.03 804.035 2439.78 803.204L2440.81 804.216C2439.72 805.372 2438.8 806.194 2438.03 806.682 2437.27 807.169 2436.44 807.413 2435.55 807.413 2434.8 807.413 2434.21 807.166 2433.76 806.673 2433.32 806.179 2433.09 805.522 2433.09 804.703 2433.09 804.041 2433.23 803.336 2433.51 802.59L2433.27 802.517C2432.12 804.203 2431.02 805.438 2429.99 806.221 2428.95 807.004 2427.85 807.395 2426.7 807.395 2425.37 807.395 2424.35 806.895 2423.62 805.896 2422.89 804.896 2422.52 803.493 2422.52 801.686 2422.52 799.615 2422.93 797.624 2423.74 795.715 2424.56 793.806 2425.67 792.301 2427.09 791.199 2428.52 790.097 2430.1 789.546 2431.85 789.546Z" fill-rule="evenodd"/><text fill="#000000" fill-opacity="0" font-family="Arial,Arial_MSFontService,sans-serif" font-size="17.8677" x="2422.52" y="805.18">𝑎</text><path d="M2376.33 765.128 2409.33 765.128 2442.33 765.128 2442.33 767.128 2409.33 767.128 2376.33 767.128Z" fill-rule="evenodd"/><path d="M2297.09 1395.34 2303.54 1395.34 2305.6 1412.87 2316.13 1395.34 2321.82 1395.34 2321.62 1396.23C2321.17 1396.33 2320.84 1396.43 2320.64 1396.55 2320.44 1396.68 2320.26 1396.86 2320.1 1397.1 2319.93 1397.34 2319.77 1397.71 2319.61 1398.23 2319.45 1398.74 2319.24 1399.57 2318.99 1400.73L2315.9 1414.75C2315.74 1415.46 2315.64 1416.02 2315.59 1416.44 2315.54 1416.85 2315.52 1417.23 2315.52 1417.57 2315.52 1418.11 2315.65 1418.49 2315.92 1418.71 2316.19 1418.94 2316.65 1419.07 2317.29 1419.12L2317.09 1420 2309.86 1420 2310.06 1419.12C2310.52 1419.05 2310.86 1418.93 2311.09 1418.77 2311.32 1418.6 2311.51 1418.38 2311.67 1418.09 2311.82 1417.8 2311.97 1417.45 2312.1 1417.03 2312.23 1416.62 2312.43 1415.81 2312.7 1414.62L2315.1 1403.73C2315.44 1402.22 2315.82 1400.72 2316.26 1399.23L2316 1399.23C2315.63 1399.94 2314.79 1401.38 2313.48 1403.56L2305.25 1417.13 2303.29 1417.13 2301.79 1405.52C2301.57 1403.88 2301.33 1401.67 2301.06 1398.9L2300.7 1398.9C2300.29 1401.6 2299.83 1404.1 2299.33 1406.4L2297.49 1414.75C2297.23 1415.89 2297.11 1416.83 2297.11 1417.57 2297.11 1418.11 2297.24 1418.49 2297.51 1418.71 2297.78 1418.94 2298.24 1419.07 2298.88 1419.12L2298.68 1420 2292.36 1420 2292.55 1419.12C2293.01 1419.05 2293.36 1418.93 2293.58 1418.77 2293.81 1418.6 2294.01 1418.38 2294.16 1418.09 2294.32 1417.8 2294.46 1417.45 2294.6 1417.03 2294.73 1416.62 2294.93 1415.81 2295.19 1414.62L2298.26 1400.71C2298.38 1400.19 2298.48 1399.7 2298.55 1399.23 2298.62 1398.76 2298.66 1398.28 2298.66 1397.8 2298.66 1397.24 2298.52 1396.84 2298.24 1396.62 2297.95 1396.4 2297.5 1396.27 2296.89 1396.23Z" fill-rule="evenodd"/><text fill="#000000" fill-opacity="0" font-family="Arial,Arial_MSFontService,sans-serif" font-size="24.6606" x="2292.36" y="1416.92">𝑀</text><path d="M2485.28 1362.27C2490.23 1366.51 2494.16 1372.83 2497.07 1381.24 2499.98 1389.65 2501.44 1399.03 2501.44 1409.39 2501.44 1419.59 2499.98 1428.96 2497.07 1437.49 2494.16 1446.02 2490.23 1452.4 2485.28 1456.61L2484.44 1455.28C2488.71 1450.93 2492.01 1444.63 2494.32 1436.4 2496.63 1428.16 2497.79 1419.16 2497.79 1409.4 2497.79 1399.42 2496.62 1390.38 2494.3 1382.29 2491.98 1374.19 2488.69 1367.97 2484.44 1363.62ZM2348.5 1362.27 2349.35 1363.62C2345.08 1367.97 2341.79 1374.19 2339.47 1382.29 2337.16 1390.38 2336 1399.42 2336 1409.4 2336 1419.16 2337.15 1428.16 2339.47 1436.4 2341.78 1444.63 2345.07 1450.93 2349.35 1455.28L2348.5 1456.61C2343.55 1452.4 2339.62 1446.02 2336.71 1437.49 2333.8 1428.96 2332.35 1419.59 2332.35 1409.39 2332.35 1399.03 2333.8 1389.65 2336.71 1381.24 2339.62 1372.83 2343.55 1366.51 2348.5 1362.27Z" fill-rule="evenodd"/><path d="M2360.59 1396.59C2359.76 1396.59 2359.07 1396.84 2358.51 1397.33 2357.95 1397.83 2357.49 1398.54 2357.15 1399.46 2356.81 1400.39 2356.56 1401.52 2356.42 1402.85 2356.28 1404.18 2356.2 1405.68 2356.2 1407.36 2356.2 1411.28 2356.57 1414.17 2357.3 1416 2358.02 1417.84 2359.15 1418.76 2360.68 1418.76 2362.14 1418.76 2363.22 1417.89 2363.93 1416.17 2364.63 1414.44 2364.98 1411.76 2364.98 1408.14 2364.98 1405.37 2364.8 1403.12 2364.44 1401.41 2364.08 1399.69 2363.58 1398.46 2362.93 1397.71 2362.29 1396.96 2361.51 1396.59 2360.59 1396.59ZM2360.68 1395.06C2363.32 1395.06 2365.28 1396.07 2366.57 1398.11 2367.86 1400.14 2368.51 1403.22 2368.51 1407.34 2368.51 1411.6 2367.82 1414.83 2366.44 1417.01 2365.06 1419.2 2363.04 1420.29 2360.39 1420.29 2357.79 1420.29 2355.86 1419.27 2354.59 1417.22 2353.32 1415.18 2352.68 1412.07 2352.68 1407.9 2352.68 1405.68 2352.88 1403.77 2353.27 1402.16 2353.66 1400.54 2354.21 1399.21 2354.91 1398.15 2355.62 1397.1 2356.46 1396.32 2357.45 1395.81 2358.44 1395.31 2359.52 1395.06 2360.68 1395.06Z" fill-rule="evenodd"/><text fill="#000000" fill-opacity="0" font-family="Arial,Arial_MSFontService,sans-serif" font-size="25.2388" x="2352.68" y="1417.14">0</text><path d="M2372.82 1415.81 2375.98 1415.81C2376.15 1416.66 2376.24 1417.49 2376.24 1418.31 2376.24 1419.15 2376.09 1419.92 2375.8 1420.62 2375.51 1421.32 2375.05 1422.01 2374.42 1422.71 2373.79 1423.4 2372.92 1424.16 2371.81 1424.99L2370.83 1423.89C2371.45 1423.31 2371.89 1422.79 2372.17 1422.33 2372.45 1421.86 2372.65 1421.34 2372.77 1420.75 2372.89 1420.16 2372.95 1419.41 2372.95 1418.52 2372.95 1417.61 2372.91 1416.7 2372.82 1415.81Z" fill-rule="evenodd"/><text fill="#000000" fill-opacity="0" font-family="Arial,Arial_MSFontService,sans-serif" font-size="9.17773" x="2370.83" y="1423.84">,</text><path d="M2386.66 1408.23 2408.92 1408.23 2408.92 1410.63 2386.66 1410.63Z" fill-rule="evenodd"/><text fill="#000000" fill-opacity="0" font-family="Arial,Arial_MSFontService,sans-serif" font-size="2.40283" x="2386.66" y="1410.33">−</text><path d="M2455.94 1374.98 2470.78 1374.98 2470.25 1377.37 2465.95 1377.37 2463.91 1386.42C2463.65 1387.6 2463.51 1388.49 2463.51 1389.09 2463.51 1389.57 2463.59 1389.92 2463.75 1390.14 2463.9 1390.36 2464.15 1390.46 2464.49 1390.46 2465.21 1390.46 2466.06 1389.89 2467.04 1388.73L2468.08 1389.71C2467.17 1390.7 2466.33 1391.43 2465.58 1391.87 2464.83 1392.32 2464.02 1392.54 2463.17 1392.54 2462.35 1392.54 2461.71 1392.26 2461.24 1391.7 2460.77 1391.14 2460.53 1390.4 2460.53 1389.49 2460.53 1388.68 2460.7 1387.51 2461.04 1385.98L2461.44 1384.16C2461.64 1383.2 2461.93 1382.03 2462.31 1380.67 2462.69 1379.31 2463.02 1378.26 2463.3 1377.53L2463.21 1377.37 2457.89 1377.37 2455.67 1387.65C2455.49 1388.45 2455.28 1389.32 2455.04 1390.26 2454.8 1391.19 2454.61 1391.86 2454.48 1392.25L2450.65 1392.25 2450.83 1391.37C2452.11 1390.1 2453.29 1387.14 2454.37 1382.48L2455.56 1377.37 2454.99 1377.37C2454.13 1377.37 2453.41 1377.51 2452.82 1377.8 2452.23 1378.09 2451.58 1378.67 2450.88 1379.53L2449.75 1378.58C2450.37 1377.82 2450.88 1377.24 2451.28 1376.84 2451.68 1376.44 2452.1 1376.11 2452.54 1375.83 2452.98 1375.55 2453.47 1375.34 2454.02 1375.2 2454.57 1375.05 2455.21 1374.98 2455.94 1374.98ZM2439.5 1367.3C2441.74 1367.3 2443.43 1367.79 2444.58 1368.78 2445.72 1369.76 2446.29 1371.18 2446.29 1373.05 2446.29 1373.69 2446.23 1374.27 2446.11 1374.81 2445.98 1375.35 2445.78 1375.88 2445.51 1376.4 2445.24 1376.92 2444.87 1377.49 2444.42 1378.09 2443.96 1378.69 2443.45 1379.3 2442.9 1379.92 2442.34 1380.54 2441.39 1381.58 2440.03 1383.02 2437.74 1385.44 2436.06 1387.56 2434.99 1389.36L2441.8 1389.36C2442.39 1389.36 2442.86 1389.33 2443.22 1389.25 2443.58 1389.18 2443.87 1389.06 2444.09 1388.89 2444.31 1388.72 2444.48 1388.5 2444.61 1388.23 2444.73 1387.96 2444.89 1387.54 2445.08 1386.98L2446.62 1386.98 2446.31 1392.25 2431.44 1392.25 2431.44 1391.39C2431.96 1390.12 2432.66 1388.83 2433.54 1387.5 2434.42 1386.18 2435.67 1384.62 2437.28 1382.82 2438.68 1381.28 2439.68 1380.11 2440.3 1379.32 2440.97 1378.45 2441.47 1377.7 2441.81 1377.07 2442.14 1376.44 2442.37 1375.84 2442.52 1375.28 2442.66 1374.72 2442.74 1374.16 2442.74 1373.59 2442.74 1372.69 2442.59 1371.89 2442.3 1371.2 2442.01 1370.5 2441.57 1369.96 2440.97 1369.56 2440.38 1369.16 2439.63 1368.97 2438.73 1368.97 2436.47 1368.97 2434.96 1370.22 2434.17 1372.72L2431.99 1372.72 2431.99 1369.25C2433.44 1368.57 2434.81 1368.07 2436.08 1367.76 2437.35 1367.46 2438.49 1367.3 2439.5 1367.3Z" fill-rule="evenodd"/><text fill="#000000" fill-opacity="0" font-family="Arial,Arial_MSFontService,sans-serif" font-size="25.2388" x="2431.44" y="1389.39">2𝜋</text><path d="M2439.45 1417.44 2444.05 1417.44 2444.05 1418.01 2461.63 1418.01 2461.63 1420.01 2441.63 1420.01 2441.63 1419.84 2440.78 1419.84 2431.06 1453.05 2429.31 1453.05 2421.83 1436.97 2418.78 1438.33 2418.22 1436.97 2424.15 1434.26 2430.52 1448.28Z" fill-rule="evenodd"/><path d="M2451.99 1425.05C2453.35 1425.05 2454.54 1425.26 2455.57 1425.69 2456.59 1426.11 2457.37 1426.71 2457.91 1427.5 2458.46 1428.29 2458.73 1429.23 2458.73 1430.33 2458.73 1431.35 2458.52 1432.25 2458.11 1433.03 2457.7 1433.81 2457.13 1434.48 2456.39 1435.06 2455.65 1435.64 2454.69 1436.21 2453.51 1436.76L2453.51 1436.92C2454.24 1437.06 2454.95 1437.28 2455.63 1437.6 2456.31 1437.92 2456.91 1438.33 2457.44 1438.84 2457.97 1439.34 2458.4 1439.95 2458.72 1440.65 2459.04 1441.36 2459.2 1442.16 2459.2 1443.07 2459.2 1444.46 2458.89 1445.7 2458.28 1446.79 2457.68 1447.87 2456.75 1448.73 2455.49 1449.35 2454.24 1449.98 2452.72 1450.29 2450.92 1450.29 2449.89 1450.29 2448.77 1450.17 2447.57 1449.94 2446.37 1449.7 2445.27 1449.39 2444.27 1449.01L2444.27 1445.18 2446.44 1445.18C2446.86 1446.43 2447.42 1447.34 2448.11 1447.91 2448.81 1448.47 2449.75 1448.76 2450.94 1448.76 2452.51 1448.76 2453.69 1448.33 2454.49 1447.47 2455.29 1446.62 2455.69 1445.35 2455.69 1443.68 2455.69 1441.92 2455.16 1440.58 2454.1 1439.65 2453.04 1438.72 2451.49 1438.26 2449.44 1438.26L2447.81 1438.26 2447.81 1436.67C2449.44 1436.57 2450.81 1436.26 2451.92 1435.73 2453.04 1435.2 2453.87 1434.52 2454.41 1433.69 2454.95 1432.86 2455.22 1431.92 2455.22 1430.89 2455.22 1429.55 2454.87 1428.52 2454.16 1427.8 2453.45 1427.08 2452.41 1426.72 2451.05 1426.72 2449.92 1426.72 2449 1427.02 2448.28 1427.64 2447.57 1428.25 2447.05 1429.19 2446.71 1430.45L2444.54 1430.45 2444.54 1427.02C2445.94 1426.36 2447.25 1425.87 2448.47 1425.54 2449.68 1425.22 2450.86 1425.05 2451.99 1425.05Z" fill-rule="evenodd"/><text fill="#000000" fill-opacity="0" font-family="Arial,Arial_MSFontService,sans-serif" font-size="25.2388" x="2444.27" y="1447.14">3</text><path d="M2473.3 1433.85C2472.06 1433.85 2470.95 1434.35 2469.96 1435.35 2468.98 1436.35 2468.2 1437.69 2467.65 1439.37 2467.1 1441.05 2466.82 1442.73 2466.82 1444.4 2466.82 1445.65 2466.99 1446.59 2467.33 1447.21 2467.68 1447.83 2468.25 1448.14 2469.06 1448.14 2469.85 1448.14 2470.63 1447.8 2471.4 1447.11 2472.16 1446.43 2472.95 1445.45 2473.77 1444.18 2474.58 1442.91 2475.15 1441.44 2475.49 1439.78L2475.65 1439C2475.76 1438.51 2475.83 1438.08 2475.87 1437.72 2475.91 1437.36 2475.92 1436.96 2475.92 1436.54 2475.92 1435.62 2475.73 1434.94 2475.33 1434.5 2474.93 1434.07 2474.26 1433.85 2473.3 1433.85ZM2472.94 1432.42C2473.73 1432.42 2474.46 1432.51 2475.14 1432.69 2475.82 1432.86 2476.52 1433.17 2477.24 1433.62L2478.91 1432.42 2480.06 1432.71 2477.41 1444.17C2477.14 1445.31 2477.01 1446.2 2477.01 1446.84 2477.01 1447.32 2477.09 1447.67 2477.24 1447.89 2477.4 1448.11 2477.65 1448.21 2477.98 1448.21 2478.35 1448.21 2478.73 1448.07 2479.14 1447.77 2479.55 1447.48 2480.13 1446.91 2480.87 1446.08L2481.9 1447.09C2480.82 1448.25 2479.9 1449.07 2479.13 1449.56 2478.37 1450.05 2477.54 1450.29 2476.65 1450.29 2475.9 1450.29 2475.3 1450.04 2474.86 1449.55 2474.41 1449.06 2474.19 1448.4 2474.19 1447.58 2474.19 1446.92 2474.33 1446.21 2474.61 1445.47L2474.37 1445.4C2473.21 1447.08 2472.12 1448.32 2471.08 1449.1 2470.05 1449.88 2468.95 1450.27 2467.79 1450.27 2466.47 1450.27 2465.44 1449.77 2464.71 1448.77 2463.99 1447.77 2463.62 1446.37 2463.62 1444.56 2463.62 1442.49 2464.03 1440.5 2464.84 1438.59 2465.65 1436.68 2466.77 1435.18 2468.19 1434.08 2469.61 1432.98 2471.2 1432.42 2472.94 1432.42Z" fill-rule="evenodd"/><text fill="#000000" fill-opacity="0" font-family="Arial,Arial_MSFontService,sans-serif" font-size="17.8677" x="2463.62" y="1448.06">𝑎</text><path d="M2417.63 1408.01 2450.63 1408.01 2483.63 1408.01 2483.63 1410.01 2450.63 1410.01 2417.63 1410.01Z" fill-rule="evenodd"/><path d="M1426.65 1009.37 1433.1 1009.37 1435.16 1026.89 1445.69 1009.37 1451.38 1009.37 1451.19 1010.25C1450.73 1010.35 1450.4 1010.46 1450.2 1010.58 1450 1010.7 1449.82 1010.88 1449.66 1011.12 1449.5 1011.36 1449.33 1011.74 1449.17 1012.25 1449.01 1012.76 1448.8 1013.59 1448.55 1014.75L1445.46 1028.77C1445.3 1029.48 1445.2 1030.04 1445.15 1030.46 1445.1 1030.87 1445.08 1031.25 1445.08 1031.59 1445.08 1032.13 1445.22 1032.51 1445.49 1032.74 1445.76 1032.96 1446.21 1033.09 1446.85 1033.14L1446.65 1034.03 1439.42 1034.03 1439.62 1033.14C1440.08 1033.07 1440.42 1032.95 1440.65 1032.79 1440.88 1032.63 1441.07 1032.4 1441.23 1032.11 1441.39 1031.82 1441.53 1031.47 1441.67 1031.06 1441.8 1030.64 1442 1029.84 1442.26 1028.64L1444.66 1017.75C1445 1016.24 1445.39 1014.74 1445.82 1013.25L1445.57 1013.25C1445.19 1013.96 1444.35 1015.41 1443.04 1017.59L1434.82 1031.15 1432.85 1031.15 1431.35 1019.54C1431.13 1017.9 1430.89 1015.7 1430.63 1012.93L1430.27 1012.93C1429.86 1015.62 1429.4 1018.12 1428.89 1020.42L1427.05 1028.77C1426.8 1029.91 1426.67 1030.85 1426.67 1031.59 1426.67 1032.13 1426.81 1032.51 1427.08 1032.74 1427.35 1032.96 1427.8 1033.09 1428.44 1033.14L1428.24 1034.03 1421.92 1034.03 1422.12 1033.14C1422.57 1033.07 1422.92 1032.95 1423.15 1032.79 1423.38 1032.63 1423.57 1032.4 1423.73 1032.11 1423.88 1031.82 1424.03 1031.47 1424.16 1031.06 1424.29 1030.64 1424.49 1029.84 1424.76 1028.64L1427.83 1014.73C1427.95 1014.21 1428.04 1013.72 1428.12 1013.25 1428.19 1012.78 1428.22 1012.31 1428.22 1011.82 1428.22 1011.26 1428.08 1010.86 1427.8 1010.64 1427.52 1010.42 1427.07 1010.29 1426.45 1010.25Z" fill-rule="evenodd"/><text fill="#000000" fill-opacity="0" font-family="Arial,Arial_MSFontService,sans-serif" font-size="24.6606" x="1421.92" y="1030.94">𝑀</text><path d="M1597.91 976.292C1602.86 980.531 1606.79 986.855 1609.7 995.262 1612.61 1003.67 1614.06 1013.05 1614.06 1023.41 1614.06 1033.61 1612.61 1042.98 1609.7 1051.51 1606.79 1060.04 1602.86 1066.42 1597.91 1070.63L1597.06 1069.3C1601.34 1064.95 1604.63 1058.66 1606.95 1050.42 1609.26 1042.18 1610.41 1033.18 1610.41 1023.43 1610.41 1013.44 1609.25 1004.4 1606.93 996.309 1604.6 988.216 1601.31 981.995 1597.06 977.647ZM1478.06 976.292 1478.91 977.647C1474.65 981.995 1471.36 988.216 1469.04 996.309 1466.72 1004.4 1465.56 1013.44 1465.56 1023.43 1465.56 1033.18 1466.72 1042.18 1469.03 1050.42 1471.34 1058.66 1474.63 1064.95 1478.91 1069.3L1478.06 1070.63C1473.11 1066.42 1469.18 1060.04 1466.27 1051.51 1463.36 1042.98 1461.91 1033.61 1461.91 1023.41 1461.91 1013.05 1463.36 1003.67 1466.27 995.262 1469.18 986.855 1473.11 980.531 1478.06 976.292Z" fill-rule="evenodd"/><path d="M1482.6 1022.25 1504.86 1022.25 1504.86 1024.65 1482.6 1024.65Z" fill-rule="evenodd"/><text fill="#000000" fill-opacity="0" font-family="Arial,Arial_MSFontService,sans-serif" font-size="2.40283" x="1482.6" y="1024.35">−</text><path d="M1540.36 989.004 1555.19 989.004 1554.67 991.388 1550.37 991.388 1548.33 1000.44C1548.06 1001.62 1547.93 1002.51 1547.93 1003.11 1547.93 1003.6 1548.01 1003.94 1548.16 1004.16 1548.32 1004.38 1548.57 1004.49 1548.91 1004.49 1549.63 1004.49 1550.48 1003.91 1551.45 1002.75L1552.5 1003.73C1551.59 1004.73 1550.75 1005.45 1550 1005.9 1549.25 1006.34 1548.44 1006.56 1547.59 1006.56 1546.77 1006.56 1546.12 1006.28 1545.65 1005.72 1545.18 1005.16 1544.95 1004.43 1544.95 1003.51 1544.95 1002.7 1545.12 1001.54 1545.45 1000.01L1545.85 998.181C1546.06 997.218 1546.35 996.056 1546.73 994.695 1547.11 993.333 1547.44 992.286 1547.71 991.551L1547.62 991.388 1542.31 991.388 1540.09 1001.67C1539.91 1002.48 1539.7 1003.35 1539.46 1004.28 1539.22 1005.21 1539.03 1005.88 1538.9 1006.28L1535.07 1006.28 1535.25 1005.39C1536.52 1004.13 1537.7 1001.16 1538.79 996.501L1539.98 991.388 1539.4 991.388C1538.55 991.388 1537.82 991.533 1537.23 991.822 1536.64 992.111 1536 992.689 1535.3 993.556L1534.16 992.599C1534.79 991.84 1535.3 991.262 1535.7 990.864 1536.1 990.467 1536.52 990.13 1536.95 989.853 1537.39 989.576 1537.89 989.365 1538.44 989.22 1538.98 989.076 1539.63 989.004 1540.36 989.004ZM1523.92 981.325C1526.16 981.325 1527.85 981.816 1529 982.798 1530.14 983.779 1530.71 985.204 1530.71 987.07 1530.71 987.709 1530.65 988.296 1530.52 988.832 1530.4 989.368 1530.2 989.898 1529.93 990.422 1529.66 990.946 1529.29 991.509 1528.83 992.111 1528.38 992.713 1527.87 993.324 1527.32 993.945 1526.76 994.565 1525.8 995.598 1524.44 997.043 1522.15 999.464 1520.47 1001.58 1519.4 1003.38L1526.21 1003.38C1526.8 1003.38 1527.28 1003.35 1527.64 1003.28 1528 1003.2 1528.29 1003.08 1528.51 1002.91 1528.72 1002.75 1528.9 1002.53 1529.02 1002.26 1529.15 1001.98 1529.31 1001.57 1529.5 1001L1531.04 1001 1530.73 1006.28 1515.86 1006.28 1515.86 1005.41C1516.38 1004.14 1517.08 1002.85 1517.96 1001.52 1518.84 1000.2 1520.08 998.639 1521.7 996.844 1523.09 995.303 1524.1 994.134 1524.71 993.34 1525.39 992.472 1525.89 991.723 1526.22 991.09 1526.55 990.458 1526.79 989.862 1526.94 989.302 1527.08 988.742 1527.15 988.179 1527.15 987.612 1527.15 986.709 1527.01 985.911 1526.72 985.219 1526.43 984.526 1525.99 983.981 1525.39 983.584 1524.8 983.186 1524.05 982.987 1523.14 982.987 1520.89 982.987 1519.37 984.24 1518.59 986.745L1516.4 986.745 1516.4 983.277C1517.86 982.59 1519.23 982.093 1520.5 981.786 1521.77 981.479 1522.91 981.325 1523.92 981.325Z" fill-rule="evenodd"/><text fill="#000000" fill-opacity="0" font-family="Arial,Arial_MSFontService,sans-serif" font-size="25.2388" x="1515.86" y="1003.41">2𝜋</text><path d="M1537.84 1050.31C1535.39 1050.33 1533.56 1050.66 1532.35 1051.29 1531.13 1051.91 1530.52 1052.86 1530.52 1054.12 1530.52 1054.81 1530.66 1055.35 1530.94 1055.75 1531.22 1056.15 1531.56 1056.42 1531.99 1056.57 1532.41 1056.72 1532.91 1056.8 1533.49 1056.8 1534.3 1056.8 1535.05 1056.6 1535.72 1056.2 1536.39 1055.8 1536.91 1055.3 1537.28 1054.68 1537.65 1054.07 1537.84 1053.46 1537.84 1052.86ZM1535.89 1040.97C1537.08 1040.97 1538.04 1041.16 1538.76 1041.54 1539.48 1041.92 1540.03 1042.5 1540.39 1043.28 1540.75 1044.06 1540.93 1045.25 1540.93 1046.82L1540.93 1053.11C1540.93 1054 1540.94 1054.63 1540.95 1055 1540.96 1055.37 1541 1055.71 1541.06 1056.02 1541.12 1056.33 1541.21 1056.58 1541.33 1056.77 1541.45 1056.96 1541.62 1057.11 1541.86 1057.25 1542.09 1057.38 1542.48 1057.52 1543.01 1057.66L1543.01 1058.55 1538.06 1058.55 1538.15 1055.96 1537.88 1055.89C1536.83 1056.96 1535.84 1057.72 1534.92 1058.17 1534 1058.61 1533.02 1058.84 1531.99 1058.84 1531.07 1058.84 1530.26 1058.66 1529.57 1058.3 1528.87 1057.95 1528.33 1057.45 1527.96 1056.8 1527.58 1056.16 1527.4 1055.42 1527.4 1054.57 1527.4 1052.81 1528.27 1051.46 1530.01 1050.5 1531.75 1049.54 1534.36 1048.98 1537.84 1048.83L1537.84 1047.65C1537.84 1046.4 1537.72 1045.41 1537.48 1044.69 1537.24 1043.97 1536.86 1043.44 1536.34 1043.1 1535.82 1042.76 1535.13 1042.6 1534.26 1042.6 1533.32 1042.6 1532.57 1042.84 1532 1043.34 1531.42 1043.83 1530.99 1044.57 1530.7 1045.56L1528.34 1045.56 1528.34 1043.21C1529.49 1042.61 1530.46 1042.16 1531.23 1041.88 1532 1041.6 1532.77 1041.38 1533.54 1041.21 1534.31 1041.05 1535.09 1040.97 1535.89 1040.97Z" fill-rule="evenodd"/><text fill="#000000" fill-opacity="0" font-family="Arial,Arial_MSFontService,sans-serif" font-size="17.8677" x="1527.4" y="1056.6">a</text><path d="M1513.92 1022.03 1556.92 1022.03 1556.92 1024.03 1513.92 1024.03Z" fill-rule="evenodd"/><path d="M1564.67 1029.84 1567.83 1029.84C1568 1030.68 1568.09 1031.51 1568.09 1032.33 1568.09 1033.17 1567.94 1033.94 1567.65 1034.64 1567.36 1035.34 1566.9 1036.04 1566.27 1036.73 1565.64 1037.42 1564.77 1038.18 1563.66 1039.01L1562.69 1037.91C1563.3 1037.33 1563.75 1036.81 1564.02 1036.35 1564.3 1035.89 1564.5 1035.36 1564.62 1034.77 1564.74 1034.18 1564.8 1033.44 1564.8 1032.55 1564.8 1031.63 1564.76 1030.73 1564.67 1029.84Z" fill-rule="evenodd"/><text fill="#000000" fill-opacity="0" font-family="Arial,Arial_MSFontService,sans-serif" font-size="9.17773" x="1562.69" y="1037.87">,</text><path d="M1586.06 1010.61C1585.23 1010.61 1584.54 1010.86 1583.98 1011.35 1583.42 1011.85 1582.96 1012.56 1582.62 1013.49 1582.28 1014.41 1582.03 1015.54 1581.89 1016.87 1581.74 1018.2 1581.67 1019.71 1581.67 1021.38 1581.67 1025.31 1582.04 1028.19 1582.77 1030.03 1583.49 1031.86 1584.62 1032.78 1586.15 1032.78 1587.61 1032.78 1588.69 1031.92 1589.4 1030.19 1590.1 1028.46 1590.45 1025.78 1590.45 1022.16 1590.45 1019.39 1590.27 1017.14 1589.91 1015.43 1589.55 1013.71 1589.05 1012.48 1588.4 1011.73 1587.76 1010.99 1586.98 1010.61 1586.06 1010.61ZM1586.15 1009.08C1588.79 1009.08 1590.75 1010.1 1592.04 1012.13 1593.33 1014.17 1593.98 1017.24 1593.98 1021.36 1593.98 1025.63 1593.29 1028.85 1591.91 1031.04 1590.53 1033.22 1588.51 1034.32 1585.86 1034.32 1583.26 1034.32 1581.33 1033.29 1580.06 1031.24 1578.78 1029.2 1578.15 1026.09 1578.15 1021.92 1578.15 1019.71 1578.34 1017.79 1578.74 1016.18 1579.13 1014.56 1579.68 1013.23 1580.38 1012.18 1581.09 1011.12 1581.93 1010.34 1582.92 1009.84 1583.91 1009.33 1584.98 1009.08 1586.15 1009.08Z" fill-rule="evenodd"/><text fill="#000000" fill-opacity="0" font-family="Arial,Arial_MSFontService,sans-serif" font-size="25.2388" x="1578.15" y="1031.16">0</text><path d="M2982.98 1059.28 2989.43 1059.28 2991.49 1076.8 3002.02 1059.28 3007.71 1059.28 3007.51 1060.17C3007.06 1060.26 3006.73 1060.37 3006.53 1060.49 3006.33 1060.61 3006.15 1060.79 3005.99 1061.03 3005.83 1061.27 3005.66 1061.65 3005.5 1062.16 3005.34 1062.67 3005.13 1063.51 3004.88 1064.66L3001.79 1078.68C3001.63 1079.39 3001.53 1079.96 3001.48 1080.37 3001.43 1080.79 3001.41 1081.16 3001.41 1081.5 3001.41 1082.04 3001.54 1082.43 3001.81 1082.65 3002.09 1082.87 3002.54 1083.01 3003.18 1083.06L3002.98 1083.94 2995.75 1083.94 2995.95 1083.06C2996.41 1082.98 2996.75 1082.87 2996.98 1082.7 2997.21 1082.54 2997.4 1082.32 2997.56 1082.03 2997.72 1081.74 2997.86 1081.38 2997.99 1080.97 2998.13 1080.55 2998.32 1079.75 2998.59 1078.56L3000.99 1067.66C3001.33 1066.16 3001.72 1064.66 3002.15 1063.16L3001.9 1063.16C3001.52 1063.88 3000.68 1065.32 2999.37 1067.5L2991.15 1081.07 2989.18 1081.07 2987.68 1069.45C2987.46 1067.81 2987.22 1065.61 2986.96 1062.84L2986.59 1062.84C2986.18 1065.54 2985.73 1068.04 2985.22 1070.34L2983.38 1078.68C2983.12 1079.83 2983 1080.77 2983 1081.5 2983 1082.04 2983.13 1082.43 2983.41 1082.65 2983.68 1082.87 2984.13 1083.01 2984.77 1083.06L2984.57 1083.94 2978.25 1083.94 2978.45 1083.06C2978.9 1082.98 2979.25 1082.87 2979.48 1082.7 2979.7 1082.54 2979.9 1082.32 2980.05 1082.03 2980.21 1081.74 2980.35 1081.38 2980.49 1080.97 2980.62 1080.55 2980.82 1079.75 2981.08 1078.56L2984.15 1064.65C2984.28 1064.13 2984.37 1063.63 2984.44 1063.16 2984.52 1062.7 2984.55 1062.22 2984.55 1061.74 2984.55 1061.17 2984.41 1060.78 2984.13 1060.55 2983.84 1060.33 2983.4 1060.2 2982.78 1060.17Z" fill-rule="evenodd"/><text fill="#000000" fill-opacity="0" font-family="Arial,Arial_MSFontService,sans-serif" font-size="24.6606" x="2978.25" y="1080.86">𝑀</text><path d="M3114.5 1026.21C3119.45 1030.45 3123.38 1036.77 3126.29 1045.18 3129.2 1053.58 3130.65 1062.96 3130.65 1073.32 3130.65 1083.52 3129.2 1092.89 3126.29 1101.43 3123.38 1109.96 3119.45 1116.33 3114.5 1120.55L3113.65 1119.21C3117.93 1114.86 3121.22 1108.57 3123.54 1100.33 3125.85 1092.09 3127.01 1083.1 3127.01 1073.34 3127.01 1063.36 3125.84 1054.32 3123.52 1046.22 3121.19 1038.13 3117.91 1031.91 3113.65 1027.56ZM3034.39 1026.21 3035.24 1027.56C3030.98 1031.91 3027.68 1038.13 3025.37 1046.22 3023.05 1054.32 3021.89 1063.36 3021.89 1073.34 3021.89 1083.1 3023.04 1092.09 3025.36 1100.33 3027.67 1108.57 3030.96 1114.86 3035.24 1119.21L3034.39 1120.55C3029.44 1116.33 3025.51 1109.96 3022.6 1101.43 3019.69 1092.89 3018.24 1083.52 3018.24 1073.32 3018.24 1062.96 3019.69 1053.58 3022.6 1045.18 3025.51 1036.77 3029.44 1030.45 3034.39 1026.21Z" fill-rule="evenodd"/><path d="M3046.48 1060.53C3045.65 1060.53 3044.96 1060.77 3044.4 1061.27 3043.84 1061.76 3043.39 1062.47 3043.04 1063.4 3042.7 1064.33 3042.46 1065.46 3042.31 1066.79 3042.17 1068.12 3042.09 1069.62 3042.09 1071.29 3042.09 1075.22 3042.46 1078.1 3043.19 1079.94 3043.92 1081.78 3045.05 1082.69 3046.57 1082.69 3048.03 1082.69 3049.11 1081.83 3049.82 1080.1 3050.52 1078.37 3050.87 1075.7 3050.87 1072.07 3050.87 1069.3 3050.69 1067.06 3050.33 1065.34 3049.97 1063.63 3049.47 1062.39 3048.82 1061.65 3048.18 1060.9 3047.4 1060.53 3046.48 1060.53ZM3046.57 1058.99C3049.21 1058.99 3051.18 1060.01 3052.46 1062.04 3053.75 1064.08 3054.4 1067.16 3054.4 1071.28 3054.4 1075.54 3053.71 1078.77 3052.33 1080.95 3050.95 1083.14 3048.94 1084.23 3046.29 1084.23 3043.68 1084.23 3041.75 1083.21 3040.48 1081.16 3039.21 1079.11 3038.57 1076 3038.57 1071.84 3038.57 1069.62 3038.77 1067.71 3039.16 1066.09 3039.55 1064.48 3040.1 1063.14 3040.8 1062.09 3041.51 1061.04 3042.35 1060.26 3043.34 1059.75 3044.33 1059.24 3045.41 1058.99 3046.57 1058.99Z" fill-rule="evenodd"/><text fill="#000000" fill-opacity="0" font-family="Arial,Arial_MSFontService,sans-serif" font-size="25.2388" x="3038.57" y="1081.08">0</text><path d="M3058.71 1079.75 3061.88 1079.75C3062.04 1080.59 3062.13 1081.42 3062.13 1082.24 3062.13 1083.09 3061.98 1083.86 3061.69 1084.56 3061.41 1085.25 3060.95 1085.95 3060.31 1086.64 3059.68 1087.33 3058.81 1088.1 3057.7 1088.93L3056.73 1087.83C3057.34 1087.25 3057.79 1086.73 3058.06 1086.26 3058.34 1085.8 3058.54 1085.27 3058.66 1084.68 3058.78 1084.09 3058.84 1083.35 3058.84 1082.46 3058.84 1081.54 3058.8 1080.64 3058.71 1079.75Z" fill-rule="evenodd"/><text fill="#000000" fill-opacity="0" font-family="Arial,Arial_MSFontService,sans-serif" font-size="9.17773" x="3056.73" y="1087.78">,</text><path d="M3096.69 1038.92 3111.52 1038.92 3111 1041.3 3106.7 1041.3 3104.66 1050.35C3104.39 1051.53 3104.26 1052.43 3104.26 1053.03 3104.26 1053.51 3104.34 1053.86 3104.49 1054.08 3104.65 1054.29 3104.9 1054.4 3105.23 1054.4 3105.96 1054.4 3106.81 1053.82 3107.78 1052.67L3108.83 1053.64C3107.91 1054.64 3107.08 1055.36 3106.33 1055.81 3105.57 1056.26 3104.77 1056.48 3103.92 1056.48 3103.1 1056.48 3102.45 1056.2 3101.98 1055.64 3101.51 1055.08 3101.28 1054.34 3101.28 1053.42 3101.28 1052.62 3101.45 1051.45 3101.78 1049.92L3102.18 1048.1C3102.39 1047.13 3102.68 1045.97 3103.06 1044.61 3103.44 1043.25 3103.76 1042.2 3104.04 1041.46L3103.95 1041.3 3098.64 1041.3 3096.42 1051.58C3096.24 1052.39 3096.03 1053.26 3095.79 1054.19 3095.54 1055.13 3095.36 1055.79 3095.23 1056.19L3091.4 1056.19 3091.58 1055.3C3092.85 1054.04 3094.03 1051.08 3095.12 1046.42L3096.31 1041.3 3095.73 1041.3C3094.88 1041.3 3094.15 1041.45 3093.56 1041.74 3092.97 1042.03 3092.33 1042.6 3091.63 1043.47L3090.49 1042.51C3091.12 1041.75 3091.63 1041.18 3092.03 1040.78 3092.43 1040.38 3092.84 1040.04 3093.28 1039.77 3093.72 1039.49 3094.22 1039.28 3094.76 1039.13 3095.31 1038.99 3095.95 1038.92 3096.69 1038.92ZM3080.25 1031.24C3082.49 1031.24 3084.18 1031.73 3085.32 1032.71 3086.47 1033.69 3087.04 1035.12 3087.04 1036.98 3087.04 1037.62 3086.98 1038.21 3086.85 1038.75 3086.72 1039.28 3086.53 1039.81 3086.25 1040.34 3085.98 1040.86 3085.62 1041.42 3085.16 1042.03 3084.7 1042.63 3084.2 1043.24 3083.64 1043.86 3083.09 1044.48 3082.13 1045.51 3080.77 1046.96 3078.48 1049.38 3076.8 1051.49 3075.73 1053.3L3082.54 1053.3C3083.13 1053.3 3083.61 1053.26 3083.97 1053.19 3084.33 1053.12 3084.62 1053 3084.84 1052.83 3085.05 1052.66 3085.23 1052.44 3085.35 1052.17 3085.48 1051.9 3085.64 1051.48 3085.83 1050.91L3087.37 1050.91 3087.06 1056.19 3072.19 1056.19 3072.19 1055.32C3072.71 1054.06 3073.41 1052.76 3074.29 1051.44 3075.17 1050.11 3076.41 1048.55 3078.03 1046.76 3079.42 1045.22 3080.43 1044.05 3081.04 1043.25 3081.72 1042.39 3082.22 1041.64 3082.55 1041 3082.88 1040.37 3083.12 1039.78 3083.26 1039.22 3083.41 1038.66 3083.48 1038.09 3083.48 1037.53 3083.48 1036.62 3083.34 1035.83 3083.05 1035.13 3082.76 1034.44 3082.32 1033.9 3081.72 1033.5 3081.12 1033.1 3080.37 1032.9 3079.47 1032.9 3077.22 1032.9 3075.7 1034.15 3074.92 1036.66L3072.73 1036.66 3072.73 1033.19C3074.19 1032.5 3075.55 1032.01 3076.82 1031.7 3078.09 1031.39 3079.24 1031.24 3080.25 1031.24Z" fill-rule="evenodd"/><text fill="#000000" fill-opacity="0" font-family="Arial,Arial_MSFontService,sans-serif" font-size="25.2388" x="3072.19" y="1053.32">2𝜋</text><path d="M3094.17 1100.22C3091.72 1100.25 3089.89 1100.57 3088.68 1101.2 3087.46 1101.83 3086.85 1102.77 3086.85 1104.04 3086.85 1104.72 3086.99 1105.26 3087.27 1105.66 3087.54 1106.06 3087.89 1106.33 3088.31 1106.48 3088.74 1106.63 3089.24 1106.71 3089.81 1106.71 3090.63 1106.71 3091.38 1106.51 3092.05 1106.11 3092.71 1105.72 3093.23 1105.21 3093.61 1104.6 3093.98 1103.98 3094.17 1103.37 3094.17 1102.77ZM3092.22 1090.88C3093.41 1090.88 3094.37 1091.07 3095.09 1091.45 3095.81 1091.83 3096.35 1092.41 3096.72 1093.2 3097.08 1093.98 3097.26 1095.16 3097.26 1096.74L3097.26 1103.02C3097.26 1103.92 3097.26 1104.54 3097.28 1104.91 3097.29 1105.28 3097.32 1105.62 3097.38 1105.93 3097.44 1106.25 3097.53 1106.5 3097.66 1106.68 3097.78 1106.87 3097.95 1107.03 3098.19 1107.16 3098.42 1107.29 3098.81 1107.43 3099.34 1107.58L3099.34 1108.46 3094.39 1108.46 3094.48 1105.88 3094.2 1105.81C3093.16 1106.88 3092.17 1107.64 3091.25 1108.08 3090.33 1108.53 3089.35 1108.75 3088.31 1108.75 3087.4 1108.75 3086.59 1108.57 3085.89 1108.22 3085.2 1107.86 3084.66 1107.36 3084.29 1106.72 3083.91 1106.07 3083.73 1105.33 3083.73 1104.49 3083.73 1102.73 3084.6 1101.37 3086.34 1100.41 3088.08 1099.46 3090.69 1098.9 3094.17 1098.74L3094.17 1097.57C3094.17 1096.32 3094.05 1095.33 3093.81 1094.6 3093.57 1093.88 3093.19 1093.35 3092.67 1093.02 3092.15 1092.68 3091.46 1092.51 3090.59 1092.51 3089.65 1092.51 3088.9 1092.76 3088.32 1093.25 3087.75 1093.74 3087.32 1094.48 3087.03 1095.47L3084.67 1095.47 3084.67 1093.12C3085.82 1092.52 3086.79 1092.08 3087.56 1091.8 3088.33 1091.51 3089.1 1091.29 3089.87 1091.13 3090.64 1090.96 3091.42 1090.88 3092.22 1090.88Z" fill-rule="evenodd"/><text fill="#000000" fill-opacity="0" font-family="Arial,Arial_MSFontService,sans-serif" font-size="17.8677" x="3083.73" y="1106.52">a</text><path d="M3070.18 1071.94 3113.18 1071.94 3113.18 1073.94 3070.18 1073.94Z" fill-rule="evenodd"/><path d="M1599.5 1092.5C1599.5 1087.53 1603.53 1083.5 1608.5 1083.5 1613.47 1083.5 1617.5 1087.53 1617.5 1092.5 1617.5 1097.47 1613.47 1101.5 1608.5 1101.5 1603.53 1101.5 1599.5 1097.47 1599.5 1092.5Z" stroke="#042433" stroke-width="6.875" stroke-miterlimit="8" fill="#156082" fill-rule="evenodd"/><path d="M2279.5 1093C2279.5 1088.31 2283.31 1084.5 2288 1084.5 2292.69 1084.5 2296.5 1088.31 2296.5 1093 2296.5 1097.69 2292.69 1101.5 2288 1101.5 2283.31 1101.5 2279.5 1097.69 2279.5 1093Z" stroke="#042433" stroke-width="6.875" stroke-miterlimit="8" fill="#156082" fill-rule="evenodd"/><path d="M2454.9 1125.3 2465.43 1125.3 2465.43 1126.62C2464.01 1126.83 2463.31 1127.39 2463.31 1128.28 2463.31 1128.69 2463.4 1129.11 2463.59 1129.52 2463.78 1129.93 2464.07 1130.39 2464.46 1130.89L2467.74 1135.48 2471.23 1131.05C2471.61 1130.57 2471.91 1130.1 2472.14 1129.64 2472.38 1129.18 2472.49 1128.71 2472.49 1128.23 2472.49 1127.82 2472.34 1127.48 2472.04 1127.21 2471.73 1126.94 2471.26 1126.74 2470.61 1126.62L2470.61 1125.3 2479.39 1125.3 2479.39 1126.62C2478.71 1126.81 2478.02 1127.2 2477.31 1127.77 2476.61 1128.35 2475.74 1129.27 2474.72 1130.54L2469.16 1137.36 2475.28 1145.6C2476.16 1146.79 2476.95 1147.69 2477.65 1148.32 2478.35 1148.94 2479.04 1149.39 2479.74 1149.66L2479.74 1150.98 2468.95 1150.98 2468.95 1149.66C2470.43 1149.48 2471.18 1148.93 2471.18 1147.99 2471.18 1147.62 2471.11 1147.26 2470.99 1146.92 2470.86 1146.58 2470.63 1146.19 2470.29 1145.74L2466.4 1140.31 2462.26 1145.69C2461.96 1146.08 2461.72 1146.44 2461.55 1146.77 2461.38 1147.1 2461.29 1147.48 2461.29 1147.89 2461.29 1148.37 2461.46 1148.77 2461.79 1149.08 2462.12 1149.4 2462.65 1149.59 2463.36 1149.66L2463.36 1150.98 2454.39 1150.98 2454.39 1149.66C2454.98 1149.45 2455.51 1149.18 2455.99 1148.85 2456.46 1148.53 2456.95 1148.12 2457.44 1147.61 2457.93 1147.1 2458.58 1146.35 2459.39 1145.36L2464.97 1138.43 2459.25 1130.59C2458.46 1129.52 2457.84 1128.74 2457.37 1128.26 2456.91 1127.77 2456.48 1127.41 2456.08 1127.16 2455.69 1126.9 2455.3 1126.73 2454.9 1126.62Z" fill-rule="evenodd"/><text fill="#000000" fill-opacity="0" font-family="Arial,Arial_MSFontService,sans-serif" font-size="25.6738" x="2454.39" y="1147.77">x</text><path d="M2252.58 953.001 2263.51 953.001 2263.51 954.317C2262.67 954.513 2262.08 954.706 2261.74 954.894 2261.4 955.082 2261.15 955.324 2260.99 955.619 2260.83 955.914 2260.75 956.295 2260.75 956.76 2260.75 957.244 2260.81 957.745 2260.92 958.264 2261.04 958.784 2261.22 959.392 2261.47 960.09L2266.25 973.545 2271.62 960.654C2271.93 959.938 2272.17 959.28 2272.34 958.681 2272.51 958.081 2272.59 957.521 2272.59 957.002 2272.59 956.232 2272.38 955.65 2271.96 955.256 2271.54 954.863 2270.81 954.549 2269.77 954.317L2269.77 953.001 2279.81 953.001 2279.81 954.317C2279.12 954.46 2278.58 954.679 2278.2 954.974 2277.83 955.27 2277.45 955.735 2277.08 956.371 2276.7 957.007 2276.25 957.897 2275.73 959.043L2266.01 980.877C2265.03 983.097 2264.07 984.896 2263.14 986.275 2262.21 987.653 2261.18 988.692 2260.06 989.39 2258.94 990.088 2257.61 990.437 2256.07 990.437 2255.09 990.437 2253.98 990.321 2252.74 990.088L2252.74 984.771 2255.13 984.771C2255.35 985.505 2255.62 986.015 2255.94 986.301 2256.26 986.588 2256.73 986.731 2257.34 986.731 2257.87 986.731 2258.35 986.628 2258.77 986.422 2259.19 986.216 2259.63 985.863 2260.09 985.361 2260.55 984.86 2261.08 984.09 2261.7 983.052 2262.32 982.013 2263.01 980.698 2263.78 979.104L2256.26 958.882C2255.78 957.575 2255.39 956.662 2255.09 956.143 2254.8 955.623 2254.48 955.23 2254.14 954.961 2253.8 954.693 2253.28 954.478 2252.58 954.317Z" fill-rule="evenodd"/><text fill="#000000" fill-opacity="0" font-family="Arial,Arial_MSFontService,sans-serif" font-size="37.4365" x="2252.58" y="985.758">y</text></g></svg>